<?xml version="1.0" encoding="UTF-8"?>
<svg id="Layer_1" xmlns="http://www.w3.org/2000/svg" xmlns:xlink="http://www.w3.org/1999/xlink" version="1.1" viewBox="0 0 793.7 595.3">
  <!-- Generator: Adobe Illustrator 30.0.0, SVG Export Plug-In . SVG Version: 2.1.1 Build 123)  -->
  <defs>
    <style>
      .st0 {
        fill: none;
      }

      .st1, .st2 {
        fill: #970a2c;
      }

      .st3, .st4 {
        fill: #6d1b00;
      }

      .st3, .st2 {
        fill-rule: evenodd;
      }

      .st5 {
        fill: #fff;
      }

      .st6 {
        clip-path: url(#clippath);
      }
    </style>
    <clipPath id="clippath">
      <path class="st0" d="M338.2,214.8l.6.3c-9.7-1.1-22.3-5.7-33.8-8-3.5-.7-3.7-.5-6.6,1.6,17.9,9.3,28.5,6.7,45.5,13.1-4.6-.6-9.6-2-14.4-3-4.6-.9-9.6-2.4-13.4-.4,10.5,6.5,20.8,5.4,30.8,7.7-9.1.6-19.7-3.7-27.8-.2,9.1,5.3,20.4,3.1,30,4.5-3.9,1-8.6,0-12.9.2-4.1.1-8.7.5-11.2,3.1,9,4,17.8.7,26.5,1.2-2.7.7-6.7,1.2-10.5,1.8-3.5.6-8.3.3-9.9,3.7,7.8,2.7,15.7-1,23.2-1.7-4,2.5-12.7,2.1-16.1,6.6,7.2,2,14.6-2.2,21.7-3.3-3,2.7-10.6,2.5-12.9,7.4,2.6,1.3,4.3-.4,6.5-.3-8.3,3.7-14,16.3-21,24.8-6,7.3-12.9,9-18.6,14.5,2.8.4,4.6-2,7.2-2.3-3.8,3.7-8.6,4.4-11.4,11.4,4.1.3,8.2-6.3,12.3-8.5-2.7,4-9.3,8-12.8,13.4-1.2,1.9-3.6,5.6-2.4,7.9,7.2-3.6,12.3-13.8,18.8-19.6-2.4,5.4-11.5,12-10.2,19.2,3.2-1.2,5.4-5.4,7.7-8.8,2.4-3.6,4.6-7.4,6.9-10.4-1.3,5.1-8,10.6-6.3,15.5,5.5-2.9,7.6-16.3,13.2-20.4,4.5-3.3,17.5-.4,23.7.5,22.7,3.5,38.4,4.9,53.8-13.3,3.5-4.1,7.6-13,13.1-13.3,3.2-.1,6.9,1.8,11.6,3.1,4.5,1.2,8.8.8,11.1,1.7,3.6,1.4,7.3,4.9,10.8,7.9,3.8,3.3,6.6,6,9.5,8.7,6.2,5.7,12.6,11.2,17.5,15.8,1.3,1.3,2.4,3.1,4.3,3.4-3.1-7.9-9.3-14.4-15.6-21.1-6.2-6.6-13.1-13.4-20.8-19.4-3.1-13.6-3.1-26.9-18.8-33.5-10.5-4.4-18.8-.2-26.6,4.4-3.7,2.2-9.1,7.2-14.2,2-2.2-2.3-1.2-7.9-1.5-11.1-.8-7.6-4.2-13.9-8.9-20.9-11-16.4-34-40.7-48.4-56.9-3.6-4.1-7.3-8.2-11.4-12.2-3.8-3.7-7.7-9.1-13.8-9.8.1,3.5,2.8,6.5,4.9,9.3,6.4,8.5,22.5,23.6,30,32-9.9-6.6-24.8-24.4-37.3-30.1-2,3.5,2.1,6.3,4.1,8.5,6.4,7.1,22.5,21.6,31.3,27.8-9.7-3.7-25.2-21-36-22.6,5.9,10.4,28.6,24.9,39.9,33.8-9.3-3.9-27.7-20.3-37.7-21.5-.7,2.3,2.3,4.2,3.9,5.6,6.8,5.6,23.8,17.9,32.8,23.4-8-2-25.3-17.1-32.2-15.9,4.1,6.2,21.4,17.4,29.8,22.3-4.8-.8-10.8-5-15.4-5-1,.3-1.1,1.7-.8,2.4-15-6.4-26.2-10.4-40.9-15.1-14.7-4.7-29-9.2-42.5-9.7.3,2.4,4.2,4,6.3,4.8,10.8,4.3,22.7,6.1,34.3,9.5,14.2,4.1,24.8,7.6,40.2,14.8-19.6-7.4-35.7-12.8-54.8-17.4-6.1-1.5-12.4-3.2-18.1-2,13.3,8.5,29.4,10.3,43.8,14.3,12.4,3.5,20.5,5.6,33.1,11.5-17.4-6.3-31.6-9.8-48.7-13.9-5.5-1.3-11.2-3.4-16.5-2,13.2,8.3,28.5,10.4,42.8,14.6,12.1,3.6,19.8,5.7,31.5,9.9-18.5-5.1-34.6-9.4-52.8-13.6-2.5-.6-5-2.1-7.5-1,10.7,7,19.5,7.9,31.2,11.4,9.3,2.7,18.3,5.1,27.3,7.5Z"/>
    </clipPath>
  </defs>
  <polygon class="st2" points="268.9 473.5 273.5 473.5 294.1 430.9 282.6 430.9 271.5 455.4 261.1 430.9 249.8 430.9 268.9 473.5"/>
  <rect class="st1" x="314" y="430.9" width="10.9" height="42.2"/>
  <polygon class="st2" points="350.1 473.1 378.9 473.1 378.9 465 360.7 465 360.7 430.9 350.1 430.9 350.1 473.1"/>
  <polygon class="st2" points="400.3 473.1 429 473.1 429 465 410.9 465 410.9 430.9 400.3 430.9 400.3 473.1"/>
  <path class="st2" d="M462.8,457.7l6.6-16.1,5.9,16.1h-12.5ZM445.1,473.1h11.3l3.4-8.2h18.2l3,8.2h11.2l-16.4-42.2h-12.2l-18.4,42.2Z"/>
  <path class="st2" d="M511.1,469.8c4.5,2.7,9.4,4.1,14.7,4.1,10.6,0,16.7-4.9,16.7-12.5s-1.9-8.3-5.6-10.6c-3.2-1.9-6.7-3.1-10.5-4.5-3.8-1.4-5.7-3-5.7-4.7s2.1-3.4,6.2-3.4,8.4,1.5,13.8,4.2v-8.7c-4.8-2.3-9.7-3.5-14.3-3.5-9.7,0-15.9,5.1-15.9,12.2s5.2,11.2,15.8,14.9c3.7,1.3,5.6,2.1,5.6,4.6s-2.2,3.8-6.3,3.8-9.1-2-14.4-5.3v9.4Z"/>
  <path class="st4" d="M528.2,406.7v-73h23v19.6c7.4-13.9,14-20.7,23-20.7s9.2,1.9,14.5,5.4l-6.2,21c-4.3-3.3-8-5.2-12.1-5.2-8.5,0-16.1,7.9-19.2,21.6v31.4h-23ZM488.4,406.7v-73h23v73h-23ZM489.9,309.3c0-5.3,4.2-9.7,9.7-9.7s9.7,4.2,9.7,9.7-4.2,9.7-9.7,9.7-9.7-4.4-9.7-9.7ZM420.7,385.7c3.9,3.2,8,4.7,12.6,4.7,11.2,0,18.1-7.7,18.1-20.2s-6.9-20.2-18.1-20.2-8.5,1.6-12.6,4.9v30.8ZM397.9,402.4v-103.5h22.9v40.1c5.8-4.7,12.5-6.9,20.7-6.9,21.1,0,34.4,14.7,34.4,38.2s-15.8,37.9-43.7,37.9-21.5-1.9-34.2-5.7ZM309,406.7v-73h22.9v9.2c7.4-7.6,15-10.6,24.9-10.6,15.8,0,24.8,9.8,24.8,28.2v46.2h-23v-43.1c0-10.1-3-15-10.3-15s-12.5,4.7-16.4,11.5v46.5h-22.9ZM269.4,397.5c-7.4,7.6-14.8,10.6-24.8,10.6-15.8,0-24.9-9.8-24.9-28.2v-46.2h23v43.1c0,10.1,3,15,10.3,15s12-3.8,16.4-11.5v-46.5h23v73h-23v-9.2ZM126.3,398.1v-24c13.6,8.4,24.6,13.6,36.8,13.6s16.1-3.3,16.1-9.6-4.9-8.5-14.4-11.8c-27.1-9.5-40.4-18.5-40.4-38s15.9-31.1,40.7-31.1,24.3,2.8,36.6,8.8v22.1c-13.7-6.9-25.2-10.7-35.2-10.7s-15.8,3.2-15.8,8.7,4.7,8.4,14.5,12c9.6,3.6,18.8,6.6,26.8,11.5,9.5,5.8,14.2,15,14.2,27,0,19.6-15.5,32-42.6,32s-25.9-3.5-37.4-10.4ZM647.2,400.7c-6.2,5.2-12.9,7.6-21.1,7.6-20.4,0-34.4-15.1-34.4-38s14-38.2,34.4-38.2,14.5,2.2,20.2,6.9v-40.1h23v107.8h-22.1v-6ZM646.3,385.8v-31.2c-3.9-3-8.2-4.6-12.6-4.6-11.2,0-18.1,7.7-18.1,20.2s7.3,20.2,17.7,20.2,9.3-1.9,13.1-4.6Z"/>
  <path class="st1" d="M338.2,214.8l.6.3c-9.7-1.1-22.3-5.7-33.8-8-3.5-.7-3.7-.5-6.6,1.6,17.9,9.3,28.5,6.7,45.5,13.1-4.6-.6-9.6-2-14.4-3-4.6-.9-9.6-2.4-13.4-.4,10.5,6.5,20.8,5.4,30.8,7.7-9.1.6-19.7-3.7-27.8-.2,9.1,5.3,20.4,3.1,30,4.5-3.9,1-8.6,0-12.9.2-4.1.1-8.7.5-11.2,3.1,9,4,17.8.7,26.5,1.2-2.7.7-6.7,1.2-10.5,1.8-3.5.6-8.3.3-9.9,3.7,7.8,2.7,15.7-1,23.2-1.7-4,2.5-12.7,2.1-16.1,6.6,7.2,2,14.6-2.2,21.7-3.3-3,2.7-10.6,2.5-12.9,7.4,2.6,1.3,4.3-.4,6.5-.3-8.3,3.7-14,16.3-21,24.8-6,7.3-12.9,9-18.6,14.5,2.8.4,4.6-2,7.2-2.3-3.8,3.7-8.6,4.4-11.4,11.4,4.1.3,8.2-6.3,12.3-8.5-2.7,4-9.3,8-12.8,13.4-1.2,1.9-3.6,5.6-2.4,7.9,7.2-3.6,12.3-13.8,18.8-19.6-2.4,5.4-11.5,12-10.2,19.2,3.2-1.2,5.4-5.4,7.7-8.8,2.4-3.6,4.6-7.4,6.9-10.4-1.3,5.1-8,10.6-6.3,15.5,5.5-2.9,7.6-16.3,13.2-20.4,4.5-3.3,17.5-.4,23.7.5,22.7,3.5,38.4,4.9,53.8-13.3,3.5-4.1,7.6-13,13.1-13.3,3.2-.1,6.9,1.8,11.6,3.1,4.5,1.2,8.8.8,11.1,1.7,3.6,1.4,7.3,4.9,10.8,7.9,3.8,3.3,6.6,6,9.5,8.7,6.2,5.7,12.6,11.2,17.5,15.8,1.3,1.3,2.4,3.1,4.3,3.4-3.1-7.9-9.3-14.4-15.6-21.1-6.2-6.6-13.1-13.4-20.8-19.4-3.1-13.6-3.1-26.9-18.8-33.5-10.5-4.4-18.8-.2-26.6,4.4-3.7,2.2-9.1,7.2-14.2,2-2.2-2.3-1.2-7.9-1.5-11.1-.8-7.6-4.2-13.9-8.9-20.9-11-16.4-34-40.7-48.4-56.9-3.6-4.1-7.3-8.2-11.4-12.2-3.8-3.7-7.7-9.1-13.8-9.8.1,3.5,2.8,6.5,4.9,9.3,6.4,8.5,22.5,23.6,30,32-9.9-6.6-24.8-24.4-37.3-30.1-2,3.5,2.1,6.3,4.1,8.5,6.4,7.1,22.5,21.6,31.3,27.8-9.7-3.7-25.2-21-36-22.6,5.9,10.4,28.6,24.9,39.9,33.8-9.3-3.9-27.7-20.3-37.7-21.5-.7,2.3,2.3,4.2,3.9,5.6,6.8,5.6,23.8,17.9,32.8,23.4-8-2-25.3-17.1-32.2-15.9,4.1,6.2,21.4,17.4,29.8,22.3-4.8-.8-10.8-5-15.4-5-1,.3-1.1,1.7-.8,2.4-15-6.4-26.2-10.4-40.9-15.1-14.7-4.7-29-9.2-42.5-9.7.3,2.4,4.2,4,6.3,4.8,10.8,4.3,22.7,6.1,34.3,9.5,14.2,4.1,24.8,7.6,40.2,14.8-19.6-7.4-35.7-12.8-54.8-17.4-6.1-1.5-12.4-3.2-18.1-2,13.3,8.5,29.4,10.3,43.8,14.3,12.4,3.5,20.5,5.6,33.1,11.5-17.4-6.3-31.6-9.8-48.7-13.9-5.5-1.3-11.2-3.4-16.5-2,13.2,8.3,28.5,10.4,42.8,14.6,12.1,3.6,19.8,5.7,31.5,9.9-18.5-5.1-34.6-9.4-52.8-13.6-2.5-.6-5-2.1-7.5-1,10.7,7,19.5,7.9,31.2,11.4,9.3,2.7,18.3,5.1,27.3,7.5Z"/>
  <g class="st6">
    <path class="st3" d="M330.2,189.2s-2.3,3.1,0,5.3c2.4,2.3-2.2-2.2-2.8.9s6.3,7.2,6.3,7.2c0,0-4,4.5,2.3,7.2,0,0-8,0,2,4.9.4.2-6.9.7,5.7,6.9.3.1-3,2.6,3,4.3.9.3-4,1.4,2.2,4.3,0,0-4.7,1.8,2.5,4.5,0,0-3.7,2.6,3.5,4.8,7.2,2.2,4.8,2.4,4.8,2.4l.8,2.4s-4.5,2.1-11.2,6.3c-6.7,4.2-53.3-17.1-53.3-17.1l-76-74.7s24.5-6.5,24.8-5.4c.3,1.1,85.3,35.8,85.3,35.8Z"/>
    <path class="st3" d="M429.4,260.1s-20.5-9-36.6,2.4c-16.1,11.4,2.5,22.4-18.1,25-20.6,2.6,10.2,19.2,10.2,19.2l53.7-34.7-9.2-12Z"/>
  </g>
  <path class="st5" d="M440,248.5c-.8,1.6-2.7,2.2-4.3,1.4-1.6-.8-2.2-2.7-1.4-4.3.8-1.6,2.7-2.2,4.3-1.4,1.6.8,2.2,2.7,1.4,4.3Z"/>
  <path class="st1" d="M532.3,337.3h14.8v3.6h-10.4v61.1h-4.4v-64.8ZM551.6,357.5c1.2-.2,2.4-1.1,3.3-2.8,7.4-13.9,13-18.5,19.4-18.5s5.8.9,9.7,3.1l-.4,1.4c-1.8-.6-3.3-.9-4.9-.9-4.9,0-9.4,2.7-14.6,10.4-4.5,1.7-8.3,5.2-11.3,9.8-.6-.6-1-1.5-1.2-2.6ZM492.6,337.3h14.8v3.6h-10.4v61.1h-4.4v-64.8ZM499.6,303.3c2.5,0,4.5,1.5,5.3,3.7-.3,0-.6,0-.9,0-3.2,0-5.6,2.5-5.6,5.6s.1,1.3.3,1.8c-2.7-.4-4.7-2.7-4.7-5.5s2.4-5.6,5.6-5.6ZM433.4,394.1c13.9,0,22.3-10,22.3-24.3s-2.1-13.3-5.9-17.6c6.6,4,10.3,11.6,10.3,21.2,0,14.3-8.4,24.3-22.3,24.3s-10.6-2-15.2-5.6c-.2-.2-.5-.6-.8-1.2,3.6,2.1,7.4,3.2,11.6,3.2ZM402,302.6h14.6v3.6h-10.2v93.8c-1.4-.4-2.9-.7-4.4-1.2v-96.3ZM421,343c.7-.2,1.5-.6,2.3-1.2,5-4.1,10.7-6,18.1-6s16.3,2.9,21.5,8.4c-4.7-3.1-10.5-4.7-17.2-4.7s-13,1.9-18.1,6c-3.1,2.5-6.3,1.3-6.7-2.4ZM313.1,337.3h14.6v3.6h-10.2v61.1h-4.4v-64.8ZM332.1,346.8c.9-.2,1.8-.8,2.7-1.6,6.6-6.8,13.1-9.3,22-9.3s12,2,15.6,6.2c-3.1-1.7-6.8-2.6-11.2-2.6-6.6,0-11.8,1.4-16.8,4.9-4.1.8-7.5,2.9-10.4,5.7-.9-.6-1.6-1.7-1.8-3.3ZM367,402.1h-4.4v-38.9c0-5.7-1-10.7-3.5-14.2,5.8,2.8,7.9,9.6,7.9,17.8v35.3ZM233.3,400.9c-6.1-3.5-9.5-10.5-9.5-21.5v-42.1h14.8v3.6h-10.4v42.1c0,8,1.8,13.9,5.1,17.8ZM246.5,394c1.8.8,3.9,1.3,6.5,1.3,8.3,0,15.1-5.1,20-13.6,0-.1.5-1.9.5-2.1v-42.4h14.8v3.6h-10.4v42.4c0,.2-.5,1.9-.5,2.1-1.7,2.9-3.6,5.4-5.7,7.5-1.4-.9-3.4-.6-5.2,1.3-1.7,1.8-3.4,3.2-5.1,4.4-1.3.3-2.6.4-4,.4-5.1,0-8.6-1.9-10.9-5ZM277.9,402.1h-4.4v-5c0-.3,0-.6,0-.9,2.4-.6,4.4,1.2,4.4,4.5v1.4ZM130.4,381c11.1,6.3,21.3,10.4,32.6,10.4s20.2-3.5,20.2-13.8-.9-5.7-2.6-7.8c.6.3,1.1.7,1.6,1,3.4,2.5,5.3,5.8,5.3,10.5,0,10.3-9.5,13.8-20.2,13.8s-21.5-4.1-32.6-10.4v12.9c-1.5-.7-2.9-1.4-4.4-2.3v-14.3ZM140.2,349.9c-8.2-5.8-11.6-12.6-11.6-22.1,0-14.8,13.1-26.9,36.6-26.9s21.5,2.3,32.5,7.3v1.8c-9.5-3.7-19-5.5-28.1-5.5-23.5,0-36.6,12.1-36.6,26.9s2.2,13.4,7.3,18.4ZM154,336.8c2.8,1.8,6.2,3.3,9.8,4.7,4.8,1.8,9.4,3.4,13.9,5.2,4.3,1.7,8.4,3.6,12.2,5.9,2,1.2,3.8,2.7,5.3,4.2-.3-.2-.6-.4-.9-.6-3.8-2.3-7.9-4.2-12.2-5.9-4.5-1.8-9.1-3.4-13.9-5.2-5.8-2.2-11-4.8-14.1-8.3ZM609.2,398.8c-8.3-5.6-13.4-15.7-13.4-29.1,0-20.8,12.6-34,30.3-34s12.7,1.9,17.5,6c3.3,2.8,6.8,1.2,6.8-3.2v-35.9h14.8v3.6h-10.4v35.9c0,4.4-3.4,6-6.8,3.2-4.9-4-10.5-6-17.5-6-17.7,0-30.3,13.2-30.3,34s3.4,19.5,9.1,25.4ZM655.5,402.1h-4.2v-1.9c0-.3,0-.5,0-.8,1.9-.5,3.6.5,4.2,2.7ZM647.2,395.7c-.6,0-1.2.3-1.8.7-2.4.8-5,1.3-7.9,1.3-6.5,0-11.9-2.5-15.7-6.7,3.2,2,7,3,11.3,3,6.2,0,11.2-2.3,15.5-5.3.6-.4,1.7-2.7,1.7-3.4v-31.2c0-.3-.3-1.2-.7-1.9,1.2.7,2.3,1.4,3.5,2.3.5.4,1.6,2.7,1.6,3.3v31.2c0,.7-1.2,3-1.7,3.4-1.8,1.3-3.7,2.4-5.8,3.3Z"/>
</svg>