<?xml version="1.0" encoding="UTF-8"?>
<svg id="Layer_1" xmlns="http://www.w3.org/2000/svg" version="1.1" viewBox="0 0 793.7 595.3">
  <!-- Generator: Adobe Illustrator 30.0.0, SVG Export Plug-In . SVG Version: 2.1.1 Build 123)  -->
  <defs>
    <style>
      .st0 {
        fill: #7b003a;
      }

      .st1 {
        fill: #c7814d;
      }
    </style>
  </defs>
  <path class="st1" d="M433.6,430.6h4.1c2.4,0,3-2.1,3-3s-.6-3-3.1-3h-3.9v5.9ZM433.6,434.6v6.9c0,.3-.3.6-.6.6h-3.1c-.3,0-.6-.3-.6-.6v-20.1c0-.3.3-.6.6-.6h7.4c5.8,0,7.6,4.1,7.6,6.8s-1.9,5.3-4.3,6.4l3.5,7.6c.1.2,0,.5-.3.5h-3.5c-.4,0-.7-.2-.8-.5l-3.3-7h-2.7ZM408.2,433.6h-7.3v4.6h9.5c.3,0,.6.3.6.6v2.8c0,.3-.3.6-.6.6h-13.2c-.3,0-.6-.3-.6-.6v-20.1c0-.3.3-.6.6-.6h13.2c.3,0,.6.3.6.6v2.7c0,.3-.3.6-.6.6h-9.5v4.9h7.3c.3,0,.6.3.6.6v2.8c0,.3-.3.6-.6.6ZM379.5,421.4l-9.3,20.7c-.1.2-.3.3-.5.3s-.4-.1-.5-.3l-5.7-12.4-5.7,12.4c-.1.2-.3.3-.5.3s-.4-.1-.5-.3l-9.3-20.7c-.1-.3,0-.5.3-.5h3.5c.4,0,.7.2.8.5l5.3,11.9,5.6-12.4c0-.2.3-.3.5-.3s.4.1.5.3l5.6,12.4,5.3-11.9c.1-.3.5-.5.8-.5h3.5c.3,0,.4.3.3.5ZM326.8,434.9h-3.6c-.3,0-.6-.3-.6-.6v-2.7c0-.3.3-.6.6-.6h7.3c.3,0,.6.3.6.6v7.1c0,.4-.1.7-.4,1-1.9,1.6-4.2,2.7-7.3,2.7-8.1,0-10.4-6.4-10.4-10.9s2.4-10.8,10.4-10.8,5.5,1.1,7.4,3.1c.2.3.2.6,0,.8l-2,2c-.2.2-.6.2-.8,0-1.2-1.1-3-2-4.6-2-5.4,0-6.2,5.1-6.2,6.9s.8,6.9,6.2,6.9,2.5-.4,3.5-.9v-2.6ZM469.9,438.5c3.3,0,4.1-3.2,4.1-4.5v-12.6c0-.3.3-.6.6-.6h3.2c.3,0,.6.3.6.6v12.6c0,3.6-2.2,8.4-8.4,8.4s-8.4-4.9-8.4-8.4v-12.6c0-.3.3-.6.6-.6h3.1c.3,0,.6.3.6.6v12.6c0,1.3.8,4.5,4.1,4.5ZM456.9,277.4l-6.4,24h-6.7l-3.3-12.3c-.3-1.1-.7-2.6-1.1-4.5l-.3-1.5h-.2l-.4,1.5-.3,1.5c-.2,1-.5,2-.8,3l-3.4,12.3h-6.7l-6.2-24h4.6l3.5,13.2c.2.8.5,2,.8,3.5l.4,1.8.4,1.8h.2l.4-1.8.4-1.7c.2-.9.5-2.1.9-3.5l3.7-13.2h5.3l3.6,13.2c.3,1.1.6,2.3.9,3.5l.4,1.7.4,1.8h.1l.4-1.8.4-1.8c.3-1.4.6-2.6.8-3.5l3.6-13.2h4.7ZM390,152.9c3.7,2.1,4.6,9.7,6.5,13,3.4-3.2,4-9.3,7-12.9,1.4.1,2.8.3,4.2.5-4.4,9.1-9,20.2-12.3,31.4-1.1,3.8-2.9,8.2-3,11.7-.2,7.4,4,14.5,4.5,22.3,4.1-24,10.1-46.1,20.9-63.5,1.3.3,2.6.7,3.8,1.1-10.6,19.7-19.4,45.3-21.7,74.1-2.4,29.5-3.8,27.2-6.1,1.5-2.7-30.5-11.4-56.3-22.5-75.6,1.3-.4,2.6-.8,3.9-1.1,6.4,9.1,10.3,20.8,14.5,32.1,1.4-2.2,1.9-4.8,2.6-7.2.8-2.4,2.3-5.4,2.3-7.6,0-3.1-2.8-7.1-4.2-10.2-1.5-3.3-3-6.2-4-9.2,1.2-.1,2.3-.2,3.5-.3ZM362.6,159.7c14.8,23.3,22.1,56,22.5,92.4-3.3-4-5.3-9-7.9-13.6-2.6-4.5-5.4-9-8.7-12.9-17.6,2.4-40.6,1.6-54.9-4.6.3-1.4.6-2.8.9-4.1,12.8,5.5,32.1,6.9,49.9,4.9-1.3-4.3-6.7-7.7-10.2-11-12.9,2-27.7.3-36.4-4.4.5-1.2,1-2.5,1.5-3.7,7.9,3.2,19.4,5.4,29.2,4.2-6.5-6-15.9-9.1-25-12.4.7-1.1,1.4-2.3,2.1-3.4,25.5,6.8,41.5,23.1,54.4,42.6.1-11.3-2.9-22.8-4.9-33.3-15.8-4.6-31-9.8-41.8-19.5.8-1,1.7-1.9,2.6-2.8,10.5,7.4,22.3,13.6,36.9,17,.5-4.3-2.3-8.5-3.4-12.5-9.9-2.5-18.8-6-24.8-12.3,1-.8,2.1-1.6,3.1-2.3,5.6,4,11.5,7.7,19.4,9.4-2.1-5.9-5.3-10.9-8.1-16.2,1.2-.6,2.4-1.2,3.7-1.7ZM434.1,161.5c-2.4,5.4-5.8,9.8-7.7,15.7,7.1-.4,14.3-5.8,19.2-8.8,1,.7,2,1.5,3,2.2-5.8,6.5-14.9,9.6-24.4,12.2-1.8,3.7-3,7.9-4.2,12.1,14.2-2.2,27.1-9,37.1-16.7.9,1,1.8,2,2.7,3-10.4,9.3-24.5,14.9-40.5,18.7-4.1,9.4-4.7,22.3-6.4,34,2.6-1.2,3.8-4.2,5.3-6.4,11.1-16.4,27.2-30.1,49.4-36.1.7,1.1,1.4,2.2,2.1,3.4-9.3,3-17.9,6.6-25,11.9,9,2,21.3-.7,29.1-3.8.5,1.2,1,2.4,1.5,3.6-2,1.9-7.2,3.3-10.5,4-5.4,1.1-13.7,1.8-20.8,1.1-1.6-.2-3.2-.9-4.2-.8-4.6.7-7.8,7.6-11,10.2,16.2,3.5,37.2,1.1,49.7-4.1.3,1.2.6,2.4.8,3.7-13.4,6.8-36.2,7.8-53.9,4.6-6.9,7.8-11.7,17.5-16.6,27.2-1.2-36.3,7.6-69,21.8-92.7,1.3.6,2.5,1.1,3.7,1.8ZM385.9,279.7c1.9,16.4-3.1,29.3-10.8,38.9-1.7-.4-3.3-.9-4.9-1.4,16-18,13.6-47.8,1.1-59.8-23.4-4.5-39.3,6.5-49.4,19.1-.6-1.2-1.2-2.4-1.8-3.6,1.4-4,7.2-8.3,9.8-10.3,5-3.8,10.3-5.7,14-7.9-9.4-4.7-22.6,0-29.1,3.5-.3-1.2-.6-2.4-.8-3.5,2.5-3.1,9.5-5,12.9-5.6,4.1-.7,9.2-.6,13.2,0,4.6.7,8.4,3.4,11.7,3.8,4.4.5,11.3-1.9,14.8-.4-8.7-13.3-37.5-17.7-54.3-8.8-.1-1.4-.2-2.8-.2-4.2,1.5-1.5,4.1-2.3,6.1-2.9,32.1-10.2,64.3,13.2,67.7,43.1ZM456.3,234.3c9.8-.8,18,1.7,24.5,5.1,0,1.3-.1,2.6-.2,3.9-16.8-8.6-44.8-3.9-53.8,8.7,3.7-.8,9.8,1.2,14.4.8,4.5-.5,9.3-3.7,15.1-4.2,7.8-.6,13.9,1.3,19.3,3.8,1.1.5,2.5,1,3.5,1.7-.3,1.3-.6,2.5-.9,3.8-7.3-3.9-18.7-7.3-28.7-3.7,1.4,2,4.5,2.7,7.2,4.2,4.7,2.6,8.5,5.3,12.5,9.5,1.4,1.4,3,2.8,3.9,4.3-.6,1.4-1.3,2.8-2,4.1-7.9-10-19.6-18.9-36-20.1-3.7-.3-9.6-.7-13.2,1.1-3.1,1.5-6.2,9-7.6,12.9-5.5,15.2-2.7,32.3,8.7,46.8-1.5.5-3.1,1-4.6,1.4-7.2-8.3-11.6-19.3-11.3-33.1.7-27.7,22-48.9,49.2-51.1ZM337.5,301.4v-24h20.8c2.8,0,4.6.4,5.6,1.3,1,.9,1.5,2.5,1.5,5,0,3-1.2,4.7-3.5,5.2,2.7.5,4.1,2.4,4.1,5.8s-.5,4.2-1.6,5.2-2.9,1.5-5.5,1.5h-21.4ZM342,287.5h14.6c1.8,0,3-.2,3.4-.6.5-.4.8-1.3.8-2.8,0-1.9-1.1-2.9-3.3-2.9h-15.5v6.2ZM342,297.6h15.6c1.5,0,2.5-.3,3-.7.5-.4.7-1.3.7-2.7s-.3-2.4-.8-2.7c-.5-.4-1.8-.6-3.8-.6h-14.8v6.7Z"/>
  <path class="st0" d="M558.8,374.2c0,14,10.3,28.1,25.2,28.1s21.5-7.8,21.5-22.2-10.3-28.1-25.2-28.1-21.5,7.8-21.5,22.2ZM553,379.5c0-12.6,7.8-30,29.5-30s29.5,13.1,29.5,25.1-7.8,30-29.5,30-29.5-13.1-29.5-25.1ZM495.7,374.2c0,14,10.3,28.1,25.2,28.1s21.5-7.8,21.5-22.2-10.3-28.1-25.2-28.1-21.5,7.8-21.5,22.2ZM489.9,379.5c0-12.6,7.8-30,29.5-30s29.5,13.1,29.5,25.1-7.8,30-29.5,30-29.5-13.1-29.5-25.1ZM442.8,404.6l-21.8-56.8c-1.9-5-3.3-7.3-4.5-8.2-.4-.3-1.5-.3-2.3-.3-1.1,0-2,.1-3.1.3v-1.6c1.1-.1,1.4-.1,3.3-.1s6.4.5,7.4.5c1.6,0,4.9-.5,7.7-.5s1.9,0,3.3.3v1.5c-.6-.1-1.5-.3-2.6-.3l-1.8.4c-.8.5-1.5.9-1.5,2.5s.4,2.1.8,3.1l17.9,46.7,10.6-27.1-7.6-19.5c-1.3-3.3-2.4-5.3-3.3-5.8-.6-.4-2-.4-3.1-.4s-1.6,0-2.4.1v-1.5c.6,0,1.4-.1,2-.1,1.1,0,6.7.5,7.3.5,2.1,0,4.2-.5,6.7-.5s2,0,2.6.1v1.5c-.5-.1-1-.1-1.4-.1-.6,0-1.1,0-1.6.1-.6.3-1,.9-1,1.9s.1,1.3.4,2l5,12.5,4.3-11c.5-1.4.8-2.5.8-3.1s0-1.3-.1-1.6c-.3-.4-.5-.5-.9-.6-.5-.1-.9-.1-1.3-.1s-.5,0-.9.1v-1.5c.6-.1,1.4-.1,2-.1,1,0,4,.5,5.3.5s3.5-.5,4.4-.5,1.9.1,2.8.3v1.4c-1-.1-1.4-.1-2.4-.1-2.5,0-5.3.5-8.1,7.7l-4.7,12.2,12.7,32.9,17.4-44.2c.3-.8,1-4,1-5,0-1.8-.9-2.9-1.6-3.3-1-.1-1.8-.3-2.8-.3s-1.4,0-2.1.1v-1.5c.8,0,1.6-.1,2.4-.1s5.5.5,6.4.6c1.1,0,5.7-.6,6.5-.6s1,.1,1.9.3c0,.3-.1.8-.1,1.4-.5-.1-.9-.1-1.4-.1-4.2,0-6.8,6.2-7.9,9.2l-21.7,56h-.4l-14-36-14.1,36h-.4ZM415.3,361.1h-.8c-.8-8.7-14.7-9.1-17.6-9.1s-3.2.4-4.4,1c-.3.6-.6,1.3-.6,1.9v18.6h7.7c3.4,0,7.2,0,7.2-3.7s-.4-2-.8-3c.3-.1.6-.1.9-.3.4.5.8.9,1,2,.4,1.5.1,3.9.4,5.4.1,1.1,2,5.9,2,6.8v1.8h-.9c-1.5-6-4.5-6.4-17.5-6.4v22.3c0,2.8,1.9,2.8,5.5,2.8,6,0,19.4,0,21.3-9.2h.9c-.1,3.2-.5,3.7-3.1,7.4-2,2.8-2.3,3.1-3,4.9-1.4-.3-2.6-.4-3.9-.5-1.6-.1-6.6-.1-8.8-.1-4.2,0-8.4-.3-12.6-.3s-4.5.3-6.8.3-3,0-4-.1v-1.4c.9.1,1.5.3,2.4.3,5.2,0,5.8-2.9,5.8-6.9v-38.8c0-3.4-.5-5.5-4-5.5l-3.5.3v-1.5h1.9c2.6-.3,14,0,16.4,0,10.7,0,11.3-.1,15.7-.8.4,1.4,3.1,8.4,3.1,8.6.3,1,.3,2.1.3,3.3ZM364.9,393.3v-8.3c0-3.9-2.8-4-4.2-4s-1.8.1-2.6.4v-1.4c.8-.1,1.1-.3,2.6-.3s5.8.5,6.8.5,5.8-.5,6.8-.5,2,.1,3,.4v1.3c-1-.3-1.6-.4-2.8-.4-3.3,0-3.3,5.2-3.3,8.2v4.2c0,1.1.3,2.3.4,3-3.7,3.1-9.6,8.2-22.4,8.2-20,0-28.7-14.9-28.7-26.8s1.8-10.1,2.6-12c3.9-8.4,13.7-16.1,25.6-16.1s13.2,3.4,16.8,3.4,2-.6,2.4-1h.4c0,3.1,1.6,7.6,1.6,10.8s-.3,3.2-.6,4.3h-1.1c.3-.9.5-1.6.5-2.6,0-3.9-7.7-12.5-18.5-12.5s-22.4,6-22.4,24.7,6.7,25.9,22.4,25.9,14.7-3.7,14.7-9.3ZM273,355.7v41.1c0,3,0,4.9,11.6,4.9s24.1,0,24.1-22.2-4.4-26.8-24.2-26.8-11.5.3-11.5,3ZM259,403.6v-1.3c.6.1,1.8.3,2.5.3s2.4-.1,3.1-.6c1-.9,1.9-2.3,1.9-6.5v-38.9c0-2.5-1.4-4.4-2.4-4.7-.6-.1-1.4-.1-2.3-.1-1.3,0-1.8.3-2.6.3v-1.4c1.3-.3,1.8-.3,2.8-.3,3.1,0,5.3.6,9.1.6s6.7-.6,15.2-.6c24.7,0,29.3,19.8,29.3,27s-2.9,14.9-9.8,20.8c-5.7,4.8-11.7,5.8-18,5.8s-14.6-.4-17-.4-7.3.4-8.7.4-2.5-.1-3.1-.3ZM231.8,403.6v-1.3c.9.1,1.9.1,2.8.1s1.6,0,2.5-.1c1.6-1.6,2.3-2.5,2.3-8.1v-35c0-4.4-.5-5.5-2.6-7.4-1-.1-1.9-.1-2.9-.1s-1.6,0-2.6.1v-1.1c1.3-.3,2.1-.4,4-.4s6.3.5,7.3.5,6.6-.5,7.6-.5,2.4.3,3.3.4v1.1c-1.1-.1-1.4-.1-2.8-.1-3.1,0-4.8,2.1-4.8,5.3v39.7c0,2.8,1.4,4.7,2.4,5.7.9.1,1.6.3,2.5.3s1.8-.1,2.6-.3v1.3c-.8.3-.9.3-2.1.3s-7.8-.5-9.1-.5-6.8.5-7.9.5-1.8-.1-2.4-.3ZM191.3,355.3v17.9c2,.6,3.5,1.1,6.5,1.1,7.3,0,13.1-3.4,13.1-10.8,0-10.9-11.2-10.9-16.5-10.9s-3.2.5-3.2,2.6ZM185.3,396.4v-38.9c0-2.9-.9-4.5-2-5.3-1.1-.6-3.3-.6-3.9-.6s-1,0-1.6.3v-1.1c.5-.1,1-.3,1.6-.3,1.8,0,5.9.8,8.2.6l6.4-.4c2.5-.1,6.4-.4,7.7-.4,3.3,0,16,.1,16,12.8s-6,12.2-15.7,13v.3c1,.5,1.5.8,2.4,2.1l11.6,17.6c3.5,5.3,7.2,6.8,10.5,6.8s2.1-.4,2.6-.8c.1.3.1.8.3,1.1-1,.4-3,.9-7.2.9s-7.8,0-12.7-7.7l-10.6-16.8c-.5-.8-2.5-3.2-3.4-3.5-.6-.3-3.5-.6-4-.9v17.9c0,5.2.1,9.6,4.5,9.6s1.6-.1,2.5-.1v1.3c-1.6.3-1.9.3-2.5.3s-1.3-.1-2.3-.3c-.9-.1-2-.3-4.7-.4-1.3,0-3.1.1-4.5.3-1.3.1-2.1.3-2.9.3-1.5,0-2.5,0-3.5-.1v-1.3c.9.1,1.9.1,2.5.1,1,0,1.9-.1,3-.5,1.8-2,1.8-2.8,1.8-5.9ZM139.3,367.6v33.3c2.5.8,4.8,1.4,9.3,1.4,10,0,16.4-6.2,16.4-17.3s-3.1-12.8-9.6-15.5c-4.7-1.9-10.8-1.9-16.1-1.9ZM132.8,390.7v-43.3c0-5.1-1.5-8.5-5.8-8.4-.6,0-1.4.1-2,.1v-1.4h3.3c3.3,0,6.3.6,8.2.6,3.4,0,8.2-.6,14.2-.6,15.6,0,17.4,9.5,17.4,13.3,0,9.5-10.1,14.3-14.2,14.9v.3c8.9,1.1,19,7.7,19,18.8s-4,18.8-21.8,18.8-13-.6-14.7-.6c-2.6,0-5.2.6-9.6.6s-1.5,0-2.4-.1v-1.5c.9.1,1.5.3,2.3.3s1.6-.1,2.9-.4c1.8-1.8,2.5-3.4,3-5,.1-.4.3-3.7.3-6.3ZM139.3,343.5v21.6h6c8.1,0,15.2-2.3,15.2-12.2s-3.5-12.7-14.6-12.7-6.7,0-6.7,3.2ZM612.6,403.6v-1.3c.6.1,1.8.3,2.5.3s2.4-.1,3.1-.6c1-.9,1.9-2.3,1.9-6.5v-38.9c0-2.5-1.4-4.4-2.4-4.7-.6-.1-1.4-.1-2.3-.1-1.3,0-1.8.3-2.6.3v-1.4c1.3-.3,1.8-.3,2.8-.3,3.1,0,5.3.6,9.1.6s6.7-.6,15.2-.6c24.7,0,29.3,19.8,29.3,27s-2.9,14.9-9.8,20.8c-5.7,4.8-11.7,5.8-18,5.8s-14.6-.4-17-.4-7.3.4-8.7.4-2.5-.1-3.1-.3ZM626.6,355.7v41.1c0,3,0,4.9,11.6,4.9s24.1,0,24.1-22.2-4.4-26.8-24.2-26.8-11.5.3-11.5,3ZM301.5,432.5h-72.8c-1.7,0-1.7-2.5,0-2.5h72.8c1.7,0,1.7,2.5,0,2.5ZM491.4,429.9h72.8c1.7,0,1.7,2.5,0,2.5h-72.8c-1.7,0-1.7-2.5,0-2.5Z"/>
</svg>