<?xml version="1.0" encoding="UTF-8"?>
<svg id="Layer_1" xmlns="http://www.w3.org/2000/svg" version="1.1" viewBox="0 0 793.7 595.3">
  <!-- Generator: Adobe Illustrator 30.0.0, SVG Export Plug-In . SVG Version: 2.1.1 Build 123)  -->
  <defs>
    <style>
      .st0 {
        fill: #905537;
      }

      .st1 {
        fill: #1e1e1c;
      }
    </style>
  </defs>
  <polygon class="st0" points="413.5 200.6 413.2 208.3 235.6 190.3 413.5 200.6"/>
  <polygon class="st1" points="425.5 353.8 425.7 346.4 562.8 353.8 425.5 353.8"/>
  <polygon class="st0" points="534.4 191.4 558.7 189.2 558.7 265.2 578.8 187.6 602.5 185.7 578.8 262.8 602.3 342.9 576.9 341.8 559.2 266.6 558.7 341 534.4 339.9 534.4 191.4"/>
  <polygon class="st0" points="497.7 194.4 521.4 192.5 521.4 339.6 497.7 338.5 497.7 194.4"/>
  <path class="st0" d="M453.2,217.5l-4.4.3v62.7l5.2-.3c7.9-.5,10.1-6.8,10.1-13.3v-38.4c-.3-8.4-3-11.7-10.9-10.9ZM426,200.1l27.8-2.2c23.7-1.9,33.5,12.5,33.5,32.7v36.2c0,15-7.1,31.6-29.7,32.7l-8.7.5v36.2l-22.9-1.1v-135.1Z"/>
  <polygon class="st0" points="613.4 184.8 668.2 180.5 668.2 201.2 638.8 203.4 638.8 253.2 666.6 251.6 666.6 272 638.8 273.7 638.8 327.3 669.3 326.2 669.3 346.1 613.4 343.4 613.4 184.8"/>
  <path class="st1" d="M300.4,225.7l-5.7-.5v38.7c9.5.5,16.3.5,16.3-7.6v-21c.3-6.5-5.7-9.3-10.6-9.5ZM270.7,202.8l33,3c25.1,2.7,31.6,14.4,31.6,35.1v7.1c0,22.6-11.2,25.9-17.7,27.5,7.6,2.7,17.7,6.5,17.7,27.2v51.2h-24v-55.9c0-7.9-5.7-12.5-12.3-12.5h-4.1v68.1h-24v-150.9h-.3Z"/>
  <path class="st1" d="M194.4,196l23.7,2.2v125.9c0,5.7,1.6,10.1,7.9,10.1s8.7-6.3,8.7-12.8v-121.5l24,2.2v115.8c0,14.7-6.3,37.3-31.6,37.3s-32.7-18.3-32.7-33.8c0,0,0-125.3,0-125.3Z"/>
  <polygon class="st1" points="124.4 189.8 184.9 195.2 184.9 209.9 165.8 209.9 165.8 353.8 141.8 353.8 141.8 209.9 124.4 209.9 124.4 189.8"/>
  <path class="st1" d="M347.5,209.4l22.3,1.4c8.4,24.2,7.9,21.5,21.5,67.3v-64.8l22.3,2.2v138.4h-16.1c-10.9-31.3-17.2-50.7-27.5-87.2l-.3,87.2h-22.3v-144.4Z"/>
  <polygon class="st0" points="658.4 414.2 645.6 397.9 645.6 414.2 637.7 414.2 637.7 379.6 645.6 379.6 645.6 394.6 657.6 379.6 667.1 379.6 652.9 396 667.9 414.2 658.4 414.2"/>
  <rect class="st0" x="142.4" y="379.6" width="7.9" height="34.6"/>
  <polygon class="st0" points="194.4 414.8 173.7 396.3 173.7 414.2 165.5 414.2 165.5 379.1 166.6 379.1 187.3 397.6 187.3 379.6 195.2 379.6 195.2 414.8 194.4 414.8"/>
  <path class="st0" d="M232.8,396.5c0-3.3-1.1-5.7-3-7.4-1.9-1.9-4.6-2.7-8.4-2.7h-1.6l-1.6.3v20.4h3.8c1.9,0,3.5-.3,4.9-.8,1.4-.5,2.5-1.1,3.3-2.2.8-.8,1.6-2.2,1.9-3.3.5-1.1.8-2.7.8-4.4ZM241.3,396.5c0,2.5-.3,4.9-1.1,7.1-.8,2.2-2.2,4.1-3.8,5.7-1.6,1.6-3.8,2.7-6.5,3.8-2.7.8-5.7,1.4-9.3,1.4h-5.2l-2.5-.3-3-.3v-34.1c1.9-.3,3.8-.3,5.4-.5,1.6,0,3.3-.3,4.9-.3,3.5,0,6.8.5,9.3,1.4,2.7.8,4.9,2.2,6.5,3.5,1.6,1.6,3,3.3,3.8,5.4,1.1,2.5,1.4,4.6,1.4,7.1Z"/>
  <path class="st0" d="M283.5,400.1c0,4.9-1.4,8.4-3.8,10.9-2.7,2.5-6.3,3.5-10.9,3.5s-8.2-1.1-10.6-3.5-3.8-6-3.8-10.9v-20.4h7.9v19.9c0,2.5.5,4.4,1.6,5.7,1.1,1.4,2.7,2.2,5.2,2.2s3.8-.8,4.9-2.2c1.1-1.4,1.6-3.3,1.6-5.7v-19.9h7.9v20.4Z"/>
  <path class="st0" d="M319.2,403.9c0,1.4-.3,2.7-.8,4.1-.5,1.4-1.4,2.5-2.2,3.5-1.1,1.1-2.2,1.9-3.8,2.5-1.6.5-3.3.8-5.4.8s-1.9,0-3-.3-2.2-.5-3-.8c-1.1-.3-1.9-.5-3-1.1-.8-.5-1.9-.8-2.5-1.4l2.2-7.4c1.4,1.1,3,1.9,4.6,2.5,1.6.5,3.3.8,4.9.8s2.5-.3,3-.8c.5-.5.8-1.4.8-2.2s0-.8-.3-1.1c0-.3-.5-.8-.8-1.1-.5-.3-1.1-.8-1.9-1.1-.8-.5-1.9-.8-3.3-1.4-1.6-.5-2.7-1.4-3.8-1.9-1.1-.8-1.9-1.6-2.5-2.5s-1.1-1.6-1.4-2.7-.5-1.9-.5-3,.3-2.5.8-3.5,1.4-2.2,2.2-3.3c1.1-.8,2.2-1.6,3.8-2.2,1.6-.5,3.3-.8,5.4-.8s1.9,0,2.7.3,1.9.3,2.7.5,1.6.5,2.5.8c.8.3,1.4.5,1.9,1.1l-1.9,7.1c-.5-.3-1.1-.5-1.6-1.1-.5-.3-1.4-.5-1.9-.8-.5-.3-1.4-.5-1.9-.5-.5-.3-1.4-.3-1.9-.3-1.4,0-2.5.3-3.3.8-.5.5-.8,1.1-.8,1.9s0,1.1.3,1.4.5.8,1.1,1.1c.5.3,1.1.8,1.9,1.1l2.7,1.1c1.6.8,3,1.4,4.1,2.2s1.9,1.6,2.7,2.5c.5.8,1.1,1.6,1.4,2.7-.5.5-.3,1.4-.3,2.5Z"/>
  <polygon class="st0" points="347.8 387 347.8 414.2 339.9 414.2 339.9 387 329.6 387 329.6 379.6 358.2 379.6 358.2 387 347.8 387"/>
  <path class="st0" d="M387.3,391.1c0-1.4-.5-2.5-1.6-3.3-1.1-.8-2.5-1.1-4.1-1.1h-1.6c-.5,0-.8,0-1.6.3v9.5l1.4.3h1.1c1.9,0,3.5-.5,4.6-1.4,1.4-1.1,1.9-2.5,1.9-4.4ZM388.7,414.2l-6-11.2h-4.1v11.2h-7.9v-34.3c1.4-.3,3-.3,4.6-.3s3.5-.3,5.4-.3c2.7,0,4.9.3,6.8.8,1.9.5,3.5,1.4,4.6,2.5,1.1,1.1,2.2,2.2,2.7,3.5s.8,2.7.8,4.4-.5,4.1-1.6,5.7-2.5,3.3-4.4,4.4l8.2,13.3h-9.3v.3Z"/>
  <rect class="st0" x="409.7" y="379.6" width="7.9" height="34.6"/>
  <path class="st0" d="M445.3,393.5l-3.5,8.2h6.8l-3.3-8.2ZM453.8,414.2l-2.7-6.3h-12l-2.7,6.3h-8.2l16.3-34.9h1.1l16.3,34.9h-8.2Z"/>
  <polygon class="st0" points="472.9 414.2 472.9 379.6 480.8 379.6 480.8 406.9 494.7 406.9 494.7 414.2 472.9 414.2"/>
  <path class="st0" d="M540.2,391.9c0-1.4-.5-2.7-1.4-3.5s-2.5-1.4-4.4-1.4h-1.4l-1.6.3v9.8h2.5c2.2,0,3.8-.5,4.6-1.4,1.4-.8,1.6-2.2,1.6-3.8ZM548.6,391.6c0,1.9-.3,3.5-.8,4.9s-1.4,2.7-2.7,3.8c-1.1,1.1-2.7,1.9-4.4,2.5-1.6.5-3.8.8-6,.8h-3v10.4h-7.9v-34.1c3.5-.3,6.8-.5,9.5-.5s4.6.3,6.5.8c1.9.5,3.5,1.4,4.9,2.7,1.4,1.1,2.2,2.5,3,3.8.3,1.6.8,3.3.8,4.9ZM571.2,393.5l-3.5,8.2h6.8l-3.3-8.2ZM579.7,414.2l-2.7-6.3h-12l-2.7,6.3h-8.2l16.3-34.9h1.1l16.3,34.9h-8.2ZM615.6,391.1c0-1.4-.5-2.5-1.6-3.3-1.1-.8-2.5-1.1-4.1-1.1h-1.6c-.5,0-.8,0-1.6.3v9.5l1.4.3h1.1c1.9,0,3.5-.5,4.6-1.4,1.4-1.1,1.9-2.5,1.9-4.4ZM617,414.2l-6-11.2h-4.4v11.2h-7.9v-34.3c1.4-.3,3-.3,4.6-.3s3.5-.3,5.4-.3c2.7,0,4.9.3,6.8.8,1.9.5,3.5,1.4,4.6,2.5s2.2,2.2,2.7,3.5.8,2.7.8,4.4-.5,4.1-1.6,5.7c-1.1,1.6-2.5,3.3-4.4,4.4l8.2,13.3h-9v.3Z"/>
</svg>