<?xml version="1.0" encoding="UTF-8"?>
<svg id="Layer_1" xmlns="http://www.w3.org/2000/svg" version="1.1" viewBox="0 0 160 42">
  <!-- Generator: Adobe Illustrator 30.0.0, SVG Export Plug-In . SVG Version: 2.1.1 Build 123)  -->
  <defs>
    <style>
      .st0 {
        fill: #fff;
      }
    </style>
  </defs>
  <path class="st0" d="M133.5,37.7c0,.4,0,.7-.3.9-.2.3-.4.5-.8.6-.3.1-.7.2-1.1.2s-.3,0-.4,0c-.2,0-.4,0-.7-.1-.3,0-.6-.2-.9-.3v-1.4c.3.2.6.3.8.4.3.1.6.2.9.2s.5,0,.6-.1c0,0,.1-.2.1-.3,0-.2,0-.3-.2-.4-.1-.1-.4-.2-.6-.3-.3-.1-.6-.3-.8-.4-.2-.2-.4-.3-.6-.6-.1-.2-.2-.5-.2-.8s0-.6.2-.8c.2-.2.4-.4.7-.6.3-.1.7-.2,1.1-.2s.6,0,.9,0c.3,0,.5.1.7.2.2,0,.3.1.4.2v1.3c-.2-.2-.5-.3-.8-.4-.3-.1-.6-.2-.9-.2s-.4,0-.5.1c0,0-.1.2-.1.3s0,.2.1.3c0,0,.3.2.5.3.4.2.8.4,1,.6.3.2.5.4.6.6.2.2.2.5.2.8ZM125.1,39.3h-4.3v-5.7h4.2v1.1h-2.5v1h2.4v1.1h-2.4v1.2h2.6v1.1ZM116.2,39.3h-1.7v-5.7h1.7v5.7ZM110.2,35h-2.1v4.3h-1.7v-4.3h-2.1v-1.4h5.9v1.4ZM98.8,35.4c0-.3,0-.4-.3-.5-.2-.1-.5-.2-.8-.2h-.4v1.4h.4c.4,0,.7,0,.9-.1.2,0,.2-.3.2-.5ZM101.2,39.3h-1.8l-.4-1c-.2-.4-.3-.6-.4-.8-.1-.2-.3-.3-.4-.3-.1,0-.3,0-.5,0h-.2v2.2h-1.7v-5.7h2.9c.5,0,.9,0,1.2.3.3.2.5.4.6.7.1.3.2.5.2.8,0,.3,0,.5-.2.7-.1.2-.2.3-.3.4-.1,0-.3.2-.4.3.2.1.3.2.5.4.1.1.3.4.5.9l.6,1.2ZM91.3,39.3h-4.3v-5.7h4.2v1.1h-2.5v1h2.4v1.1h-2.4v1.2h2.6v1.1ZM81.1,35.4c0-.3,0-.5-.2-.6-.2-.1-.4-.2-.9-.2h-.4v1.4h.4c.3,0,.5,0,.7,0,.2,0,.3-.1.3-.2,0,0,.1-.2.1-.4ZM82.8,35.4c0,.2,0,.4-.1.6,0,.2-.2.4-.3.6-.2.2-.4.3-.7.4-.3.1-.6.2-1,.2h-1.1v2.1h-1.7v-5.7h2.8c.4,0,.7,0,1,.2.3.1.5.3.7.4.2.2.3.4.3.6,0,.2.1.4.1.6ZM71.9,36.5c0-.2,0-.4,0-.6,0-.2-.2-.3-.3-.5-.1-.1-.3-.2-.5-.3-.2,0-.4-.1-.6-.1-.5,0-.8.1-1.1.4-.3.3-.4.6-.4,1.1s.1.8.4,1.1c.3.3.6.4,1.1.4s.6,0,.8-.2c.2-.1.4-.3.5-.5.1-.2.2-.5.2-.8ZM73.6,36.5c0,.5-.1,1-.4,1.5-.2.4-.6.8-1.1,1.1-.5.3-1.1.4-1.8.4s-1.3-.1-1.8-.4c-.5-.3-.8-.6-1.1-1.1-.2-.4-.4-.9-.4-1.4s.1-1,.4-1.4c.2-.4.6-.8,1.1-1.1.5-.3,1.1-.4,1.8-.4.5,0,1,0,1.4.2.4.2.8.4,1,.6.3.3.5.6.6.9.1.4.2.7.2,1.1ZM61.2,35.4c0-.3,0-.4-.3-.5-.2-.1-.5-.2-.8-.2h-.4v1.4h.4c.4,0,.7,0,.9-.1.2,0,.2-.3.2-.5ZM63.5,39.3h-1.8l-.4-1c-.2-.4-.3-.6-.4-.8-.1-.2-.3-.3-.4-.3-.1,0-.3,0-.5,0h-.2v2.2h-1.7v-5.7h2.9c.5,0,.9,0,1.2.3.3.2.5.4.6.7.1.3.2.5.2.8,0,.3,0,.5-.2.7-.1.2-.2.3-.3.4-.1,0-.3.2-.4.3.2.1.3.2.5.4.1.1.3.4.5.9l.6,1.2ZM52.1,35.4c0-.3,0-.5-.2-.6-.2-.1-.4-.2-.9-.2h-.4v1.4h.4c.3,0,.5,0,.7,0,.2,0,.3-.1.3-.2,0,0,.1-.2.1-.4ZM53.9,35.4c0,.2,0,.4-.1.6,0,.2-.2.4-.3.6-.2.2-.4.3-.7.4-.3.1-.6.2-1,.2h-1.1v2.1h-1.7v-5.7h2.8c.4,0,.7,0,1,.2.3.1.5.3.7.4.2.2.3.4.3.6,0,.2.1.4.1.6ZM100.2,13.4c0,.5,0,1,0,1.5-.9,5.3-5.4,5.3-7.6,5.2,0-5-.3-6.7,7.7-6.7ZM92.5.9c1.7,1,6,5.9,7.5,10.9-7.9.2-7.5-1.5-7.5-10.9ZM85.1,11.9c.9-3.5,3.7-7.2,5.2-9-.3,8.9-.3,8.9-5.2,9ZM89.6,19.6c-1.7-.5-4.9-2-4.8-5.6,0-.3,0-.6,0-.9,4.7.2,4.7,2.5,4.7,6.6ZM145.3,21.5v3.3c0,2.4,0,3.6.5,3.9.4.3,1.2.4,2.9.4s2,0,2.5-.5c.3-.2.5-.8.5-1.1,0-.2,0-.3.2-.3s.2.2.2.4-.1,1.6-.3,2.1c-.1.4-.2.5-1.4.5s-2.8,0-3.9,0c-1.1,0-2,0-2.9,0s-.7,0-1.2,0c-.5,0-1.1,0-1.5,0s-.4,0-.4-.2,0-.2.3-.2.6,0,.8,0c.4,0,.6-.4.6-1,0-.8,0-2.3,0-4v-3.3c0-2.8,0-3.3,0-3.9,0-.6-.2-.8-.9-1-.2,0-.4,0-.7,0s-.4,0-.4-.2.1-.2.5-.2c1,0,2.4,0,3,0s2.3,0,3.1,0,.5,0,.5.2-.1.2-.4.2-.6,0-.8,0c-.6,0-.8.3-.8,1,0,.6,0,1.1,0,3.9ZM19.3,30.5c-3.4,0-6.2-.7-8.4-2.4-2.4-1.9-3-4.3-3-6.4s.5-4.1,2.9-6c1.8-1.4,4.1-2.3,7.8-2.3s2.4,0,3.6.2c.9.1,1.7.3,2.5.4.3,0,.4.1.4.3s0,.4-.1,1.2c0,.7,0,1.9,0,2.4,0,.3,0,.5-.3.5s-.2-.2-.2-.5c0-.7-.3-1.4-1-2-.8-.8-2.7-1.4-5-1.4s-3.5.5-4.6,1.4c-1.8,1.5-2.3,3.5-2.3,5.7,0,5.2,4.4,7.8,7.7,7.8s3.5-.2,4.5-1.2c.4-.4.7-1,.8-1.4,0-.3.1-.4.3-.4s.2.2.2.3c0,.3-.3,2.2-.5,2.9-.1.4-.2.5-.6.6-1,.3-2.9.5-4.4.5ZM38.2,25.5h-5.1c-.1,0-.1,0-.2.1l-1.2,2.5c-.2.5-.3.9-.3,1.1,0,.3.2.5.9.5h.3c.3,0,.3,0,.3.2s-.1.2-.3.2c-.7,0-1.7,0-2.4,0s-1.4,0-2.5,0-.4,0-.4-.2,0-.2.2-.2.4,0,.6,0c1-.1,1.4-.7,1.8-1.6l5.7-11.7c.2-.5.4-.7.6-.7.3,0,.4.2.6.6.5,1,4.1,8.6,5.5,11.4.8,1.7,1.4,1.9,1.8,2,.3,0,.6,0,.8,0s.3,0,.3.2-.1.2-.9.2-2.3,0-4.2,0c-.4,0-.6,0-.6-.2s0-.2.3-.2c.1,0,.3-.2.2-.4l-1.7-3.7c0-.1-.1-.1-.2-.1ZM33.5,24.4h4.2c0,0,.1,0,0-.1l-2-4.7c0,0,0-.2,0-.2,0,0,0,.1-.1.2l-2.1,4.7c0,0,0,.1,0,.1ZM49.4,24.7v-3.3c0-2.8,0-3.3,0-3.9,0-.6-.2-.8-.9-1-.2,0-.5,0-.9,0s-.4,0-.4-.2.2-.2.5-.2c1.1,0,2.5,0,2.9,0,.7,0,2.7,0,3.4,0,1.4,0,2.9.1,4.1.8.6.4,1.5,1.3,1.5,2.6s-.9,2.6-3,4.1c1.9,2.1,3.4,3.8,4.7,4.9,1.2,1.1,2,1.2,2.3,1.2.2,0,.3,0,.5,0s.3.1.3.2c0,.2-.1.2-.4.2h-2.1c-1.2,0-1.8-.1-2.4-.4-.9-.4-1.7-1.3-2.9-2.7-.9-1-1.8-2.3-2-2.5-.1-.1-.2-.1-.4-.1h-1.9c0,0-.2,0-.2.1v.3c0,1.7,0,3.2.1,4,0,.5.2.9.8,1,.3,0,.8,0,1.1,0s.3.1.3.2c0,.1-.2.2-.4.2-1.3,0-3,0-3.4,0s-1.8,0-2.7,0-.4,0-.4-.2,0-.2.3-.2.6,0,.8,0c.4,0,.6-.4.6-1,0-.8,0-2.3,0-4ZM52.2,17.4v5.5c0,.2,0,.3.2.3.5.1,1.1.2,1.6.2.9,0,1.2,0,1.5-.3.7-.4,1.4-1.2,1.4-2.8,0-2.6-2-3.3-3.3-3.3s-1.1,0-1.3,0c-.1,0-.2.1-.2.3ZM68,24.7v-3.3c0-2.8,0-3.3,0-3.9,0-.6-.2-.8-.9-1-.2,0-.5,0-.9,0s-.4,0-.4-.2.2-.2.5-.2c1.1,0,2.5,0,3.1,0s2.2,0,3.5,0c2.7,0,6.3,0,8.7,2.1,1.1,1,2,2.5,2,4.7s-1.1,4.1-2.4,5.2c-1,.9-3.3,2.2-7.2,2.2s-1.7,0-2.6-.1c-.9,0-1.6-.1-2.2-.1s-.7,0-1.2,0c-.5,0-1.1,0-1.5,0s-.4,0-.4-.2,0-.2.3-.2.6,0,.8,0c.4,0,.6-.4.6-1,0-.8,0-2.3,0-4ZM70.9,21.2v2.3c0,2,0,3.4,0,3.8,0,.5,0,1.1.2,1.3.3.3,1.1.7,2.8.7s3.4-.3,4.7-1.3c1.4-1,1.8-2.7,1.8-4.6s-1.1-3.9-2-4.6c-2-1.6-4.3-1.8-6-1.8s-1.2,0-1.3.1c-.2,0-.3.2-.3.4,0,.6,0,2.2,0,3.6ZM89.6,24.7v-5.1c.3,0,1.2.3,2.9.4v1.4s0,3.3,0,3.3c0,1.8,0,3.3,0,4.1,0,.5.2.8.9.9.3,0,.8,0,1.1,0s.3.1.3.2c0,.1-.2.2-.4.2-1.4,0-2.9,0-3.5,0s-2,0-2.8,0-.4,0-.4-.2,0-.2.3-.2.6,0,.8,0c.4,0,.6-.3.6-.9,0-.8,0-2.3,0-4ZM103.8,20l.2,7.6c0,1.4.3,1.9.7,2,.4.1.8.1,1.1.1s.4,0,.4.2-.2.2-.5.2c-1.4,0-2.4,0-2.8,0s-1.2,0-2.3,0-.5,0-.5-.2.1-.2.3-.2c.3,0,.7,0,1,0,.6-.1.6-.6.7-2.3l.2-11c0-.4.1-.6.4-.6s.6.3.9.6c.3.2,3.5,3.2,6.7,5.9,1.5,1.3,4.3,3.9,4.7,4.2v-8.3c-.1-1.1-.3-1.5-.9-1.6-.3-.1-.8-.1-1.1-.1s-.3,0-.3-.2.2-.2.5-.2c1.1,0,2.3,0,2.8,0s1.1,0,2.1,0,.5,0,.5.2-.1.2-.4.2-.4,0-.7,0c-.6.2-.8.5-.8,1.5l-.2,11.7c0,.4-.2.6-.3.6-.4,0-.7-.2-.9-.4-1.4-1.1-4.1-3.4-6.3-5.4-2.4-2-4.6-4.3-5.1-4.6h0ZM131.1,25.5h-5.1c-.1,0-.1,0-.2.1l-1.2,2.5c-.2.5-.3.9-.3,1.1,0,.3.2.5.9.5h.3c.3,0,.3,0,.3.2s-.1.2-.3.2c-.7,0-1.7,0-2.4,0s-1.4,0-2.5,0-.4,0-.4-.2,0-.2.2-.2.4,0,.6,0c1-.1,1.4-.7,1.8-1.6l5.7-11.7c.2-.5.4-.7.6-.7.3,0,.4.2.6.6.5,1,4.1,8.6,5.5,11.4.8,1.7,1.4,1.9,1.8,2,.3,0,.6,0,.8,0s.3,0,.3.2-.1.2-.9.2-2.3,0-4.2,0c-.4,0-.6,0-.6-.2s0-.2.3-.2c.1,0,.3-.2.2-.4l-1.7-3.7c0-.1-.1-.1-.2-.1ZM126.5,24.4h4.2c0,0,.1,0,0-.1l-2-4.7c0,0,0-.2,0-.2,0,0,0,.1-.1.2l-2.1,4.7c0,0,0,.1,0,.1Z"/>
</svg>