<?xml version="1.0" encoding="UTF-8"?>
<svg id="Layer_1" xmlns="http://www.w3.org/2000/svg" version="1.1" viewBox="0 0 793.7 595.3">
  <!-- Generator: Adobe Illustrator 30.0.0, SVG Export Plug-In . SVG Version: 2.1.1 Build 123)  -->
  <defs>
    <style>
      .st0 {
        fill: #002416;
      }

      .st1 {
        fill-rule: evenodd;
      }

      .st1, .st2 {
        fill: #044c36;
      }

      .st3 {
        fill: #004b36;
      }

      .st4 {
        fill: #0071ba;
      }

      .st5 {
        fill: #82a72a;
      }
    </style>
  </defs>
  <g>
    <path class="st4" d="M430.9,188c1.1,19.4,1.7,45,5.7,67.6,1.6,3.7-5,16.9-6.3,12.9l-1,1.8c-1.3-.7-.5-2.2-2-2.7l-2.2,3.3c-3.6-1.6-4.3-5.7-6.2-8.5-5.1-17.8-3.2-36.2-3-52.1h.5c1.1-6.9-1.6-13-2-20.1-1.8-2-1.1-5.5-.8-8l.3-.3c0-.2,0-.4,0-.4,0,0,0,.1,0,.4,0,.3.2.7.5.7,1.2-9.6,1.6-19.4,2.9-28,.6-.4,1.4-1,1.4-1.7,1.3,9.5-.3,18.8.4,28.9,1.6-4.9,1.2-9.4,1.6-14.4,1.4-3.9.2-8.1.9-12.1.9,7.9-.6,14.3.7,22.3h.3c1.3-7.2-.2-14.6,2.1-20.6.2.4,1,.7,1.4,1.1,1-.8,2,.3,2.7.4,1.3,2,.8,5,1,7.1.3,6.9,2.1,14.7.8,22.2ZM419.4,182.5v1c-.1,0,.2,0,.2,0l.3-.9h-.5ZM421.2,252.6l1.6,6.9v-1c-.1,0-1.6-5.9-1.6-5.9ZM420.8,249.1c.1-3.6-.7-6.4-.8-9.2,0-1.3.1-2.5.3-3.5-.3,1.2-.3,2.3-.3,3.5,0,3.1.2,6.6.8,9.2ZM420,229v6.7c.1,0,.4,0,.4,0v-6.7c-.1,0-.4,0-.4,0ZM424.1,262.3v1c.1,0,1.7,2.4,1.7,2.4l-1.7-3.4ZM419.9,228.3c.3-11.3.6-22.3-.8-33.6-1.7,9.7-.1,21.8.8,33.6ZM419.4,194.2v-.8c-.2.2-1.1.6,0,.8ZM419.1,193h.5s-.2-1.5-.2-1.5h-.4s.2,1.5.2,1.5ZM423.3,217.7c-.6-7.2-.6-14.6-1.1-21.7l.3,21.2.9.6ZM422.5,195.2l-.3-3.7.2,2.9v.8ZM421.1,251.8h.3s-.2-1.6-.2-1.6h-.3s.2,1.6.2,1.6Z"/>
    <path class="st3" d="M401.6,272.2c-1.4,1.1.7,3.6-1.7,4.4-1.8-2.5-1.3-6.1-3.3-8.6-.6,2.3.8,6.8-1.7,9.3-7,.5-3.3-9.8-8.6-13.2-.1-3.4-2.1-8.5-3.1-11.5,1.2-43.6.8-84.1,4.7-118,.3,7.9-.3,16.9-.5,26.6-.2,8.3-.7,8.3,2.1,36.9.5-34.4-2.6-29.1,2.5-60.6-.5,7.3-1,16.2.3,23.3,2-10.6.7-20.4,3.9-29.6.4,1-.6,2.4,1.1,2.9,2.1-2.8,2.2-6.2,2.3-9.5,2.8-.9,2.4,1.5,3.1,2.5,1.7,3.4-.3,9.4,1.4,13.1-.8,5.4,0,12.8-.1,18.8,1,30.4-.5,114-2.5,113Z"/>
    <path class="st5" d="M414.2,296.8l-.6-.4-.5,1.6c-.2.2-.9.2-.9,0,0-.7,2.3-2.1,1.3-2-2.4.2-5.6,0-6.9,1.6l.6.7-1,.2.6-.2c-.3,0-8.9-.3-9.3,0l-.5,1h1.1s-.8.3-.8.3l-4.4,1.5v-.5c0,0-1,.6-1,.6h-3.2c-.4-1.7-10.4.2-14.6.6-.2,0-2.7-.3-2.1-.7l-3.3-.3c.1.2.7.5.4.6-.8.2-1.7.3-2.6.2-.4,0,1.1-.5.8-.7l-1.3.4.2-.4h-2.9c0,0,.6.3.6.3h-4.6s-.7-.2-.7-.2l-.2-.6h-.8c0,0,0,1.2,0,1.2l-1.3-.7-5.3.7-.9-1.1c-.4,0,.3.8,0,.8l-2.1-.4c-.6-.2-.8.4-.4.6-4.2.4-9-.1-13.3-.2h-4c0,.1-2.9.2-2.9.2,0,0-1.6,0-1.2-.4-4.2.4-9.3.6-13.4-.6v.6c-9.4,0-18.9-.9-28.3-1.7.1,0,.2.1.3.2l-.5-.3h.2c-.6-.3-1.2.2-1.3.3l-8.5-.6-4.9-.6.5-.2-8-.7-.2-.2h-3.5c-1.7,0-6.2.4-4.8,0h-.5s-.7,0-.7,0h.3s-2.7.2-2.7.2h-.6c10.8-1,56.9-8.7,65.4-7l.2.4c.5-.1,2.1-.5,2.7,0l3.4-1.3-.2.3h2.4s6.5,0,6.5,0c.3,0,1.1,0,.9-.3,0,0,0-.1-.2-.1h-.6c-.7,0-1.4.2-.6-.2h.6c.2.1.4.1.6.2h.4c3.3-.6,11.5-.9,15,0v-.9c1.5,0,1,.2,4.3-.1.9,0,1.6.9,2.5.8,2.7-.5,2.8-.4,3.9-.1l1-.6-.5-.2h2.8c0,0,.4.5.4.5l1.2-.9.6.6v-.2c0,0,.8-.3.8-.3l1.5.3-.5-.3h1.3s0,.4,0,.4l4.7-.2,2.1-.7,6.7.3c-.7-.6,1.1-.3.4,0l6.1.8-.2-.5,1.2.4,3.3-.7c.9.8,7.5,0,8.2-.2l1.6.2v.2c.7.3,2,0,2.9.2h3.7c0,0,0,.2,0,.2l1.3-.5v.4c-.1,0,.7.2.7.2l3.5.6,1.6.5c2-.4,0-.1,3.9,0,2.5,0,5-1,7,0h.9s-.4.2-.4.2h2.5c0-.1,3.5-.3,3.5-.3l-.4.4,1.4-.7v.6s.9,0,.9,0l6.7.3-.2-.5,2.2.8.2-.2,5.8.7-.2.3c.9.2,2.5-.2,4.1,0v.4c.8.1,1.5.3,2.1.2v-.4c.3,0,1.1.3,1.6.2,0,0-.1,0-.2-.1h.4s-.1,0-.3.1c.5.3,1.5.3,2,.1l-.5-.2h2.2c0,.1,0,.4,0,.4h.3s3,.2,3,.2c-.4-.5,4.3-.2,4.9.4l2.9-.2-.4.2h3.1c0,.1,0,0,0,0h.8c0,.1,1.3.1,1.3.1,1.3.2,3-.5,4,.2l-.2.4h1.4c0-.1.1.2.1.2,7.3-.6,9.8-.2,16.7.2h-.6s-1.3,0-1.3,0h.9s-1.9,0-1.9,0l46.8,9.6c.4,0,.5,0,.2,0h-.2c-3.3,0-27.5.7-29.1.8-3.8.2-38.1-3-40.5-2.4,0,0-21.4-1.5-18-1.1l-6.7-.4c.3.2-9-.5-9-.5-2.5-.9,0-3.3-.9-3.6l-2.6.7v.5c-1.7-.4-.5-1.2-1.1-1.4-.4.3-4.4,2.2-5.2,1.7-.2-.1,1-.3.7-.4h-1.8c-.3-.3,1.1-.6.8-.5l-2.3.6.2.3h-2.2c0,.1-.2.6-.2.6h2c.2.5-1.2.5-1.9.4-.9-.2-1-1.4-2.8-1.1-.9.1-1.7.6-2.6.5-.9-.1-1.4-1-2.2-1.3l-1,.4ZM223.7,417.5v.2c.8-.4,6.9-.4,7.8-.2v-.2s.6,0,.6,0h1.7c0,0,0,.1,0,.1.5.1.5-.3,1,0,2.4-.7,6.4-.4,9.1-.6v.2c.1,0,.4,0,.3-.1h1.1c0-.1-.5,0-.5,0l.4.2h.3c0,0,.3-.4.3-.4,1.5,0,3.6,0,4.1.4.2.1.9-.5.8-.4h2.7c0-.1-.3,0-.3,0h1.7c0-.1-.2-.3-.2-.3.1,0,.8.2.9.1h-.2c0,0-.4-.3-.4-.3l.9.2.7-.2c.1,0,0,.2-.1.3l1.9-.2v-.2c1.5-.4,7.2-.3,8.7.1-1-.9.5-.3.7-.3l.4-.5c1-.2,1.8.1,2.6,0,.1,0,0-.2-.1-.3,1.2-.4,1.8.8,2.9.5h-.1c0,0,.6,0,.6,0h-.6c0,.4.9.8,1.2.7l1.4-.5,1,.5c0-.7.9-.2,1.5-.4l-.2-.2h.8s0,6.5,0,6.5h-.3s.1,0,.1,0h-1.3s-.5,0-.5,0h.1c0,.1-.9.3-.9.3l-.7-.5-.5.3h-1.1c0-.1-.8-.1-.8-.1h.1c0,0-1.2-.2-1.2-.2l-.7.3-2.1-.4-.6.2v-.2c-1,.2-2.3.5-3.4.4.2,0-.4.4-.3,0-1.9.1-3.4.3-5.2-.2h-2.8c.7-.2-2-.4-2.1.1l-.9-.4v.2c-.1,0-1.7,0-1.7,0h.3c0,0-.7-.3-.7-.3h0c0,.1-1,0-1,0h.2c0,0-.9.3-.9.3-.1-.3-.9-.4-.9-.1-.7.2-1.7,0-2.4-.2,0,.3-.7.2-1.1.2l-.2-.4c-2,.5-6.9.3-8.9,0h.1s-1,.1-1,.1c0,0-2.9-.3-5.2-.3h.2c0,.1-2.3-.4-2.3-.4-.3.2-.8.2-1.2.2h-.4c-1.4,0-6.5-.3-7.9-.7h-.4c0,.1-1.1-.1-1.1-.1-5.4-1.7-18.3.3-23.6-1.9-2.2-.5-4.6,0-6.5-.4-.1,0,.3,0,.3-.2,0,0,0,0-.1,0-.1,0-.2,0-.2,0,0,0,0,0,.2,0,0,0,0,0,.1,0,.5,0,1.5,0,1.6,0h0c0-.1.3-.1.3-.1h.6c0,0-.1-.1-.1-.1h1.5c0-.1,1.1,0,1.1,0,.6.3,1.3.2,2,.1,1.6-.1,3.1-.4,4.7-.3h-.3c.9,0,1.9,0,2.8-.2,1.6-.2,3.3,0,4.9-.1h-.2c.3.1.7.2,1,.1h-.1s.2,0,.2,0c0,0,0,0-.1,0,5-.6,11.2-.3,16.3-.3ZM512.2,422.5v-6.5h.8s-.2.2-.2.2c.6.2,1.4-.3,1.5.4l1-.5,1.4.5c.3,0,1.3-.3,1.2-.6h-.6c0,0,.6-.2.6-.2h-.1c1.1.3,1.7-.9,2.9-.5,0,0-.3.3-.1.3.8,0,1.6-.3,2.6,0l.4.5c.2,0,1.7-.5.7.3,1.5-.4,7.2-.5,8.7-.1v.2s1.9.2,1.9.2c0,0-.2-.3-.1-.3l.7.2.9-.2-.4.2h-.2c.1.2.7,0,.9,0l-.2.2h1.7c0,.1-.3,0-.3,0h2.7c0,0,.7.7.8.6.5-.4,2.6-.4,4.1-.4l.3.5h.3c0,0,.4-.3.4-.3h-.5c0,0,1.1,0,1.1,0-.1,0,.2.2.4.1v-.2c2.7.2,6.6-.1,9,.6.5-.3.5,0,1,0v-.2s1.7,0,1.7,0h.6s0,.1,0,.1c.9-.2,7-.1,7.7.2v-.2c5.1,0,11.4-.4,16.4.3,0,0,0,0-.1,0h.2c0,0-.1,0-.1,0,.3.1.8,0,1,0h-.2c1.6,0,3.3-.1,4.9,0,.9,0,1.9.1,2.8,0h-.3c1.5,0,3,.3,4.6.3.7.1,1.5.3,2.1,0h1.1s1.5,0,1.5,0h-.1s.6.1.6.1h.3s0,.1,0,.1c0,0,1.1,0,1.6,0,0,0,0,0,.1,0,0,0,.2,0,.2,0,0,0,0,0-.2,0,0,0,0,0-.1,0,0,.1.4.1.3.2-1.9.4-4.3-.1-6.5.4-5.4,2.2-18.2.2-23.6,1.9l-1.1.2h-.4c-1.4.2-6.5.6-7.9.5h-.4c-.4,0-.9,0-1.2-.1l-2.3.5h.2c-2.3-.2-5.2.2-5.2.2h-1c0,0,.1-.1.1-.1-1.9.2-6.8.4-8.9,0l-.2.4c-.4,0-1.1,0-1.1-.2-.7.2-1.7.4-2.4.2,0-.3-.7-.2-.9.1l-.9-.2h.2c0,0-1,0-1,0h0c0-.1-.7.1-.7.1h.3c0,0-1.6,0-1.6,0v-.2c-.1,0-1,.4-1,.4-.1-.6-2.8-.3-2.1-.2h-2.8c-1.8.5-3.4.4-5.2.2,0,.4-.5,0-.3,0-1.1,0-2.3-.2-3.4-.4v.2s-.6-.2-.6-.2l-2.1.4-.7-.3-1.2.2h.1c0,0-.8,0-.8,0h-1.1c0,.1-.5-.2-.5-.2l-.7.5h-.9c0-.1.1-.3.1-.3h-.5s-1.3,0-1.3,0h.1c0,0-.3,0-.3,0ZM368.3,276.6v.4c-2.5,1.1-.8-2-2.4-2.5-.5.9-.7,1.8-1.8,2.6l-1.5-1.6c-1.5,1.7-2.6,3.5-4.8,2.3-8.6-7.8-4.2-19.4-4.4-30.2,2.7-38.5,4.4-71.8,9.9-102.2l.6,2c.8-3.1.7-5.4,2.1-8.1.5-.3,1.6-.5,1.6-1.2,0,6.7-.8,12.8-1.3,21l.7.6c2-1.4.7-4.7,1.5-6.4.2-2.3,1-4.3.8-6.6h.3s-1,13.4-1,13.4c1.5.5-.5,1.6.6,2.2,1.4-1.5.2-3.8,1.1-5.4.6-2.1.2-3.4,1.7-5l.6,3.1c.8,1,1.5-1.1,1.9,0-.4.1-.3.4-.3.8l1.4.8c.2,27.1-1.7,55.6-.7,94.3,1,6-6.6,25.7-6.6,25.7Z"/>
    <path class="st0" d="M446.3,431v-20.7h-6.3c-.4,0-.7-.3-.7-.7v-3.4c0-.4.3-.7.7-.7h18c.4,0,.7.3.7.7v3.4c0,.4-.3.7-.7.7h-6.5v20.7c0,.4-.3.7-.7.7h-3.8c-.4,0-.7-.3-.7-.7ZM414.5,416.1l-2.2,5.1h4.3l-2.1-5.1ZM420.8,431l-2.4-5.6h-7.8l-2.3,5.6c-.2.4-.5.7-1,.7h-4.2c-.4,0-.6-.4-.4-.7l11.3-25.4c.1-.2.3-.4.6-.4s.4.1.6.4l11.3,25.4c.1.3,0,.7-.4.7h-4.2c-.4,0-.9-.3-1-.7ZM377.3,431v-20.7h-6.3c-.4,0-.7-.3-.7-.7v-3.4c0-.4.3-.7.7-.7h18c.4,0,.7.3.7.7v3.4c0,.4-.3.7-.7.7h-6.5v20.7c0,.4-.3.7-.7.7h-3.8c-.4,0-.7-.3-.7-.7ZM338.3,412.5c0,1.7,2.2,2.7,4.8,3.4,4.1,1.3,8.9,2.8,8.8,8.7-.1,3.9-4,7.4-9.5,7.4s-6.3-.8-9.2-2.3c-.4-.2-.5-.6-.3-1l1.5-3c.2-.4.6-.5.9-.3,2.3,1.1,4.5,1.7,6.9,1.7s4.2-1,4.3-2.6c.1-2.3-2.7-3.1-5.4-3.9-3.8-1.2-8.2-2.7-8.2-7.9s3.5-7.5,8.4-7.5,4.6.3,8.7,2.1c.4.2.5.6.4,1l-1.4,3.1c-.1.4-.6.5-.9.4-1.9-.7-4.7-1.4-6-1.5-2.2-.1-3.8.2-3.9,2.3ZM309.4,421.1h-9v5.7h11.7c.4,0,.7.3.7.7v3.4c0,.4-.3.7-.7.7h-16.2c-.4,0-.7-.3-.7-.7v-24.7c0-.4.3-.7.7-.7h16.2c.4,0,.7.3.7.7v3.4c0,.4-.3.7-.7.7h-11.7v6h9c.4,0,.7.3.7.7v3.4c0,.4-.3.7-.7.7ZM637.4,379.5h-6.9c-.7,0-1.3-.6-1.3-1.3v-44.6c0-.7.6-1.3,1.3-1.3h6.9c.7,0,1.3.6,1.3,1.3v17.9l17-18.2c.6-.6,1.4-1,2.2-1h9.7c.5,0,.7.6.4,1l-21.1,22,22.2,23.3c.3.4,0,1-.4,1h-9.5c-.8,0-1.6-.3-2.2-1l-18.4-19.5v19.2c0,.7-.6,1.3-1.3,1.3ZM590.8,371.3c11.9,0,13.6-11.5,13.6-15.4s-1.7-15.3-13.6-15.3-13.7,11.4-13.7,15.3,1.7,15.4,13.7,15.4ZM590.8,331.8c17.9,0,23.1,14.4,23.1,24.1s-5.3,24.2-23.1,24.2-23.1-14.2-23.1-24.2,5.3-24.1,23.1-24.1ZM530.8,371.3c11.9,0,13.6-11.5,13.6-15.4s-1.7-15.3-13.6-15.3-13.7,11.4-13.7,15.3,1.7,15.4,13.7,15.4ZM530.8,331.8c17.9,0,23.1,14.4,23.1,24.1s-5.3,24.2-23.1,24.2-23.1-14.2-23.1-24.2,5.3-24.1,23.1-24.1ZM468.1,354h9c5.4,0,6.7-4.7,6.7-6.6s-1.3-6.5-6.9-6.5h-8.7v13.2ZM468.1,362.8v15.4c0,.7-.6,1.3-1.3,1.3h-6.9c-.7,0-1.3-.6-1.3-1.3v-44.6c0-.7.6-1.3,1.3-1.3h16.5c12.9,0,16.7,9,16.7,15.1s-4.2,11.8-9.5,14.1l7.8,16.8c.2.5-.2,1.1-.7,1.1h-7.7c-.8,0-1.5-.5-1.9-1.1l-7.3-15.5h-5.9ZM421.1,347.1c7.5-.2,8.7-5.5,8.7-7.7s-1.2-7.7-9.1-7.7h-12.2v15.4h12.5ZM420.8,370.6c7.8,0,9.1-5.7,9.1-7.5s-1.2-6.9-8.7-7h-12.5v14.5h12.2ZM433,351.1c4.6,1.9,6.9,7.5,6.9,12,0,6.9-4.6,16.4-20,16.4h-19.9c-.7,0-1.3-.6-1.3-1.3v-54c0-.7.6-1.3,1.3-1.3h19.9c15.4,0,20,9.6,20,16.5s-2.3,9.9-6.9,11.7ZM353.5,354h9c5.4,0,6.7-4.7,6.7-6.6s-1.3-6.5-7-6.5h-8.7v13.2ZM353.5,362.8v15.4c0,.7-.6,1.3-1.3,1.3h-6.9c-.7,0-1.3-.6-1.3-1.3v-44.6c0-.7.6-1.3,1.3-1.3h16.5c12.9,0,16.7,9,16.7,15.1s-4.2,11.8-9.5,14.1l7.8,16.8c.2.5-.2,1.1-.7,1.1h-7.7c-.8,0-1.5-.5-1.9-1.1l-7.3-15.5h-5.9ZM318.6,360.5h-16.2v10.3h21.1c.7,0,1.3.6,1.3,1.3v6.1c0,.7-.6,1.3-1.3,1.3h-29.2c-.7,0-1.3-.6-1.3-1.3v-44.6c0-.7.6-1.3,1.3-1.3h29.2c.7,0,1.3.6,1.3,1.3v6.1c0,.7-.6,1.3-1.3,1.3h-21.1v10.8h16.2c.7,0,1.3.6,1.3,1.3v6.1c0,.7-.6,1.3-1.3,1.3ZM248,333.5l11.3,26.7,11.3-26.7c.2-.7,1-1.2,1.8-1.2h7.6c.6,0,1,.6.7,1.2l-20.4,45.7c-.2.4-.6.6-1,.6s-.8-.2-1.1-.6l-20.4-45.7c-.2-.6.2-1.2.8-1.2h7.6c.8,0,1.5.5,1.8,1.2ZM217.4,333.5v37.2h18.5c.7,0,1.3.6,1.3,1.3v6.1c0,.7-.6,1.3-1.3,1.3h-26.8c-.7,0-1.3-.6-1.3-1.3v-44.7c0-.7.6-1.3,1.3-1.3h7c.7,0,1.3.6,1.3,1.3ZM190.9,333.5v44.7c0,.7-.6,1.3-1.3,1.3h-6.9c-.7,0-1.3-.6-1.3-1.3v-44.7c0-.7.6-1.3,1.3-1.3h6.9c.7,0,1.3.6,1.3,1.3ZM134.6,337.6c.2,11.3,30.7,4.8,30.7,26.7s-8.6,15.8-20.3,15.8-13.7-1.6-20-4.8c-.6-.3-.9-1.1-.6-1.7l2.7-5.7c.3-.6,1.1-1,1.7-.6,4.9,2.2,10.1,3.9,15.5,3.9s10.7-2.7,10.7-6.9c0-13.4-30.4-6.1-30.4-26.1s7.5-16.1,18-16.1,10.3.6,18.7,4.3c.7.3,1,1.1.7,1.8l-2.7,5.9c-.2.7-1.1,1-1.7.7-4-1.5-10.2-3.3-13.3-3.3-5.3,0-9.5,1.1-9.9,6.1ZM492.7,421.1h-9v5.7h11.7c.4,0,.7.3.7.7v3.4c0,.4-.3.7-.7.7h-16.2c-.4,0-.7-.3-.7-.7v-24.7c0-.4.3-.7.7-.7h16.2c.4,0,.7.3.7.7v3.4c0,.4-.3.7-.7.7h-11.7v6h9c.4,0,.7.3.7.7v3.4c0,.4-.3.7-.7.7Z"/>
  </g>
  <g>
    <path class="st1" d="M202.6,462.5c.3,0,.4-.2.4-.4v-2.2c0-.3-.2-.4-.4-.4h-7.1v-5.3h9.2c.3,0,.4-.2.4-.4v-2.2c0-.3-.2-.4-.4-.4h-12.2c-.3,0-.4.2-.4.4v18.6c0,.3.2.4.4.4h12.2c.3,0,.4-.2.4-.4v-2.2c0-.3-.2-.4-.4-.4h-9.2v-5h7.1Z"/>
    <path class="st1" d="M220.2,464.1c.3,0,.4-.2.4-.4v-2.1c0-.3-.2-.4-.4-.4h-5.6v-3.7h7.3c.3,0,.4-.2.4-.4v-2.1c0-.3-.2-.4-.4-.4h-10.1c-.3,0-.4.2-.4.4v15.4c0,.3.2.4.4.4h2.4c.3,0,.4-.2.4-.4v-6.1h5.6Z"/>
    <path class="st1" d="M237.3,464.1c.3,0,.4-.2.4-.4v-2.1c0-.3-.2-.4-.4-.4h-5.6v-3.7h7.3c.3,0,.4-.2.4-.4v-2.1c0-.3-.2-.4-.4-.4h-10.1c-.3,0-.4.2-.4.4v15.4c0,.3.2.4.4.4h2.4c.3,0,.4-.2.4-.4v-6.1h5.6Z"/>
    <path class="st1" d="M252.2,467.8c-4.1,0-4.7-4-4.7-5.3s.6-5.3,4.7-5.3,4.7,4,4.7,5.3-.6,5.3-4.7,5.3ZM252.2,454.2c-6.2,0-8,5-8,8.3s1.8,8.4,8,8.4,8-4.9,8-8.4-1.8-8.3-8-8.3Z"/>
    <path class="st1" d="M269.3,461.8v-4.5h3c2,0,2.4,1.5,2.4,2.3s-.4,2.3-2.3,2.3h-3.1ZM269.3,464.9h2l2.5,5.4c.1.2.4.4.6.4h2.7c.2,0,.3-.2.3-.4l-2.7-5.8c1.8-.8,3.3-2.5,3.3-4.9s-1.3-5.2-5.8-5.2h-5.7c-.3,0-.4.2-.4.4v15.4c0,.3.2.4.4.4h2.4c.3,0,.4-.2.4-.4v-5.3Z"/>
    <path class="st1" d="M286.5,470.2c0,.3.2.4.4.4h2.4c.3,0,.4-.2.4-.4v-12.9h4c.3,0,.4-.2.4-.4v-2.1c0-.3-.2-.4-.4-.4h-11.2c-.3,0-.4.2-.4.4v2.1c0,.3.2.4.4.4h3.9v12.9Z"/>
    <path class="st1" d="M303.1,454.8c0-.3-.2-.4-.4-.4h-2.4c-.3,0-.4.2-.4.4v15.4c0,.3.2.4.4.4h9.3c.3,0,.4-.2.4-.4v-2.1c0-.3-.2-.4-.4-.4h-6.4v-12.9Z"/>
    <path class="st1" d="M324.4,464.1c.3,0,.4-.2.4-.4v-2.1c0-.3-.2-.4-.4-.4h-5.6v-3.7h7.3c.3,0,.4-.2.4-.4v-2.1c0-.3-.2-.4-.4-.4h-10.1c-.3,0-.4.2-.4.4v15.4c0,.3.2.4.4.4h10.1c.3,0,.4-.2.4-.4v-2.1c0-.3-.2-.4-.4-.4h-7.3v-3.5h5.6Z"/>
    <path class="st1" d="M335.7,458.7c0-1.3,1.1-1.5,2.5-1.4.8,0,2.5.5,3.7.9.2,0,.5,0,.6-.3l.9-1.9c.1-.2,0-.5-.2-.6-2.6-1.1-4.5-1.3-5.4-1.3-3,0-5.2,1.7-5.2,4.7s2.7,4.2,5.1,4.9c1.6.5,3.4,1,3.3,2.5,0,1-1.3,1.6-2.7,1.6s-2.8-.4-4.3-1c-.2-.1-.5,0-.6.2l-.9,1.8c-.1.2,0,.5.2.6,1.8.9,3.5,1.4,5.7,1.4,3.4,0,5.8-2.2,5.9-4.6,0-3.7-2.9-4.6-5.5-5.4-1.6-.4-3-1-3-2.1Z"/>
    <path class="st1" d="M353.3,458.7c0-1.3,1.1-1.5,2.5-1.4.8,0,2.5.5,3.7.9.2,0,.5,0,.6-.3l.9-1.9c.1-.2,0-.5-.2-.6-2.6-1.1-4.5-1.3-5.4-1.3-3,0-5.2,1.7-5.2,4.7s2.7,4.2,5.1,4.9c1.6.5,3.4,1,3.3,2.5,0,1-1.3,1.6-2.7,1.6s-2.8-.4-4.3-1c-.2-.1-.5,0-.6.2l-.9,1.8c-.1.2,0,.5.2.6,1.8.9,3.5,1.4,5.7,1.4,3.4,0,5.8-2.2,5.9-4.6,0-3.7-2.9-4.6-5.5-5.4-1.6-.4-3-1-3-2.1Z"/>
    <path class="st1" d="M382.5,451.6c0-.3-.2-.4-.4-.4h-2.5c-.3,0-.4.2-.4.4v18.6c0,.3.2.4.4.4h9.7c.3,0,.4-.2.4-.4v-2.2c0-.3-.2-.4-.4-.4h-6.8v-16Z"/>
    <path class="st2" d="M396.3,454.3h2.4c.2,0,.4.2.4.4v15.4c0,.2-.2.4-.4.4h-2.4c-.2,0-.4-.2-.4-.4v-15.4c0-.2.2-.4.4-.4Z"/>
    <path class="st1" d="M407.8,454.8c-.1-.3-.3-.4-.6-.4h-2.6c-.2,0-.4.2-.3.4l7.1,15.8c0,.1.2.2.4.2s.3,0,.4-.2l7-15.8c0-.2,0-.4-.3-.4h-2.6c-.3,0-.5.2-.6.4l-3.9,9.2-3.9-9.2Z"/>
    <path class="st2" d="M424.8,454.3h2.4c.2,0,.4.2.4.4v15.4c0,.2-.2.4-.4.4h-2.4c-.2,0-.4-.2-.4-.4v-15.4c0-.2.2-.4.4-.4Z"/>
    <path class="st1" d="M437.2,470.6c.3,0,.4-.2.4-.4v-8.8l9.3,9.1c.1.1.3.2.4.2s.3-.1.3-.3v-15.7c0-.3-.2-.4-.4-.4h-2.4c-.3,0-.4.2-.4.4v8.4l-9.3-9c-.1-.1-.3-.2-.5-.2s-.3.1-.3.3v15.9c0,.3.2.4.4.4h2.4Z"/>
    <path class="st1" d="M464.2,465.1v2c-.8.4-1.8.7-2.7.7-4.1,0-4.7-4-4.7-5.3s.6-5.2,4.7-5.2,2.6.7,3.5,1.5c.2.2.4.2.6,0l1.5-1.5c.2-.2.2-.4,0-.6-1.5-1.5-3.2-2.4-5.7-2.4-6.2,0-8,4.9-8,8.3s1.8,8.4,8,8.4,4.1-.8,5.6-2.1c.2-.2.3-.5.3-.8v-5.4c0-.3-.2-.4-.4-.4h-5.6c-.3,0-.4.2-.4.4v2.1c0,.3.2.4.4.4h2.7Z"/>
    <rect class="st2" x="482.5" y="451.1" width="3.4" height="19.5" rx=".4" ry=".4"/>
    <path class="st1" d="M496.1,470.6c.3,0,.4-.2.4-.4v-8.8l9.3,9.1c.1.1.3.2.4.2s.3-.1.3-.3v-15.7c0-.3-.2-.4-.4-.4h-2.4c-.3,0-.4.2-.4.4v8.4l-9.3-9c-.1-.1-.3-.2-.5-.2s-.3.1-.3.3v15.9c0,.3.2.4.4.4h2.4Z"/>
    <path class="st1" d="M531.9,460.5h-4.2v-6.4h4.1c2.7,0,3.3,2.1,3.3,3.2s-.6,3.1-3.2,3.2ZM527.8,463.6h3.3l3.1,6.6c.1.2.4.4.6.4h2.8c.2,0,.3-.2.3-.4-1-2.2-2.3-4.8-3.3-7.1,2.3-.9,4.1-3,4.1-5.8s-1.6-6.2-6.9-6.2h-6.9c-.3,0-.4.2-.4.4v18.6c0,.3.2.4.4.4h2.5c.3,0,.4-.2.4-.4v-6.5Z"/>
    <path class="st1" d="M550.6,467.8c-2.5,0-3.2-2.5-3.2-3.5v-9.6c0-.3-.2-.4-.4-.4h-2.4c-.3,0-.4.2-.4.4v9.6c0,2.7,1.6,6.4,6.4,6.4s6.4-3.7,6.4-6.4v-9.6c0-.3-.2-.4-.4-.4h-2.5c-.3,0-.4.2-.4.4v9.6c0,1-.6,3.5-3.1,3.5Z"/>
    <path class="st1" d="M586.1,454.8c0-.2,0-.4-.3-.4h-2.7c-.3,0-.5.2-.6.4l-4,9.1-4.3-9.5c0-.1-.2-.2-.4-.2s-.3,0-.4.2l-4.3,9.5-4-9.1c-.1-.3-.3-.4-.6-.4h-2.7c-.2,0-.4.2-.3.4l7.1,15.8c0,.2.2.3.4.3s.3,0,.4-.3l4.3-9.5,4.3,9.5c0,.2.2.3.4.3s.3,0,.4-.3l7.1-15.8Z"/>
    <path class="st1" d="M594.2,461l1.3,3.2h-2.7l1.3-3.2ZM598.1,470.2c0,.3.3.4.6.4h2.6c.2,0,.3-.2.3-.4l-7-15.8c0-.1-.2-.2-.4-.2s-.3,0-.4.2l-7.1,15.8c0,.2,0,.4.3.4h2.6c.3,0,.5-.2.6-.4l1.5-3.5h4.9l1.5,3.5Z"/>
  </g>
</svg>