<?xml version="1.0" encoding="UTF-8"?>
<svg id="Layer_1" xmlns="http://www.w3.org/2000/svg" version="1.1" viewBox="0 0 793.7 595.3">
  <!-- Generator: Adobe Illustrator 30.0.0, SVG Export Plug-In . SVG Version: 2.1.1 Build 123)  -->
  <defs>
    <style>
      .st0 {
        fill: #0b1843;
      }
    </style>
  </defs>
  <path class="st0" d="M438.2,317.2c.8-27.7-9.5-56.7-31-79.9-18.4-19.8-2.2-19.3,16.5,9.5,14.3,21.8,18.7,46.9,14.5,70.4ZM398,125.8c1.1.8,2,0,3.1.8,3.4,2.2,2.2,9.5-2.8,8.4-.6,3.1,1.7,8.1,3.4,10.3,3.9,5,12.9,2,15.6-3.4-3.1-3.6-1.1-9.2,3.6-8.4,2.2.3,4.5,5,2.2,7.8-.6.8-1.7.8-2.2,1.4-.8,1.1-.3,4.5,0,6.1.8,4.8,4.8,8.1,9.2,5.6,1.7-1.1,2.8-2.5,4.2-4.2.6-.6,1.4-1.1,1.4-1.7,0-2-3.4-2.2-2.5-5.6.8-1.7,1.4-3.9,4.2-3.9s2.5,1.7,3.6,1.4c.8-.3,1.1-1.4,2.2-2,2.2-1.7,5.6-2.5,8.4-1.4,0,2.2-1.1,2.2-2.2,3.1-5.6,5.3-9.2,14-12.3,21.5-.3,1.1-1.1,3.1-1.7,4.5h-77.7c-.8-1.4-1.7-3.6-2.2-4.5-3.4-7-6.7-15.1-11.5-21-1.7-2-3.6-3.1-5-5.3,2-1.7,5.3.6,7.5.8,1.4.8,2.2,3.1,3.9,3.1s1.4-1.1,2.8-1.1c2.8-.3,5.3,3.4,4.2,6.4-.3.6-1.7,1.7-1.7,2.8,0,2.2,5,6.1,6.4,6.7,5.9,2,7.8-3.4,8.1-8.1,0-1.1,0-2.5-.3-3.4-.6-1.7-3.1-2.2-3.6-4.2-1.7-5.6,7.3-8.4,8.1-1.4.3,1.7-1.1,3.4-1.1,4.5.3,2,5,4.8,6.7,5.6,3.1,1.1,7,.8,9.2-2.2.6-1.1,1.1-2.8,1.7-4.5.3-1.1,1.7-3.4,1.1-4.5-.6-1.4-1.7-.6-2.8-1.1s-1.1-1.7-2-2.2l-.6-2.5c.6-1.1.6-2.5,1.7-3.4.8-.6,2.5,0,3.1-1.4-1.4-2.2-2.2-4.8-.8-7,.3-.6,1.4-1.1,2-1.7.6-.8.6-2.5,2-2.5s3.1,3.1,3.6,3.9c1.7,2.5,1.4,5.3-.3,7.5ZM347.7,207.1c-.8,27.7,9.5,56.7,31,79.9,18.4,19.8,2.2,19.3-16.5-9.5-14-21.8-18.4-46.9-14.5-70.4ZM427.3,343.2h-73.2l15.4-33.8c8.4,15.9,15.9,26.8,22.9,32.1,5.9-8.1,8.9-17.3,8.9-27.9s-1.4-14.8-4.2-20.4c-2.8-5.3-7.8-11.7-15.1-19.3-10.9-11.2-18.4-21-22.9-29.9-4.5-8.9-6.7-19.6-6.7-31.6s2.2-21.5,6.4-31.6h70.1l-14,29.9c-3.6-6.7-7.5-12.6-11.5-17.6-3.6-5-7.3-8.7-10.6-10.9-6.1,7.8-9.2,17.3-9.2,29.1s1.1,12,3.1,17.6c2,5.3,7.3,12,15.4,20.7,8.4,8.4,14.3,15.1,18.2,20.7,3.4,5,6.4,11.5,8.9,19,2.2,7.3,3.4,15.4,3.6,24.3.3,9.8-1.7,19.8-5.6,29.6ZM358.6,171.9h74.1l-2,4.8h-71.3l-.8-4.8ZM669.3,439.6H124.4v-2.5h544.9v2.5ZM171.3,454.4v7.5h-.8c-.6-2.2-1.7-4.2-3.1-5.3s-3.1-1.7-5.3-1.7-5.3,1.1-7,3.1-2.5,4.8-2.5,8.4.8,7,2.8,9.2c1.7,2.2,4.2,3.4,7,3.4s7-2,8.9-5.6l.6.6c-.8,2-2.2,3.6-4.2,4.8s-4.2,1.7-6.4,1.7-4.5-.6-6.4-1.7c-2-1.1-3.4-2.5-4.5-4.5-1.1-2-1.7-4.2-1.7-6.7,0-4.2,1.1-7.5,3.6-10.1,2.5-2.8,5.6-3.9,9.5-3.9s2.8.3,4.8.6c1.1.3,2,.3,2.2.3.6,0,1.1-.3,1.4-.8h1.1v.8ZM176.1,467.5c0-3.9,1.4-7,3.9-9.5s5.9-3.9,9.8-3.9,7,1.4,9.5,3.9,3.9,5.6,3.9,9.5-1.4,7-3.9,9.5-5.9,3.9-9.8,3.9-7-1.4-9.8-3.9c-2.2-2.5-3.6-5.6-3.6-9.5ZM180,467.5c0,3.6.8,6.7,2.8,8.9,1.7,2.2,4.2,3.4,7,3.4s5.3-1.1,7-3.6c1.7-2.2,2.8-5.3,2.8-8.9s-.8-6.7-2.8-9.2c-1.7-2.2-4.2-3.4-7-3.4s-5.3,1.1-7.3,3.4c-1.4,2.8-2.5,5.9-2.5,9.5ZM216.1,468.7h-2v7c0,1.4.3,2.5.6,3.1.6.6,1.1.8,2.2.8v.8h-9.2v-.8c1.1,0,2-.3,2.2-.8s.6-1.7.6-3.1v-15.9c0-1.4-.3-2.5-.6-3.1-.3-.6-1.1-.8-2.2-.8v-.8h10.3c2.5,0,4.8.6,6.1,2,1.7,1.1,2.2,2.8,2.2,4.8,0,3.1-1.7,5.3-5.3,6.1.8.6,1.4,1.1,2.2,2s1.7,2.2,2.8,4.2c1.4,2.2,2.5,3.6,3.1,4.5.8.6,1.7,1.1,2.2,1.1v.8h-5.3c-1.1-1.4-2.5-3.1-3.9-5.6-1.7-2.5-2.8-4.2-3.9-5-.3-.8-1.1-1.1-2.2-1.1ZM216.6,455.8h-2.8v11.7h3.1c2,0,3.4-.6,4.5-1.7,1.1-1.1,1.7-2.5,1.7-4.2s-.6-3.1-1.7-4.2c-1.4-1.1-2.8-1.7-4.8-1.7ZM234.2,455h9.2c3.1,0,5.6.6,7.3,2s2.8,3.1,2.8,5.3-.8,3.6-2.2,5c-1.7,1.1-3.9,1.7-6.7,1.7s-2.5,0-3.9-.3v7.3c0,1.7.3,2.5.6,3.1.6.6,1.1.8,2.2.8v.8h-9.2v-.8c1.1,0,2-.3,2.2-.8.6-.6.6-1.7.6-3.1v-15.9c0-1.4-.3-2.5-.6-3.1-.3-.6-1.1-.8-2.2-.8,0,0,0-1.1,0-1.1ZM243.7,455.8h-3.1v11.5c.8.3,2,.6,3.1.6,2,0,3.4-.6,4.5-1.4,1.1-1.1,1.7-2.2,1.7-4.2s-.6-3.4-1.7-4.5c-1.1-1.4-2.5-2-4.5-2ZM257.7,467.5c0-3.9,1.4-7,3.9-9.5s5.9-3.9,9.8-3.9,7,1.4,9.5,3.9,3.9,5.6,3.9,9.5-1.4,7-3.9,9.5-5.9,3.9-9.8,3.9-7-1.4-9.8-3.9c-2.5-2.5-3.6-5.6-3.6-9.5ZM261.6,467.5c0,3.6.8,6.7,2.8,8.9,1.7,2.2,4.2,3.4,7,3.4s5.3-1.1,7-3.6c1.7-2.2,2.8-5.3,2.8-8.9s-.8-6.7-2.8-9.2c-1.7-2.2-4.2-3.4-7-3.4s-5.3,1.1-7.3,3.4c-1.7,2.8-2.5,5.9-2.5,9.5ZM297.4,468.7h-2v7c0,1.4.3,2.5.6,3.1.6.6,1.1.8,2.2.8v.8h-9.2v-.8c1.1,0,2-.3,2.2-.8s.6-1.7.6-3.1v-15.9c0-1.4-.3-2.5-.6-3.1-.3-.6-1.1-.8-2.2-.8v-.8h10.6c2.5,0,4.8.6,6.1,2,1.7,1.1,2.2,2.8,2.2,4.8,0,3.1-1.7,5.3-5.3,6.1.8.6,1.4,1.1,2.2,2s1.7,2.2,2.8,4.2c1.4,2.2,2.5,3.6,3.1,4.5.8.6,1.7,1.1,2.2,1.1v.8h-5.3c-1.1-1.4-2.5-3.1-3.9-5.6-1.7-2.5-2.8-4.2-3.9-5-.6-.8-1.4-1.1-2.5-1.1ZM297.9,455.8h-2.8v11.7h3.1c2,0,3.4-.6,4.5-1.7s1.7-2.5,1.7-4.2-.6-3.1-1.7-4.2c-1.1-1.1-2.8-1.7-4.8-1.7ZM330.3,480.4v-.8c1.4,0,2.2-.6,2.2-1.4s0-.6-.3-1.1l-2.2-7h-8.1l-1.7,5c-.6,1.4-.6,2.2-.6,2.8,0,1.1.6,1.7,2,1.7v.8h-6.7v-.8c.8,0,1.7-.6,2.2-.8.6-.6,1.1-1.4,1.7-3.1l7-21h2.5l7.5,22.1c.6,1.4.8,2.2,1.4,2.5.6.3,1.1.6,2.2.6v.8h-9.2v-.3ZM322.5,468.7h7.3l-3.6-10.9-3.6,10.9ZM358.6,456.1h-3.9v19.6c0,1.7.3,2.5.6,3.1.3.6,1.1.8,2.2.8v.8h-8.9v-.8c1.1,0,2-.3,2.2-.8.3-.6.6-1.7.6-3.1v-19.6h-3.6c-1.7,0-3.1.3-3.9.8-.8.6-1.1,1.4-1.4,2.8h-.8v-5.9h.8c.6.6,2,.8,3.9.8h13.4c2,0,3.4-.3,4.2-.8h.8v5.9h-.6c-.3-1.4-.8-2.2-1.7-2.8-1.1-.6-2.2-.8-3.9-.8ZM383.4,464.5h.8v6.1h-.8c-.3-1.1-.6-1.7-1.1-2-.3-.3-1.1-.3-2.5-.3h-6.4v9.2c0,.6,0,1.1.3,1.4s.8.3,1.4.3h4.5c1.7,0,2.8,0,3.4-.3s1.1-.6,1.7-.8c.6-.6.8-1.1,1.4-2.2h.8l-1.1,4.8h-18.4v-.8c1.1,0,2-.3,2.2-.8.3-.6.6-1.7.6-3.1v-15.9c0-1.7-.3-2.5-.6-3.1s-1.1-.8-2.2-.8v-.8h18.4v4.2h-.6c-.3-1.1-.6-2-1.1-2.5-.6-.3-1.4-.6-3.1-.6h-7.3v10.9h7.3c.8,0,1.7-.3,2-.6,0-.6.3-1.1.6-2.2ZM401,467.5c0-3.9,1.4-7,3.9-9.5s5.9-3.9,9.8-3.9,7,1.4,9.5,3.9,3.9,5.6,3.9,9.5-1.4,7-3.9,9.5-5.9,3.9-9.8,3.9-7-1.4-9.8-3.9-3.6-5.6-3.6-9.5ZM405,467.5c0,3.6.8,6.7,2.8,8.9,1.7,2.2,4.2,3.4,7,3.4s5.3-1.1,7-3.6c1.7-2.2,2.8-5.3,2.8-8.9s-.8-6.7-2.8-9.2c-1.7-2.2-4.2-3.4-7-3.4s-5.3,1.1-7.3,3.4c-1.7,2.8-2.5,5.9-2.5,9.5ZM445.5,468.1h-6.7v7.5c0,1.4.3,2.5.6,3.1.6.6,1.1.8,2.2.8v.8h-9.2v-.8c1.1,0,2-.3,2.2-.8.6-.6.6-1.7.6-3.1v-15.9c0-1.7-.3-2.5-.6-3.1s-1.1-.8-2.2-.8v-.8h17.6v4.5h-.6c-.3-1.4-.6-2.2-1.1-2.8-.6-.6-1.4-.6-3.1-.6h-6.4v10.6h6.7c.8,0,1.7-.3,2-.6.6-.6.8-1.1.8-2.2h.6v7.3h-.6c0-2-1.1-3.1-2.8-3.1ZM465.9,468.1h-6.7v7.5c0,1.4.3,2.5.6,3.1.6.6,1.1.8,2.2.8v.8h-9.2v-.8c1.1,0,2-.3,2.2-.8.6-.6.6-1.7.6-3.1v-15.9c0-1.7-.3-2.5-.6-3.1s-1.1-.8-2.2-.8v-.8h17.6v4.5h-.6c-.3-1.4-.6-2.2-1.1-2.8-.6-.6-1.4-.6-3.1-.6h-6.4v10.6h6.7c.8,0,1.7-.3,2-.6.6-.6.8-1.1.8-2.2h.6v7.3h-.6c0-2-.8-3.1-2.8-3.1ZM482.1,455v.8c-1.1,0-2,.3-2.2.8-.6.6-.6,1.7-.6,3.1v15.9c0,1.4.3,2.5.6,3.1.6.6,1.1.8,2.2.8v.8h-9.2v-.8c1.1,0,2-.3,2.2-.8s.6-1.7.6-3.1v-15.9c0-1.7-.3-2.5-.6-3.1-.3-.6-1.1-.8-2.2-.8v-.8s9.2,0,9.2,0ZM508.6,454.4v7.5h-.8c-.6-2.2-1.7-4.2-3.1-5.3s-3.1-1.7-5.3-1.7-5.3,1.1-7,3.1-2.5,4.8-2.5,8.4.8,7,2.8,9.2c1.7,2.2,4.2,3.4,7,3.4s7-2,8.9-5.6l.6.6c-.8,2-2.2,3.6-4.2,4.8s-4.2,1.7-6.4,1.7-4.5-.6-6.4-1.7c-2-1.1-3.4-2.5-4.5-4.5-1.1-2-1.7-4.2-1.7-6.7,0-4.2,1.1-7.5,3.6-10.1,2.5-2.8,5.6-3.9,9.5-3.9s2.8.3,4.8.6c1.1.3,2,.3,2.2.3.6,0,1.1-.3,1.4-.8h1.1v.8ZM528.5,464.5h.8v6.1h-.8c-.3-1.1-.6-1.7-1.1-2-.3-.3-1.1-.3-2.5-.3h-6.4v9.2c0,.6,0,1.1.3,1.4s.8.3,1.4.3h4.5c1.7,0,2.8,0,3.4-.3s1.1-.6,1.7-.8c.6-.6.8-1.1,1.4-2.2h.8l-1.1,4.8h-18.4v-.8c1.1,0,2-.3,2.2-.8s.6-1.7.6-3.1v-15.9c0-1.7-.3-2.5-.6-3.1-.3-.6-1.1-.8-2.2-.8v-.8h18.4v4.2h-.6c-.3-1.1-.6-2-1.1-2.5-.6-.3-1.4-.6-3.1-.6h-7.3v10.9h7.3c.8,0,1.7-.3,2-.6.3-.6.6-1.1.6-2.2ZM545.2,455h9.2c3.1,0,5.6.6,7.3,2s2.8,3.1,2.8,5.3-.8,3.6-2.2,5c-1.7,1.1-3.9,1.7-6.7,1.7s-2.5,0-3.9-.3v7.3c0,1.7.3,2.5.6,3.1.6.6,1.1.8,2.2.8v.8h-9.2v-.8c1.1,0,2-.3,2.2-.8.6-.6.6-1.7.6-3.1v-15.9c0-1.4-.3-2.5-.6-3.1-.3-.6-1.1-.8-2.2-.8v-1.1h0ZM554.7,455.8h-3.1v11.5c.8.3,2,.6,3.1.6,2,0,3.4-.6,4.5-1.4,1.1-1.1,1.7-2.2,1.7-4.2s-.6-3.4-1.7-4.5c-.8-1.4-2.5-2-4.5-2ZM582.4,480.4v-.8c1.4,0,2.2-.6,2.2-1.4s0-.6-.3-1.1l-2.2-7h-8.1l-1.7,5c-.6,1.4-.6,2.2-.6,2.8,0,1.1.6,1.7,2,1.7v.8h-6.7v-.8c.8,0,1.7-.6,2.2-.8.6-.6,1.1-1.4,1.7-3.1l7-21h2.5l7.5,22.1c.6,1.4.8,2.2,1.4,2.5.6.3,1.1.6,2.2.6v.8h-9.2v-.3ZM574.3,468.7h7.3l-3.6-10.9-3.6,10.9ZM602.2,468.7h-2v7c0,1.4.3,2.5.6,3.1.6.6,1.1.8,2.2.8v.8h-9.2v-.8c1.1,0,2-.3,2.2-.8s.6-1.7.6-3.1v-15.9c0-1.4-.3-2.5-.6-3.1-.3-.6-1.1-.8-2.2-.8v-.8h10.6c2.5,0,4.8.6,6.1,2,1.7,1.1,2.2,2.8,2.2,4.8,0,3.1-1.7,5.3-5.3,6.1.8.6,1.4,1.1,2.2,2s1.7,2.2,2.8,4.2c1.4,2.2,2.5,3.6,3.1,4.5.8.6,1.7,1.1,2.2,1.1v.8h-5.3c-1.1-1.4-2.5-3.1-3.9-5.6-1.7-2.5-2.8-4.2-3.9-5-.3-.8-1.4-1.1-2.5-1.1ZM603.1,455.8h-2.8v11.7h3.1c2,0,3.4-.6,4.5-1.7,1.1-1.1,1.7-2.5,1.7-4.2s-.6-3.1-1.7-4.2c-1.4-1.1-2.8-1.7-4.8-1.7ZM620.7,480.4v-.8c1.1,0,2-.3,2.2-.8s.6-1.7.6-3.1v-15.9c0-1.7-.3-2.5-.6-3.1-.3-.6-1.1-.8-2.2-.8v-.8h9.2v.8c-1.1,0-2,.3-2.2.8-.3.6-.6,1.7-.6,3.1v7.8l8.4-8.1c.8-.8,1.4-1.7,1.4-2.2,0-.8-.6-1.1-1.7-1.4v-.8h9.8v.8h-1.4c-.8,0-1.7.3-2.8.8-1.1.6-2,1.1-2.8,2l-7.8,7.8,10.6,10.6c1.1,1.1,2,1.7,2.5,2,.6.3,1.4.6,2.5.6v.8h-6.1l-12.3-12.6v7.8c0,1.4.3,2.5.6,3.1.3.6,1.1.8,2.2.8v.8h-9.5ZM621.8,369.7h-7v41.6c0,2.2.6,3.9,2,5,1.4.8,3.6,1.4,6.7,1.4,6.1,0,11.2-2,14.5-6.1,3.4-4.2,5-10.1,5-17.6s-2-13.4-5.6-17.6c-3.6-4.5-8.9-6.7-15.6-6.7ZM596.1,420.9v-1.7c2.8-.8,4.8-1.7,5.6-2.5s1.4-3.1,1.4-6.1v-34.7c0-2.5-.6-4.2-1.4-5s-2.8-2-5.6-2.5v-1.7h27.7c10.1,0,17.9,2.5,23.8,7.5,5.9,5,8.7,11.7,8.7,20.1s-2.5,14.5-7.8,19.3c-5.3,4.8-12.3,7.3-21.2,7.3,0,0-31,0-31,0ZM170.2,370.3h-8.1v40.8c0,3.1.3,5.3,1.1,6.4s2.2,1.7,4.5,1.7v1.7h-18.7v-1.7c2.2,0,3.9-.6,4.8-2s1.4-3.4,1.4-6.4v-40.5h-7.5c-3.6,0-6.4.6-8.1,1.7s-2.5,3.1-2.8,5.9h-1.4v-12h1.7c1.4,1.4,4.2,2,7.8,2h27.7c3.9,0,6.7-.6,8.4-2h1.7v12h-1.1c-.6-2.8-2-5-3.6-5.9-1.4-1.1-4.2-1.7-7.5-1.7ZM230,410.8v-15.4h-28.8v15.4c0,3.1.6,5.3,1.4,6.4s2.5,2,4.8,2v1.7h-19.3v-1.7c2.2,0,3.9-.6,4.8-2,.8-1.4,1.4-3.4,1.4-6.4v-33c0-3.4-.6-5.6-1.4-6.7s-2.5-1.7-4.8-1.7v-1.4h19.3v1.4c-2.2,0-3.9.6-4.8,2-.8,1.1-1.4,3.4-1.4,6.4v15.1h28.8v-15.1c0-3.4-.6-5.6-1.4-6.7s-2.2-1.7-4.8-1.7v-1.4h19.3v1.4c-2.2,0-3.9.6-4.8,2-.8,1.1-1.4,3.4-1.4,6.7v33c0,3.1.6,5.3,1.4,6.7.8,1.1,2.5,1.7,4.8,1.7v1.7h-19v-1.7c2.2,0,3.9-.6,4.8-1.7.8-1.7,1.1-3.9,1.1-7ZM283.4,387.9h1.7v12.9h-1.7c-.6-2.2-1.4-3.6-2-4.2-.8-.6-2.5-.8-5.3-.8h-13.4v19c0,1.4.3,2.2.8,2.8s1.7.8,3.1.8h9.2c3.4,0,5.6-.3,7-.6s2.2-1.1,3.1-2c.8-1.1,1.7-2.5,2.8-4.8h1.7l-2.5,9.8h-38v-1.7c2.5,0,3.9-.6,4.8-1.7s1.1-3.4,1.1-6.4v-33.3c0-3.4-.6-5.3-1.4-6.7-.8-1.1-2.5-1.7-4.8-1.7v-1.4h38.3v8.9h-1.1c-.6-2.5-1.4-4.2-2.2-5-1.1-.8-3.1-1.4-6.4-1.4h-15.4v22.6h14.8c2,0,3.4-.3,4.2-1.1.8-.8,1.4-2.2,1.7-4.2ZM349.9,365.3v14.3h-1.4c-1.1-3.1-2.8-5.9-5.6-7.8-2.5-2.2-5.3-3.4-7.8-3.4s-4.5.8-6.4,2.2c-1.7,1.4-2.5,3.1-2.5,5.3s.3,2,.6,3.1c.6.8,1.1,2,2,2.8.8.8,3.6,2.8,8.4,5.6s7.8,5,9.2,6.1c1.4,1.1,2.8,2.5,3.9,4.5,2,2.8,2.8,5.9,2.8,8.9,0,4.8-1.7,8.7-5,11.5-3.4,2.8-7.5,4.2-12.3,4.2s-5.6-.6-9.2-1.4c-2-.6-3.4-.8-3.9-.8-1.4,0-2.2.6-2.8,1.7h-1.7v-16.5h1.7c.8,4.2,2.5,7.5,5,10.1s5.6,3.6,9.5,3.6,5.3-.8,7.3-2.2,2.8-3.4,2.8-5.6-.6-3.6-1.7-5c-1.1-1.7-4.5-3.9-9.8-7.3-4.8-2.8-8.1-5-9.5-6.7-1.7-1.7-2.8-3.4-3.6-5.3-.8-2-1.1-3.9-1.1-6.1,0-4.8,1.7-8.4,4.8-11.5s7.3-4.5,12.3-4.5,3.4.3,5.6.8c2.2.6,3.6.8,4.5.8s1.7-.6,2.8-1.4c0,0,1.4,0,1.4,0ZM395.7,419.2v1.7h-25.4v-1.7c2.8-.6,4.5-1.4,5.3-2.2.8-1.1,1.4-3.1,1.4-5.9v-41.4h-5.3c-3.4,0-5.9.8-7.8,2.2-2,1.4-3.4,3.6-4.2,6.7h-1.7l.6-13.1h1.7c1.1.8,3.1,1.1,5.3,1.1h34.9c2.5,0,4.2-.3,5.3-1.1h1.7l.6,13.1h-1.4c-.8-3.1-2.2-5.3-4.2-6.7s-4.5-2.2-7.8-2.2h-5.3v41.4c0,2.5.6,4.5,1.4,5.6.6,1.4,2.5,2.2,5,2.5ZM411.7,420.9v-1.7c4.5-.3,7-2.8,7-7v-36.6c0-2.5-.6-4.2-1.4-5.3-.8-.8-2.8-1.7-5.3-2.2v-1.7h25.7c6.7,0,12,1.1,15.6,3.6,3.6,2.5,5.6,5.6,5.6,10.1s-.8,5.9-2.8,8.1-4.5,3.9-8.1,4.8c1.4.6,2.5,1.7,4.2,3.4,1.4,1.7,3.6,5.3,6.4,10.6,2.8,5,4.8,8.4,5.9,9.8,1.4,1.4,3.1,2.2,5,2.5v1.7h-15.6c-2-2.5-4.8-6.7-7.8-13.1-2.2-4.5-3.9-7.3-5-8.7s-2.2-2.5-3.4-3.1c-1.1-.6-3.4-.8-7-.8v16.5c0,2.5.6,4.2,1.7,5.3s2.8,2,5.3,2.2v1.7s-26,0-26,0ZM434,369.7h-3.6v22.1h2.5c4.2,0,7.5-.8,9.5-2.8,2-2,3.1-4.8,3.1-8.9,0-6.7-3.9-10.3-11.5-10.3ZM503.9,420.9v-1.7c2.2-.6,3.9-.8,4.8-1.7.8-.6,1.4-1.4,1.4-2.5s-.3-2.2-1.1-4.2l-3.1-8.4h-19.3l-2.8,7.3c-.6,2-1.1,3.4-1.1,4.5,0,2.5,1.7,3.9,5.3,5v1.7h-17.6v-1.7c2.2-.3,3.9-1.4,5.6-3.4,1.7-2,3.1-4.8,4.8-8.9l15.6-41.6h7.5l16.5,43.3c1.4,3.9,3.1,6.4,4.5,8.1,1.4,1.4,3.4,2.2,5.6,2.5v1.7s-26.5,0-26.5,0ZM488.2,398.8h16.2l-8.1-22.1-8.1,22.1ZM573.7,368.3v-1.7h18.2v1.7c-5.3.3-7.8,3.4-7.8,8.9v44.4h-1.7l-39.1-44.2v33c0,2.8.6,5,1.7,6.1,1.1,1.1,3.1,2,6.4,2.5v1.7h-18.7v-1.7c2.5-.3,4.5-1.1,5.3-2.5,1.1-1.4,1.7-3.4,1.7-6.1v-36.9c-2.2-2.2-3.6-3.6-4.5-4.2s-1.7-1.1-2.8-1.1v-1.7h16.2l31.6,36.3v-24.3c0-3.6-.6-6.1-1.4-7.5-.6-1.4-2.5-2.2-5-2.8Z"/>
</svg>