<?xml version="1.0" encoding="UTF-8"?>
<svg id="Layer_1" xmlns="http://www.w3.org/2000/svg" version="1.1" viewBox="0 0 793.7 595.3">
  <!-- Generator: Adobe Illustrator 30.0.0, SVG Export Plug-In . SVG Version: 2.1.1 Build 123)  -->
  <defs>
    <style>
      .st0 {
        fill: #706f6f;
      }
    </style>
  </defs>
  <path class="st0" d="M173.5,438.1v5.1h-46.8v-5.1h46.8ZM159.6,364.3v-185.3l-23.2,15.1-9.8-7.1,45.4-32.9v222.7h-45.6c0,.1,0-12.5,0-12.5h33.2ZM387.9,184.5c22.4,22.3,33.6,49.2,33.6,80.7s-11.2,58.6-33.6,81c-22.3,22.3-49.2,33.4-80.8,33.4-31.5,0-58.5-11.1-80.8-33.4-22.3-22.4-33.4-49.4-33.4-81s11.1-58.4,33.4-80.7c22.4-22.4,49.3-33.6,80.8-33.6s58.6,11.2,80.8,33.6ZM307.1,163.7c-27.9,0-51.8,9.9-71.7,29.8-19.9,19.9-29.8,43.8-29.8,71.7s9.9,52,29.8,71.8c19.9,19.9,43.7,29.8,71.7,29.8s52-9.9,71.8-29.8c19.9-19.9,29.8-43.8,29.8-71.8s-9.9-51.8-29.8-71.7c-19.9-19.9-43.8-29.8-71.8-29.8ZM635.7,184.5c22.4,22.3,33.6,49.2,33.6,80.7s-11.2,58.6-33.6,81c-22.3,22.3-49.2,33.4-80.8,33.4-31.5,0-58.5-11.1-80.8-33.4-22.3-22.4-33.4-49.4-33.4-81s11.1-58.4,33.4-80.7c22.4-22.4,49.3-33.6,80.8-33.6s58.6,11.2,80.8,33.6ZM554.9,163.7c-27.9,0-51.8,9.9-71.7,29.8-19.9,19.9-29.8,43.8-29.8,71.7s9.9,52,29.8,71.8c19.9,19.9,43.7,29.8,71.7,29.8s52-9.9,71.9-29.8c19.9-19.9,29.8-43.8,29.8-71.8s-9.9-51.8-29.8-71.7c-19.9-19.9-43.8-29.8-71.9-29.8ZM244.5,397.6v46.3h-5.8v-37.6l-15.2,20-15.2-20v37.6h-5.8v-46.3h6.2l14.9,19.5,14.8-19.5h6.2ZM295.1,403.9c4.7,4.7,7,10.2,7,16.7,0,6.5-2.3,12.1-7,16.8-4.7,4.7-10.3,7-17.1,7-6.7,0-12.4-2.3-17.1-7-4.7-4.7-7-10.3-7-16.8s2.3-12,7-16.7c4.7-4.7,10.4-7,17.1-7,6.7,0,12.4,2.3,17.1,7ZM278,402c-4.9,0-9.2,1.8-12.8,5.4-3.6,3.6-5.4,8-5.4,13.2s1.8,9.6,5.4,13.2c3.6,3.6,7.9,5.4,12.8,5.4s9.2-1.8,12.8-5.4,5.4-8,5.4-13.2-1.8-9.6-5.4-13.2c-3.6-3.6-7.9-5.4-12.8-5.4ZM317.8,397.6l26.4,37v-37h5.8v46.3h-6.4l-25.7-36.1v36.1h-5.8v-46.3h5.8ZM375.8,402.6v41.2h-5.8v-41.2h-11.1v-5h27.9v5h-11ZM435.2,437.5c-4.7,4.5-10.2,6.8-16.5,6.8-6.7,0-12.4-2.3-17.1-6.9-4.6-4.7-6.9-10.2-6.9-16.7s2.3-12,6.9-16.7c4.7-4.7,10.3-7,17.1-7,6.3,0,12,2.4,17.2,7.1l-4.1,3.6c-4.2-3.8-8.6-5.6-13.2-5.6-4.9,0-9.2,1.8-12.8,5.4-3.6,3.6-5.4,8-5.4,13.2s1.8,9.6,5.4,13.2c3.6,3.6,7.9,5.4,12.8,5.4s7.8-1.2,10.7-3.5v-14.1h5.8v15.9ZM485.8,403.9c4.7,4.7,7,10.2,7,16.7,0,6.5-2.3,12.1-7,16.8-4.7,4.7-10.3,7-17.1,7-6.7,0-12.4-2.3-17.1-7-4.7-4.7-7-10.3-7-16.8s2.3-12,7-16.7c4.7-4.7,10.4-7,17.1-7,6.7,0,12.4,2.3,17.1,7ZM468.7,402c-4.9,0-9.2,1.8-12.8,5.4-3.6,3.6-5.4,8-5.4,13.2s1.8,9.6,5.4,13.2c3.6,3.6,7.9,5.4,12.8,5.4s9.2-1.8,12.8-5.4c3.6-3.6,5.4-8,5.4-13.2s-1.8-9.6-5.4-13.2c-3.6-3.6-7.9-5.4-12.8-5.4ZM544.4,397.6v46.3h-5.8v-37.6l-15.2,20-15.2-20v37.6h-5.8v-46.3h6.2l14.9,19.5,14.8-19.5h6.2ZM580.6,397.6v5h-19.4v15.6h19.4v5h-19.4v15.6h19.4v5h-25.2v-46.3h25.2ZM598,402.7v21h5.7c2.7,0,5.1-1,7.1-3,2-2,3-4.5,3-7.5,0-3-1-5.5-3-7.5-2-2-4.4-3-7.1-3h-5.7ZM603.4,428.7h-5.4v15.1h-5.8v-46.3h13.2c3.9.5,7.1,2.1,9.7,4.7,3,3,4.5,6.6,4.5,10.8s-1.6,7.9-4.7,11c-2.1,2.1-3.9,3.3-5.5,3.7l10.4,16h-6.7l-9.7-15.1ZM643.4,425.1l-15.9-27.6h6.4l12.4,21.4,12.3-21.4h6.4l-15.9,27.6v18.7h-5.8v-18.7ZM136.4,407.7c3.4,0,6.2,1.2,8.5,3.5,2.3,2.3,3.4,5.1,3.4,8.3,0,3.2-1.1,5.9-3.4,8.2-2.3,2.3-5.1,3.5-8.5,3.5s-6.2-1.2-8.5-3.5c-2.3-2.3-3.5-5.1-3.5-8.2s1.2-5.9,3.5-8.3c2.3-2.3,5.2-3.5,8.5-3.5ZM131,413.7c-1.5,1.5-2.3,3.4-2.3,5.7s.8,4.1,2.3,5.7,3.3,2.3,5.4,2.3,3.9-.8,5.4-2.3c1.5-1.5,2.3-3.4,2.3-5.7,0-2.3-.8-4.2-2.3-5.7-1.5-1.5-3.3-2.3-5.4-2.3-2.1,0-3.9.8-5.4,2.3ZM158.7,414.8v15.8h-4.2v-21.1h4.2c.7-.8,2.2-1.2,4.4-1.2,2.7,0,4.8.8,6.5,2.5,1.6,1.6,2.5,3.6,2.5,6v13.9h-4.2v-13.7c0-1.4-.5-2.6-1.5-3.6-1-1-2.1-1.4-3.3-1.4-1.2,0-2.3.4-3.3,1.3-.5.5-.9,1.1-1.1,1.5Z"/>
</svg>