<?xml version="1.0" encoding="UTF-8"?>
<svg id="Layer_1" xmlns="http://www.w3.org/2000/svg" version="1.1" viewBox="0 0 793.7 595.3">
  <!-- Generator: Adobe Illustrator 30.0.0, SVG Export Plug-In . SVG Version: 2.1.1 Build 123)  -->
  <defs>
    <style>
      .st0 {
        fill: #a0a14f;
      }

      .st1 {
        fill: #004b36;
      }
    </style>
  </defs>
  <path class="st0" d="M450.4,398.4h8.8c.2,0,.3-.1.2-.3l-4.3-11.2c0-.2-.1-.4-.2-.4-.2,0-.2.3-.3.4l-4.4,11.1c-.1.2,0,.3.2.3ZM460.2,400.9h-10.7c-.3,0-.3,0-.4.3l-2.4,5.9c-.5,1.1-.7,2.2-.7,2.7,0,.8.4,1.2,1.8,1.2h.7c.6,0,.7.2.7.5s-.3.5-.7.5c-1.5,0-3.6-.2-5.1-.2s-2.9.2-5.3.2-.8-.1-.8-.5.2-.5.5-.5.9,0,1.3,0c2.1-.3,2.8-1.7,3.8-3.9l11.9-27.7c.5-1.2.9-1.8,1.3-1.8.7,0,.9.4,1.3,1.4,1.1,2.4,8.7,20.4,11.6,27.1,1.8,4,3.1,4.5,3.9,4.7.7.1,1.2.2,1.7.2s.6.2.6.5-.3.5-2,.5-4.9,0-8.7-.1c-.8,0-1.3,0-1.3-.4s.1-.4.6-.5c.3,0,.6-.5.4-1l-3.5-8.9c-.1-.3-.3-.3-.5-.3ZM412.7,391.4v7.8c0,5.6,0,8.4,1,9.3.8.7,2.5.9,6.1.9s4.2,0,5.3-1.2c.6-.6,1-1.8,1.1-2.6,0-.4.2-.7.5-.7s.4.5.4,1-.3,3.8-.7,5.1c-.3,1-.5,1.2-2.9,1.2s-5.9,0-8.2-.2c-2.3,0-4.2-.1-6.1-.1s-1.5,0-2.6,0c-1.1,0-2.2.1-3.2.1s-.9-.2-.9-.5.2-.5.7-.5,1.2,0,1.6-.2c.9-.2,1.2-1,1.3-2.3.2-1.9.2-5.3.2-9.4v-7.8c0-6.7,0-7.9,0-9.3-.1-1.5-.5-2-2-2.4-.4-.1-.9-.2-1.5-.2s-.8-.2-.8-.5.3-.4,1-.4c2.1,0,5,.1,6.3.1s4.8-.1,6.6-.1,1,.1,1,.4-.3.5-.8.5-1.2,0-1.8.2c-1.2.2-1.6.8-1.7,2.4-.1,1.4-.1,2.6-.1,9.3ZM372.7,391.4v7.8c0,5.6,0,8.4,1,9.3.8.7,2.5.9,6.1.9s4.2,0,5.3-1.2c.6-.6,1-1.8,1.1-2.6,0-.4.2-.7.5-.7s.4.5.4,1-.3,3.8-.7,5.1c-.3,1-.5,1.2-2.9,1.2s-5.9,0-8.2-.2c-2.3,0-4.2-.1-6.1-.1s-1.5,0-2.6,0c-1.1,0-2.2.1-3.2.1s-.9-.2-.9-.5.2-.5.7-.5,1.2,0,1.6-.2c.9-.2,1.2-1,1.3-2.3.2-1.9.2-5.3.2-9.4v-7.8c0-6.7,0-7.9,0-9.3-.1-1.5-.5-2-2-2.4-.4-.1-.9-.2-1.5-.2s-.8-.2-.8-.5.3-.4,1-.4c2.1,0,5,.1,6.3.1s4.8-.1,6.6-.1,1,.1,1,.4-.3.5-.8.5-1.2,0-1.8.2c-1.2.2-1.6.8-1.7,2.4-.1,1.4-.1,2.6-.1,9.3ZM334.2,399.2v-7.8c0-6.7,0-7.9,0-9.3-.1-1.5-.6-2-1.6-2.3-.5-.2-1.1-.2-1.7-.2s-.7-.1-.7-.5.4-.4,1.1-.4c1.7,0,4.8.1,6.1.1s4.1-.1,5.8-.1.9.1.9.4c0,.4-.3.5-.7.5s-.8,0-1.3.2c-1.2.2-1.6.8-1.7,2.4-.1,1.4-.1,2.6-.1,9.3v7.8c0,4.2,0,7.8.2,9.6.2,1.2.5,1.9,1.8,2.1.6.1,1.7.2,2.3.2s.7.3.7.5c0,.3-.4.5-.9.5-3,0-6.1-.2-7.3-.2s-4.1.2-6,.2-.9-.2-.9-.5.2-.5.7-.5,1.2,0,1.6-.2c.9-.2,1.2-.8,1.3-2.1.2-1.8.2-5.3.2-9.6ZM297,409.9l-11.5-26.9c-1-2.4-1.7-2.8-3.4-3.3-.7-.2-1.4-.2-1.8-.2s-.5-.2-.5-.5.5-.4,1.1-.4c2.4,0,5,.1,6.6.1s3.5-.1,5.8-.1,1.1.1,1.1.4-.3.5-.7.5c-.7,0-1.4,0-1.8.3-.3.2-.5.5-.5.9s.4,1.8,1,3.3l7.7,19.7h.2c2-4.6,7.8-18.7,8.9-21.6.2-.6.4-1.2.4-1.6s-.2-.6-.6-.8c-.5-.2-1.2-.2-1.8-.2s-.8-.2-.8-.5.4-.4,1.3-.4c2.3,0,4.3.1,4.9.1s2.9-.1,4.3-.1.9.1.9.4-.3.5-.7.5-1.4,0-2.2.5c-.6.4-1.2,1.1-2.4,3.9-1.8,4.1-3,6.5-5.5,11.9-2.9,6.4-5,11.2-6.1,13.5-1.1,2.5-1.6,3.2-2.2,3.2s-1-.6-1.9-2.6ZM265.1,394.3l-4.5,4.5-88.1-4.5,88.1-4.5,4.5,4.5ZM525.6,394.3l4.5-4.5,88.1,4.5-88.1,4.5-4.5-4.5ZM439.1,249.5c3,.2,6.7,2.4,6.7,6.8s-.1,1.6-.4,2.3c1.1,1.3,1.8,2.9,1.8,4.7,0,4-3.2,7.2-7.2,7.2h-85.8c-4,0-7.2-3.2-7.2-7.2s.7-3.5,1.8-4.7c-.3-.7-.4-1.5-.4-2.3,0-4.4,3.8-6.6,6.7-6.8v-2c-1.4.2-2.8.3-4.2.3-33-1.2-37.8-45.3-3.4-55.1-.3-.8-.5-1.7-.5-2.7,0-4,3.2-7.2,7.2-7.2h85.8c4,0,7.2,3.2,7.2,7.2s-.2,1.8-.5,2.7c34.5,9.8,29.6,53.8-3.4,55.1-1.4,0-2.8,0-4.2-.3v2.1ZM390.6,220.5l-3.6-3.1v3c0,0,3.6,0,3.6,0ZM403.6,220.5h3.5c0,0,0-3.1,0-3.1l-3.6,3.1ZM382,207.7c-.5.8-1,1.6-1.6,2.3l1.2,5.6-3.3-3.7c-.6.4-1.4.8-2.2,1.1,2,3.2,3.3,6.2,8.8,7.4.7-7.7-2-11.1-2.9-12.7ZM412.2,207.7c-.9,1.5-3.6,4.9-2.9,12.7,5.5-1.1,6.8-4.2,8.8-7.4-.8-.3-1.6-.6-2.2-1.1l-3.3,3.7,1.2-5.6c-.6-.7-1.1-1.5-1.6-2.3ZM405,251.5v-24.7s-6.2,24.7-6.2,24.7h6.2ZM408,226.8l-.2,24.7,8.5-24.7h-3l-2.9,8.5v-8.5c0,0-2.3,0-2.3,0ZM419.8,251.5v-24.7s-8.4,24.7-8.4,24.7h2.7s3.3-9.6,3.3-9.6v9.6s2.4,0,2.4,0ZM422.4,251.5h2.4s0-6.6,0-6.6l2.9,6.6h2.5s-7.7-17.4-7.7-17.4v17.4ZM434,243l-7.9-4.5,7.9,13.3v-8.7ZM389.2,251.5h6.2s-6.2-24.7-6.2-24.7v24.7ZM386.2,226.8h-2.4v8.5c0,0-2.8-8.5-2.8-8.5h-3l8.5,24.7-.2-24.7ZM374.4,251.5h2.5s0-9.6,0-9.6l3.3,9.6h2.7s-8.5-24.7-8.5-24.7v24.7ZM371.8,251.5v-17.4s-7.7,17.4-7.7,17.4h2.5s2.9-6.6,2.9-6.6v6.6s2.4,0,2.4,0ZM360.2,243v8.7l7.9-13.3-7.9,4.5ZM420,213.6c-1.1,0-2,.9-2,2s.9,2,2,2,2-.9,2-2-.9-2-2-2ZM374.2,213.6c-1.1,0-2,.9-2,2s.9,2,2,2,2-.9,2-2-.9-2-2-2ZM397.1,203.9c-9.3,0-3,13.2,0,15.5,3-2.2,9.3-15.5,0-15.5ZM388.2,202.4c-.6,0-1.1.2-.8,1.3-.5,0-2.3,0-2,3,.6,6.1,2.5,9,7.6,12.5-1.9-4.5-3.9-5.8-3.1-12.6.2-1.9-.5-3-1.4-3.3h17.2c-.9.3-1.6,1.3-1.4,3.3.8,6.8-1.2,8.1-3.1,12.6,5.1-3.5,7-6.4,7.6-12.5.3-3-1.5-3-2-3,.4-1.3-.4-1.3-1.1-1.3h-17.5ZM362.3,195.4c-19.2,0-33.3,10-33.6,25.7-.2,13,12.1,20.9,22.4,21.3,10.8.4,20.5-10.1,21-18.3.6-9.8-8.2-15.8-15.7-16.1-8.5-.3-14.1,5.3-14.2,14.3,0,6.9,6.4,10.1,11.4,10.3,4.6.3,10-4.5,10.6-9.1.5-3.7-4.1-7.9-8.3-7.6-3.3.2-7.3,2.9-7.3,6.7,0,2.6,3.2,5,6,5.1-3.2-1.8-3.6-2.9-3.4-4.4.2-2,1.6-3.7,4.6-4,2.7-.2,4.6,1.5,4.4,4.4-.2,2.8-2.3,5.3-6.5,5.3-3.5,0-7.9-3.5-7.8-7,.2-6.3,5.7-9.6,10.4-9.4,6.8.4,11,5.8,10.6,11.4-.6,7.3-7.1,13.3-15.4,13.5-7.9.2-17.4-6.6-17-16.7.6-17.3,18.4-21.1,27.6-21.1h3.1c-4.5.5-8.5,3.1-11.9,7.4,3.2-1.8,6.5-2.5,8.5-1.8,3.6,1.3,3.2,6.8,11.2,6.7-3-1.4-3.8-2.4-5.8-5.2,6.2,3.8,7.6,5.6,12.8,1-3.8.5-5.5-.4-8.9-2.8-2.2-1.5-3.9-.9-5.7-1.3,2-.2,3.9-1,6.7.9,2.9,2,5.9,3.3,9.4,2,2.3-.9,4.9-3.6,2.1-5.2-1.3-.8-2.6,1.2-1.3,2-.8,1.6-3,.6-6.1-1-2.7-1.5-5.2-2.3-7.7-2.6h57.5c-2.4.3-4.9,1.1-7.6,2.6-3.1,1.7-5.3,2.7-6.1,1,1.3-.8,0-2.8-1.3-2-2.8,1.6-.1,4.4,2.1,5.2,3.5,1.3,6.5,0,9.4-2,2.8-1.9,4.7-1.2,6.7-.9-1.8.5-3.5-.2-5.7,1.3-3.5,2.4-5.1,3.3-8.9,2.8,5.1,4.6,6.5,2.9,12.8-1-1.9,2.8-2.7,3.8-5.8,5.2,8,.2,7.6-5.3,11.2-6.7,1.9-.7,5.3,0,8.5,1.8-3.5-4.3-7.5-6.9-12-7.4h3.1c9.2,0,26.9,3.8,27.6,21.1.4,10.2-9.1,16.9-17,16.7-8.3-.2-14.8-6.2-15.4-13.5-.4-5.6,3.7-11.1,10.5-11.4,4.7-.2,10.3,3.1,10.4,9.4,0,3.5-4.3,7-7.8,7-4.1,0-6.3-2.5-6.5-5.3-.2-2.9,1.7-4.6,4.4-4.4,3,.2,4.3,2,4.5,4,.2,1.5-.2,2.6-3.4,4.4,2.8-.1,6-2.5,6-5.1,0-3.9-4-6.5-7.3-6.7-4.2-.3-8.9,3.9-8.4,7.6.6,4.6,5.9,9.3,10.6,9.1,5-.3,11.4-3.4,11.4-10.3,0-9-5.7-14.6-14.1-14.3-7.5.3-16.2,6.3-15.7,16.1.5,8.2,10.2,18.7,21,18.3,10.3-.4,22.6-8.2,22.4-21.3-.2-15.6-14.4-25.7-33.6-25.7h-69.7ZM354.2,187.5c-1.2,0-2.1.9-2.1,2.1s.9,2.1,2.1,2.1h85.8c1.2,0,2.1-.9,2.1-2.1s-.9-2.1-2.1-2.1h-85.8ZM354.2,260.8c-1.2,0-2.1.9-2.1,2.1s.9,2.1,2.1,2.1h85.8c1.2,0,2.1-.9,2.1-2.1s-.9-2.1-2.1-2.1h-85.8ZM374.9,222.1c-1.2,0-2.1.6-2.1,1.3s.9,1.3,2.1,1.3h44.4c1.2,0,2.1-.6,2.1-1.3s-.9-1.3-2.1-1.3h-44.4ZM355.5,254.2c-1.1,0-2,.8-2,1.8s.9,1.8,2.1,1.8h83.1c1.2,0,2.1-.8,2.1-1.8s-.9-1.8-2.1-1.8h-83.2ZM401.9,226.8h-2.6l-2.1,8.9-2.2-8.9h-2.8l5,20.1,4.7-20.1ZM496,412.5c-2.6,0-5.4-.3-7.4-1.1-.7-.3-.9-.5-.9-1.5,0-2.4.2-5.1.3-5.8,0-.7.2-1.1.6-1.1s.5.4.5.7c0,.6.2,1.5.4,2.3,1,3.3,4.4,4.3,7.2,4.3s6.3-2.5,6.3-5.6-.5-3.8-4.5-6.2l-2.6-1.6c-5.4-3.2-7.1-6.1-7.1-10s5.2-8.8,11.5-8.8,5.3.4,6.5.7c.4.1.6.3.6.6,0,.6-.2,1.8-.2,5.3s-.2,1.4-.6,1.4-.5-.3-.5-.8-.2-1.8-1.2-2.9c-.7-.8-2.1-2.1-5.1-2.1s-6.2,1.7-6.2,4.7.7,3.5,4.8,5.8l1.9,1c6,3.3,7.9,6.7,7.9,10.7s-1.2,5.9-4.6,8.2c-2.2,1.6-5.2,1.8-7.6,1.8Z"/>
  <path class="st1" d="M584.4,327c0-14.6-8.2-41.7-33.2-41.7s-15.3,3.1-20.7,8.5c6.8,6.7,10.7,16.2,10.7,27.8s-3.6,18.8-10.8,26.8c5.5,6,13.2,10.2,23.4,10.2,18.4,0,30.6-13.5,30.6-31.6ZM525.6,300.1c-3.5,5.7-5.4,12.9-5.4,20.8s2.6,17.2,7.9,24.6c3.3-5.1,5.1-11.4,5.1-18.4s-2.1-18.2-7.6-26.9ZM592.5,321.6c0,16.4-13.6,39.6-39.6,39.6s-20.4-3.2-27-8.4c-6.2,5-14.3,8.4-24.2,8.4-27.1,0-40.7-18-40.7-38s17.7-40.4,40.4-40.4,19.8,3.1,26.6,8.7c6.8-5.3,15.2-8.7,24.6-8.7,23.4,0,39.9,15.1,39.9,38.8ZM523.6,351c-7.6-7.1-11.4-17.1-11.4-27.7s4-19.6,10.7-27c-5.2-6.4-12.6-10.9-22.9-10.9-17.8,0-31,15.1-31,35.6s10.5,37.7,33.7,37.7,15.6-2.9,20.9-7.7ZM399.4,361.3l-25.3-66c-2.2-5.9-3.8-8.5-5.3-9.5-.2-.1-.5-.2-.8-.2h-.8c-.3,0-.7,0-1,0-1,0-1.8,0-2.6.2-1.3.4-2.9,1.3-4.8,2.9l-29.7,28.4,26.3,31.9c8.3,9.9,11.8,9.9,14.9,9.9s2.8-.3,3.8-.6c.1.3.1.9.3,1.3-3.2,1-6.6,1.5-9.9,1.5-5.6,0-10.7-3.7-15.2-9.1l-25-30.3h-.3v27.2c0,5.3,2.9,9.9,7.3,9.9s2-.1,3.5-.4v1.3c-1.9.7-2.3.7-5,.7s-8.5-.7-9.9-.7-8.8.7-10.2.7-1.1,0-1.5-.1c-.4,0-1,.1-1.5.1s-8.8-.6-10.5-.6-7.9.6-9.2.6-1.9,0-3.1-.1v-1.6c2.2.3,2.6.3,5.1.1,1.8-1,2.3-1.6,2.3-3.4s0-2-.6-3.7l-9.9-25.5h-23.7l-7.8,19.8c-.6,1.5-1.9,5.6-1.9,7.9s1,3.7,1.9,4.5c1.2.4,2.2.4,3.1.4h2.6v1.3c-.9.1-1,.1-2.8.1s-6.4-.6-7.9-.6c-2.5,0-6.1.6-7.6.6s-1.8,0-2.5-.1v-1.6c1.3.3,1.6.3,4.2.1,1.5-1,4.2-3.2,6.3-8.5l25.7-66.7c.1-.3.3-.6.6-.7h1.2c.3.3.6.6.7,1l26.6,68.6c1.5,3.8,1.9,4.2,3.5,5.9,1.3.6,2,.6,2.9.6s1.5,0,2.2-.1v.3c.8,0,1.5-.3,2.3-.3,5,0,6-4.7,6-9.1v-56.3c0-3.2,0-7.9-5.7-7.9s-2.5.1-3.5.3v-1.8h1c.9-.3,1.9-.3,2.5-.3,1.3,0,7.2.9,9.2.9s7.6-.9,8.9-.9,2.6,0,5.1.4v1.6c-1-.1-2-.3-2.9-.3-2,0-6.9,1.6-6.9,8.8v24l20.8-20.2c2.9-2.9,6.6-6.7,6.6-9.9s-.4-2.9-3.5-2.9-1.3,0-1.9.1v-1.3c.9-.1,1.9-.3,3.1-.3s6.9.6,8.2.6,3-.3,5.1-.4c.8,0,1.2-.1,1.9-.1h.3s.3,0,.3,0h1.3c2.6,0,7.5.6,8.6.6,1.9,0,5.7-.6,8.9-.6s2.2,0,3.8.3v1.8c-.7-.1-1.8-.3-3.1-.3l-2,.4c-.9.6-1.8,1-1.8,2.9s.4,2.5.9,3.7l20.8,54.3,12.3-31.5-8.8-22.7c-1.5-3.8-2.8-6.1-3.8-6.7-.7-.4-2.3-.4-3.7-.4s-1.9,0-2.8.1v-1.8c.7,0,1.6-.1,2.3-.1,1.3,0,7.8.6,8.5.6,2.5,0,4.8-.6,7.8-.6s2.3,0,3.1.1v1.8c-.6-.1-1.2-.1-1.6-.1-.7,0-1.3,0-1.9.1-.7.3-1.2,1-1.2,2.2s.1,1.5.4,2.3l5.9,14.5,5-12.7c.6-1.6.9-2.9.9-3.7s0-1.5-.1-1.9c-.3-.4-.6-.6-1-.7-.6-.1-1-.1-1.5-.1s-.6,0-1,.1v-1.8c.7-.1,1.6-.1,2.3-.1,1.2,0,4.7.6,6.1.6s4.1-.6,5.1-.6,2.2.1,3.2.3v1.6c-1.2-.1-1.6-.1-2.8-.1-2.9,0-6.1.6-9.4,8.9l-5.4,14.2,14.8,38.2,20.2-51.4c.3-.9,1.2-4.7,1.2-5.9,0-2-1-3.4-1.9-3.8-1.2-.1-2-.3-3.2-.3s-1.6,0-2.5.1v-1.8c.9,0,1.9-.1,2.8-.1s6.4.6,7.5.7c1.3,0,6.6-.7,7.6-.7s1.2.1,2.2.3c0,.3-.1.9-.1,1.6-.6-.1-1-.1-1.6-.1-4.8,0-7.9,7.2-9.2,10.7l-25.2,65.1h-.4l-16.2-41.8-16.4,41.8h-.4ZM364.4,283.7h.6s-.3,0-.3,0h-.3ZM258,323.7h21.8l-11-27.7-10.8,27.7ZM219.6,284.2h7.5c.6,1.5,3.7,8.2,4.2,9.7,1,2.5,1,3.4,1,5.6h-1.2c-.1-10.2-15.9-12.7-25.7-12.7s-5.3.1-5.3,2.8v29.4h12.9c7,0,8.5-3.8,8.5-5.6s-.4-2.5-.7-3.8l.9-.6c1,1.6,1,2,1.3,6.1.4,6,.4,6.7,1.5,9.7.9,2.5.9,4.7.9,6.6h-1c-.6-9.9-5-9.9-24.1-9.7v31.3c0,3.4,2.8,5,5.6,5h7.5c.3,0,7.6,0,14.9-3.5,8-3.9,8.2-5.1,8.6-8.3h1.5c-.4,2.8-.7,4.1-2.5,6.7-.9,1.3-5.1,6.9-5.7,8.2-6-.7-26.6-1-33.7-1s-7.2.4-10.7.4-2.2,0-3.4-.3v-1.8c.9.1,1.9.3,2.8.3s3.1-.3,4.4-1.2c1.9-1.9,2.6-4.7,2.6-9.2v-54.2c0-4.2-.3-8.4-6.1-8.4s-1.8,0-3.1.1v-1.6c1.3-.3,2.3-.4,4.2-.4s12.7.6,14.9.4h17.6ZM142.4,290v26c2.2,1,4.5,2.3,9.2,2.3s17.3-3.5,17.3-15.4-9.1-17-19.5-17-7,.7-7,3.9ZM124.7,360v-1.6c1.5.3,2.2.4,2.8.4.9,0,3.4-.3,3.5-.4,1.3-.9,3.2-2,3.2-7.6v-54.6c0-8.3-.7-10.7-6.6-10.7s-2,0-3.2.1v-1.9c2.2,0,12.3.7,14.2.7,2.9,0,9.4-.7,16.4-.7,11.3,0,22.5,4.2,22.5,17.9s-10.4,19.3-24.7,19.3-7.2-.7-10.4-1.8v31.2c0,3.4,1,5.6,3.7,7.9.3.1,1.5.6,2.3.6s3.1-.4,4.4-.9v1.5c-1.6.6-3.8,1-5.7,1s-8-.7-8.9-.7c-1.6,0-7.2.7-9.4.7s-3.1-.1-4.1-.4ZM593.8,360.3v-1.6c1,.1,1.9.1,2.9.1,3.4,0,6.1-2.2,6.1-11.1v-54.3c0-7.5-3.5-8-8.8-8v-1.6c5.7,0,9.4,1,12.6,1s11-1,22.4-1,20.3,0,30.1,10.8c6.3,7.2,10.1,16.8,10.1,26.9s-8.6,38.9-39.5,38.9-14.8-.7-20.5-.7-10.1.7-12,.7-2.5-.1-3.5-.1ZM611.1,289.4v61.2c0,4.4.7,7.5,12.6,7.5s14.5-.4,19.9-2.9c14.9-6.9,16.8-22.7,16.8-31.3s-3.5-21.2-8.9-27.2c-7.9-8.9-14.8-9.7-24.9-9.7h-13.3c-1.3,0-2.2,1.3-2.2,2.5Z"/>
</svg>