<?xml version="1.0" encoding="UTF-8"?>
<svg id="Layer_1" xmlns="http://www.w3.org/2000/svg" version="1.1" viewBox="0 0 793.7 595.3">
  <!-- Generator: Adobe Illustrator 30.0.0, SVG Export Plug-In . SVG Version: 2.1.1 Build 123)  -->
  <defs>
    <style>
      .st0 {
        fill: #0d4479;
      }

      .st1 {
        fill: #be2e18;
      }
    </style>
  </defs>
  <path class="st1" d="M555.9,399.9v9c0,.3,0,.4.3.5.7.2,1.6.3,2.4.3,1.2,0,1.7-.1,2.2-.5,1-.7,2-2,2-4.5,0-4.3-2.9-5.4-4.8-5.4s-1.5,0-1.9.1c-.2,0-.3.2-.3.4ZM551.9,411.9v-5.4c0-4.6,0-5.5,0-6.4,0-1-.4-1.4-1.4-1.6-.2,0-.8-.1-1.2-.1s-.5-.1-.5-.3.3-.3.7-.3c1.6,0,3.6,0,4.3,0,1.1,0,3.9,0,4.9,0,2,0,4.3.2,6,1.3.9.6,2.2,2.1,2.2,4.2s-1.3,4.2-4.4,6.7c2.8,3.4,5,6.2,6.9,8.1,1.7,1.8,2.9,1.9,3.4,2,.3,0,.5,0,.7,0s.4.2.4.3c0,.3-.2.3-.6.3h-3c-1.7,0-2.6-.2-3.4-.6-1.4-.7-2.5-2.1-4.3-4.5-1.2-1.6-2.6-3.7-3-4.1-.2-.2-.4-.2-.6-.2h-2.8c-.1,0-.3,0-.3.2v.4c0,2.8,0,5.2.2,6.5.1.9.2,1.5,1.2,1.6.5,0,1.1.1,1.5.1s.4.2.4.3c0,.2-.3.3-.6.3-1.8,0-4.4-.1-4.9-.1s-2.6.1-3.9.1-.6-.1-.6-.3.1-.3.5-.3.8,0,1.1-.1c.6-.1.8-.7.9-1.6.1-1.3.1-3.7.1-6.5ZM525.6,411.4h6.1c.1,0,.2,0,.1-.2l-3-7.7c0-.1,0-.3-.1-.3-.1,0-.1.2-.2.3l-3,7.7c0,.1,0,.2.1.2ZM532.4,413.1h-7.4c-.2,0-.2,0-.3.2l-1.7,4.1c-.3.7-.5,1.5-.5,1.9,0,.5.3.9,1.2.9h.5c.4,0,.5.1.5.3,0,.3-.2.3-.5.3-1,0-2.5-.1-3.5-.1s-2,.1-3.6.1-.6,0-.6-.3.1-.3.4-.3.6,0,.9,0c1.4-.2,2-1.1,2.6-2.7l8.2-19.1c.4-.9.6-1.2.9-1.2.5,0,.6.3.9,1,.7,1.7,6,14.1,8,18.7,1.2,2.7,2.1,3.1,2.7,3.3.5,0,.8.1,1.2.1s.4.1.4.3-.2.3-1.4.3-3.4,0-6,0c-.6,0-.9,0-.9-.3s0-.3.4-.3c.2,0,.4-.3.3-.7l-2.4-6.1c0-.2-.2-.2-.3-.2ZM497.8,410.4v-6.3c0-5.4,0-6.4,0-7.6,0-1.2-.4-1.8-1.5-2-.3,0-.9-.1-1.4-.1s-.6,0-.6-.3.2-.3.8-.3c1.9,0,4.1.1,5.1.1,1.5,0,3.5-.1,5.2-.1,4.5,0,6.1,1.5,6.6,2,.8.7,1.8,2.4,1.8,4.2,0,5.1-3.7,8.6-8.8,8.6s-.6,0-.7,0c-.2,0-.4,0-.4-.3s.2-.4,1-.4c2,0,4.8-2.2,4.8-5.9s-.1-3.6-2.1-5.4c-1.3-1.2-2.7-1.4-3.6-1.4s-1.1,0-1.4.1c-.2,0-.3.3-.3.7v14.3c0,3.3,0,6.1.2,7.6.1,1,.3,1.8,1.4,1.9.5,0,1.3.1,1.8.1s.6.1.6.3-.3.4-.7.4c-2.4,0-4.6-.1-5.5-.1s-3.1.1-4.5.1-.7-.1-.7-.4.1-.3.6-.3,1,0,1.3-.1c.7-.1.9-.9,1-2,.2-1.5.2-4.3.2-7.6ZM459.4,406.6v5.4c0,3.9,0,5.8.7,6.4.5.5,1.7.6,4.2.6s2.9,0,3.7-.9c.4-.4.7-1.2.8-1.8,0-.3.1-.5.4-.5s.3.3.3.7-.2,2.6-.5,3.5c-.2.7-.4.8-2,.8s-4.1,0-5.6-.1c-1.6,0-2.9,0-4.2,0s-1,0-1.8,0c-.7,0-1.5,0-2.2,0s-.6-.1-.6-.3.1-.3.5-.3.8,0,1.1-.1c.6-.1.8-.7.9-1.6.1-1.3.1-3.7.1-6.5v-5.4c0-4.6,0-5.5,0-6.4,0-1-.4-1.4-1.4-1.6-.2,0-.6-.1-1-.1s-.5-.1-.5-.3.2-.3.7-.3c1.5,0,3.5,0,4.3,0s3.3,0,4.5,0,.7,0,.7.3-.2.3-.6.3-.9,0-1.2.1c-.9.1-1.1.6-1.2,1.6,0,1,0,1.8,0,6.4ZM429,411.4h6.1c.1,0,.2,0,.1-.2l-3-7.7c0-.1,0-.3-.1-.3-.1,0-.1.2-.2.3l-3,7.7c0,.1,0,.2.1.2ZM435.7,413.1h-7.4c-.2,0-.2,0-.3.2l-1.7,4.1c-.3.7-.5,1.5-.5,1.9,0,.5.3.9,1.2.9h.5c.4,0,.5.1.5.3,0,.3-.2.3-.5.3-1,0-2.5-.1-3.5-.1s-2,.1-3.6.1-.6,0-.6-.3.1-.3.4-.3.6,0,.9,0c1.4-.2,2-1.1,2.6-2.7l8.2-19.1c.4-.9.6-1.2.9-1.2.5,0,.6.3.9,1,.7,1.7,6,14.1,8,18.7,1.2,2.7,2.1,3.1,2.7,3.3.5,0,.8.1,1.2.1s.4.1.4.3-.2.3-1.4.3-3.4,0-6,0c-.6,0-.9,0-.9-.3s0-.3.4-.3c.2,0,.4-.3.3-.7l-2.4-6.1c0-.2-.2-.2-.3-.2ZM406.7,411.9v-5.4c0-4.6,0-5.5,0-6.4,0-1-.4-1.4-1.1-1.6-.4-.1-.8-.1-1.1-.1s-.5,0-.5-.4.3-.2.8-.2c1.2,0,3.3,0,4.2,0s2.8,0,4,0,.6,0,.6.2c0,.3-.2.4-.5.4s-.6,0-.9.1c-.9.1-1.1.6-1.2,1.6,0,1,0,1.8,0,6.4v5.4c0,2.9,0,5.4.1,6.6.1.8.3,1.3,1.2,1.4.4,0,1.1.1,1.6.1s.5.2.5.3c0,.2-.2.3-.6.3-2.1,0-4.2-.1-5.1-.1s-2.9.1-4.1.1-.6-.1-.6-.3.1-.3.5-.3.8,0,1.1-.1c.6-.1.8-.6.9-1.5.1-1.2.1-3.7.1-6.6ZM380.5,399.9v9c0,.3,0,.4.3.5.7.2,1.6.3,2.4.3,1.2,0,1.7-.1,2.2-.5,1-.7,2-2,2-4.5,0-4.3-2.9-5.4-4.8-5.4s-1.5,0-1.9.1c-.2,0-.3.2-.3.4ZM376.5,411.9v-5.4c0-4.6,0-5.5,0-6.4,0-1-.4-1.4-1.4-1.6-.2,0-.8-.1-1.2-.1s-.5-.1-.5-.3.3-.3.7-.3c1.6,0,3.6,0,4.3,0,1.1,0,3.9,0,4.9,0,2,0,4.3.2,6,1.3.9.6,2.2,2.1,2.2,4.2s-1.3,4.2-4.4,6.7c2.8,3.4,5,6.2,6.9,8.1,1.7,1.8,2.9,1.9,3.4,2,.3,0,.5,0,.7,0s.4.2.4.3c0,.3-.2.3-.6.3h-3c-1.7,0-2.6-.2-3.4-.6-1.4-.7-2.5-2.1-4.3-4.5-1.2-1.6-2.6-3.7-3-4.1-.2-.2-.4-.2-.6-.2h-2.8c-.1,0-.3,0-.3.2v.4c0,2.8,0,5.2.2,6.5.1.9.2,1.5,1.2,1.6.5,0,1.1.1,1.5.1s.4.2.4.3c0,.2-.3.3-.6.3-1.8,0-4.4-.1-4.9-.1s-2.6.1-3.9.1-.6-.1-.6-.3.1-.3.5-.3.8,0,1.1-.1c.6-.1.8-.7.9-1.6.1-1.3.1-3.7.1-6.5ZM352.4,411.9v-12.3h-4.7c-1.8.1-2.6.4-3,1-.3.4-.5.8-.5,1,0,.3-.1.4-.4.4s-.3-.2-.3-.5c0-.5.6-3.4.7-3.7,0-.4.2-.6.4-.6s.6.3,1.4.4c.9.1,2.1.1,3.1.1h12.7c1,0,1.7,0,2.1-.1.5,0,.8-.1.9-.1.2,0,.3.2.3.6s0,2.9,0,3.7c0,.3-.1.5-.3.5s-.3-.1-.4-.6v-.3c-.1-.8-.9-1.7-3.7-1.7h-4c0,0,0,12.2,0,12.2,0,2.8,0,5.2.2,6.5.1.9.3,1.4,1.2,1.6.4,0,1.1.1,1.6.1s.5.2.5.3c0,.2-.2.3-.6.3-2.1,0-4.2-.1-5.1-.1s-2.9.1-4.1.1-.6-.1-.6-.3.1-.3.5-.3.9,0,1.1-.1c.6-.1.8-.7.9-1.6.1-1.3.1-3.7.1-6.5ZM326.6,421.1c-1.8,0-3.7-.2-5.1-.8-.5-.2-.6-.4-.6-1,0-1.6.1-3.5.2-4,0-.5.1-.8.4-.8s.3.3.3.5c0,.4.1,1,.3,1.6.7,2.2,3,3,5,3s4.4-1.7,4.4-3.9-.3-2.6-3.1-4.3l-1.8-1.1c-3.7-2.2-4.9-4.2-4.9-6.9s3.6-6.1,7.9-6.1,3.6.3,4.5.5c.3,0,.4.2.4.4,0,.4-.1,1.2-.1,3.6s-.1,1-.4,1-.3-.2-.3-.5-.1-1.2-.8-2c-.5-.6-1.5-1.4-3.5-1.4s-4.3,1.2-4.3,3.2.5,2.4,3.3,4l1.3.7c4.1,2.3,5.4,4.6,5.4,7.4s-.9,4.1-3.1,5.7c-1.5,1.1-3.6,1.2-5.2,1.2ZM289.1,411v-4.5c0-4.6,0-5.5,0-6.4,0-1.1-.4-1.4-1.4-1.6-.2,0-.8-.1-1.2-.1s-.5-.1-.5-.3.2-.3.7-.3c1.7,0,3.8,0,4.7,0s2.9,0,4,0,.7,0,.7.3-.2.3-.5.3-.5,0-.9.1c-.8.1-1.1.6-1.1,1.6,0,1,0,1.8,0,6.4v4.2c0,4.4.9,6.1,2.4,7.4,1.4,1.1,2.9,1.2,4,1.2s3-.4,4.2-1.6c1.7-1.6,1.8-4.3,1.8-7.4v-3.8c0-4.6,0-5.5,0-6.4,0-1-.3-1.4-1.3-1.6-.2,0-.8-.1-1.1-.1s-.5-.1-.5-.3.2-.3.6-.3c1.6,0,3.7,0,3.7,0,.4,0,2.5,0,3.7,0s.6,0,.6.3-.2.3-.5.3-.5,0-.9.1c-.9.1-1.1.6-1.1,1.6,0,1,0,1.8,0,6.4v3.2c0,3.4-.4,7-3,9.1-2.2,1.9-4.6,2.2-6.6,2.2s-4.9,0-7.2-2.1c-1.6-1.4-2.9-3.6-2.9-8ZM259.3,406.1v3.8c0,3.2,0,5.5,0,6.1,0,.7.1,1.8.4,2.1.4.6,1.6,1.2,4.1,1.2s5-.5,6.9-2.1c2-1.7,2.7-4.4,2.7-7.5s-1.5-6.4-2.9-7.6c-2.9-2.6-6.3-2.9-8.8-2.9s-1.7,0-1.9.2c-.3.1-.4.3-.4.6,0,1,0,3.5,0,5.9ZM255.1,411.9v-5.4c0-4.6,0-5.5,0-6.4,0-1-.4-1.4-1.4-1.6-.2,0-.8-.1-1.2-.1s-.5-.1-.5-.3.3-.3.7-.3c1.6,0,3.6,0,4.5,0s3.2,0,5.1,0c3.9,0,9.2,0,12.6,3.5,1.6,1.6,3,4.1,3,7.7s-1.6,6.7-3.4,8.5c-1.4,1.4-4.7,3.6-10.5,3.6s-2.5-.1-3.7-.2c-1.2-.1-2.4-.2-3.2-.2s-1,0-1.8,0c-.7,0-1.5,0-2.2,0s-.6-.1-.6-.3.1-.3.5-.3.8,0,1.1-.1c.6-.1.8-.7.9-1.6.1-1.3.1-3.7.1-6.5ZM220.9,404.2l.4,12.4c0,2.4.5,3.1,1.1,3.3.5.2,1.1.2,1.6.2s.5.1.5.3c0,.3-.3.3-.7.3-2,0-3.5-.1-4.1-.1s-1.8.1-3.4.1-.7,0-.7-.3.2-.3.5-.3c.4,0,1,0,1.4-.1.8-.2.9-1,1-3.7l.3-18c0-.6.2-1,.5-1s.8.5,1.4,1,5.1,5.2,9.7,9.7c2.1,2.1,6.3,6.4,6.8,6.8h.1l-.3-13.5c0-1.9-.3-2.4-1.1-2.7-.5-.2-1.2-.2-1.6-.2s-.5-.1-.5-.3c0-.3.3-.3.8-.3,1.6,0,3.3,0,4,0s1.5,0,3.1,0,.7,0,.7.3-.2.3-.5.3-.6,0-1,.1c-.9.3-1.1.8-1.1,2.5l-.4,19.1c0,.7-.3,1-.5,1-.5,0-1-.3-1.3-.6-2-1.8-5.9-5.6-9.2-8.7-3.4-3.3-6.7-7-7.3-7.5h-.1ZM198.9,410.4v-6.3c0-5.4,0-6.4,0-7.6,0-1.2-.4-1.8-1.2-2-.4-.1-.9-.1-1.3-.1s-.6,0-.6-.4.3-.3.9-.3c1.4,0,3.6.1,4.6.1s3-.1,4.4-.1.7,0,.7.3-.2.4-.6.4-.6,0-1.1.1c-1,.2-1.2.8-1.3,2,0,1.1,0,2.1,0,7.6v6.3c0,3.5,0,6.3.1,7.8.1,1,.4,1.6,1.4,1.7.5,0,1.3.1,1.8.1s.6.1.6.3-.3.4-.7.4c-2.4,0-4.6-.1-5.6-.1s-3.1.1-4.5.1-.7-.1-.7-.4.1-.3.6-.3,1,0,1.3-.1c.7-.1.9-.7,1-1.8.2-1.5.2-4.3.2-7.8ZM396.6,277.7l-.2-.4c-3.7-7.9-39.7-79.8-126.5-81.7l1.2-2.1c88.1,1.8,130.8,55.8,133.9,59.9,6.3-3.7,98.1-55.3,255.7-52.2v3.2c-155.8-3.5-254.2,65.8-263.8,72.9l-.4.3ZM411.4,243.5c32.7-19.8,89.9-46.8,181.4-61.3l.2,2.9c-44.9,7.1-80.7,18.3-109.5,30.8-32.9,8.8-56.8,19.5-72.1,27.6ZM422.2,200.9s21.9-10.5,83.6-26.5l.4,1.6c-67.6,21.6-89.1,39.5-89.1,39.5,0,0-8.2-18.7-50.3-40.1l1.2-1.4c40.8,15.6,54.3,26.8,54.3,26.8ZM612.6,407.3l6.5-6.5,6.5,6.5-6.5,6.5-6.5-6.5ZM170.8,407.3l6.5-6.5,6.5,6.5-6.5,6.5-6.5-6.5ZM586.2,406.6v1.4h.1c1.1-1.1,5.6-5.6,6.6-6.7.9-1,1.6-1.7,1.6-2.2s-.1-.5-.4-.6c-.3,0-.4-.1-.4-.3s.2-.3.5-.3c.7,0,2.4,0,3.2,0s2.7,0,3.7,0,.5,0,.5.3-.2.3-.5.3c-.5,0-1.2.1-1.8.4-1,.4-2,1-3.3,2.2-1,.9-5.7,5.4-6.6,6.5,1.1,1.4,7.3,7.9,8.5,9,1.4,1.2,2.6,2.6,4.3,3.2.9.4,1.6.4,1.9.4s.4.1.4.3-.2.3-.7.3h-2.7c-.9,0-1.5,0-2.2,0-1.7-.1-2.7-.8-4.1-2-1.4-1.2-7.4-8.2-8.1-9.1l-.3-.4h-.1v2.7c0,2.8,0,5.2,0,6.5,0,.9.4,1.4,1.1,1.6.4,0,1.1.1,1.5.1s.4.2.4.3c0,.2-.3.3-.6.3-1.7,0-4-.1-4.8-.1s-2.7.1-4,.1-.6-.1-.6-.3.1-.3.5-.3.8,0,1.1-.1c.6-.1.8-.7.9-1.6.1-1.3.1-3.7.1-6.5v-5.4c0-4.6,0-5.5,0-6.4,0-1-.4-1.4-1.4-1.6-.2,0-.8-.1-1.2-.1s-.5-.1-.5-.3.3-.3.7-.3c1.6,0,3.6,0,4.4,0s3,0,4,0,.7,0,.7.3-.2.3-.4.3-.5,0-.9.1c-.9.1-1.1.6-1.2,1.6,0,1,0,1.8,0,6.4Z"/>
  <path class="st0" d="M405.7,244.4c-8.6-9.5-22.3-21.8-42.6-32-13.5-11.9-30.7-22-52.9-27.9l1.4-2.1c49.3,13,78,39.9,94.2,62ZM550.3,335.6l-11.9-27.9-12.6,27.9h24.5ZM494.5,375.9c3.4-3.5,6.3-7.5,13.1-23.2l30.2-68.5h4.6l36.3,77.1c2.9,6.3,6.2,10.4,10,14.6h-26.5c1.2-2,1.8-4.1,1.8-6.7s-1.6-6.6-3.1-10.2l-6-13.2h-33.4l-5.9,12.7c-2.8,6.3-4.2,9.2-4.2,11.4s.5,4.1,1.4,6h-18.2ZM403.2,375.9h-3.9l-31.3-71c-4.7-10.9-4.6-11-11.4-20.7h25.2c-.8,2.2-.9,4.3-.9,6.4,0,3.7,1.3,6.4,3.4,11.7l19.7,45.3,26.1-63.4h3l26.2,62.6,18.9-44.7c2.2-5.4,3.7-8.3,3.7-12.1s-.4-3.8-1.2-5.8h19c-2,1.8-7.2,12.2-10.2,19.3l-31.2,72.4h-4.3l-25.4-59.7-25.2,59.7ZM290.8,294.8c-11.1,0-13,.5-21,5.6l5.2-16.3h68.9l-5,15.7c-5.1-3.9-9.8-5.1-15.2-5.1h-9.2v58.6c0,9.8.3,14.2,2.8,22.4h-22.6c3-7.6,3.8-11.4,3.8-22.7v-58.4h-7.7ZM194.6,305.3c0-9.3-.1-16.1-3.8-21.1h56.4l1.7,15.6c-6.8-4.1-11.3-5-23.1-5h-15.3v27h11.7c8,0,13.1-.1,18-2.9v16.8c-5-2-9.7-3.4-17.4-3.4h-12.2v32.7h15.6c16.1,0,19.4-1.4,28.7-6.2l-5.6,17.1h-58.5c2.6-4.9,3.9-9.2,3.9-24v-46.6ZM138.7,305.3c0-12.7-.3-13.8-3.9-21.1h23.2c-2.8,5.9-3.5,8.3-3.5,20.7v76.6c0,24-5.1,33.6-30,39.6,10-8.8,14.3-16.3,14.3-40v-75.8ZM593.7,300.2c-5.8-8.5-7-10-12.9-16h26.6c0,1.3-.3,2.6-.3,3.9,0,3.5,2.4,6.7,4.5,9.7l17.3,25.3,17.2-26.6c2.5-3.8,3.9-6.8,3.9-9.6s-.1-1.8-.1-2.8h19.3c-5.2,5.4-7.9,8.4-13.4,16.8l-21.9,33.2v25.1c0,8.5.7,10.1,3,16.7h-22c2.2-5.9,2.6-8.1,2.6-16.3v-24.5l-23.9-34.9ZM410.3,238.7s-12-30.1-71.9-62.4l1.8-2c58.1,23.3,75.2,49.9,75.2,49.9,0,0,37-25.2,134.6-50.1l.8,2.6c-106.8,33.7-140.5,62-140.5,62Z"/>
</svg>