<?xml version="1.0" encoding="UTF-8"?>
<svg id="Layer_1" xmlns="http://www.w3.org/2000/svg" version="1.1" viewBox="0 0 793.7 595.3">
  <!-- Generator: Adobe Illustrator 30.0.0, SVG Export Plug-In . SVG Version: 2.1.1 Build 123)  -->
  <defs>
    <style>
      .st0 {
        fill: #939a9e;
      }
    </style>
  </defs>
  <path class="st0" d="M527.5,294.3c-8.3-4.3-49.3-37.9-51.2-44.9-.7-2.5,3.7-4.4,5.7-5.4,12.4-5.8,46.6-6.9,60.4-5.3,7.6.9,39.4,26.1,35.3,34.1-4.2,8.1-42.1,25.6-50.2,21.5ZM507.3,262.5c7.2,15.8,35.4,10.6,47.3,3.1,1.6-1,3.6-1.8,2.6-3.9-3.8-4.2-24.4-16.3-29.5-16.3-3.4,0-12.1,6.7-14.6,8.8-1.9,1.6-6.3,5.4-5.8,8.3ZM614.4,347.2l-34.5-39.9v31.4c0,1.5,0,3.8.9,5.1.4.6.9,1.1,1.4,1.6h-8.1c.6-.7,1.6-1.7,1.9-2.5.3-.7.4-1.9.4-4.2v-35.2c-2-2.8-4-4.5-8.5-6.6l.2-.8h9l33.9,39.4v-32.7c0-1.5,0-3.8-.9-5.1-.4-.6-.9-1.1-1.4-1.6h8.1c-.6.7-1.6,1.7-1.9,2.5-.3.7-.4,1.9-.4,4.2v44.4ZM481.5,338c0,5.3,0,4.7,2.7,8.5h-10.5c2.7-3.8,2.7-3.2,2.7-8.5v-38.9h-9.9c-4.5,0-5.2,1.5-8.3,4.1l-.6-.5,3.9-7.7c.7.3,1.4.7,2.1.9.7.2,1.8.3,3.4.3h27.2c2.4,0,5.5-.7,7.8-1.3l-4.9,10c-.2-1-.5-4.1-1-4.9-.4-.5-1.2-.8-3.4-.8h-11.1v38.9ZM439.9,303.5c-3-2.8-5.4-5.5-10-5.5s-6.8,2.4-6.8,6c0,5.5,7.1,9.3,11.1,12.2,1.8,1.3,3.6,2.8,5.2,4.5,2.6,2.9,4.6,6.8,4.6,11.9s-6,13.9-15.4,13.9-8.2-1.2-11.7-3.5c-.6-.4-1.2-.8-1.8-1.2v-8.4c1.5,2.4,2.9,4.9,5,6.9,2,1.8,4.6,3.2,8.5,3.2s11.3-3.3,11.3-9.4-2.8-8.3-6.5-11.4c-3.1-2.6-6.7-4.9-9.6-7.4-2.9-2.6-5.1-5.5-5.1-9.1,0-6.2,5-11.1,11.6-11.1s6.5,1.2,9.6,2.2v6.3ZM396.6,347.2l-34.5-39.9v31.4c0,1.5,0,3.8.9,5.1.4.6.9,1.1,1.4,1.6h-8.1c.6-.7,1.6-1.7,1.9-2.5.3-.7.4-1.9.4-4.2v-35.2c-2-2.8-4-4.5-8.5-6.6l.2-.8h9l33.9,39.4v-42c0-1.5,0-3.8-.9-5.1-.4-.6-.9-1.1-1.4-1.6h8.1c-.6.7-1.6,1.7-1.9,2.5-.3.7-.4,1.9-.4,4.2v53.7ZM332.3,345.4h-29.4c4.1-2.8,4.5-3.6,4.5-8.5v-32.4c0-4.8-.4-5.8-4.5-8.5h27.6v8.7c-.9-1.5-2-3.9-3.6-4.8-1.2-.7-3.1-.9-7.1-.9h-7.3v17.5h11.7c3.2,0,3.6-.6,5.9-2.7v8.3c-2.4-2.2-2.4-2.7-6.1-2.7h-11.4v15.5c0,5.3.4,7.4,7.1,7.4s10.1-1.3,13.8-5.4c.6-.6,1.1-1.4,1.8-2l.7.5-3.5,9.9ZM201.5,318.2c7.3,0,12.9-3,12.9-9.9s-3.6-9.3-12.4-9.3h-4v19.1h3.5ZM198,337c0,5.3,0,4.7,2.7,8.5h-10.5c2.7-3.8,2.7-3.2,2.7-8.5v-32.4c0-5.3,0-4.7-2.7-8.5h11c9.1,0,18.4,2.4,18.4,11.8s-4.4,10.8-10.1,12.3c9.6,13.6,16.6,22.2,21.6,22.2s1.5,0,2.4-.3c.4,0,1.1.2,1.1.8,0,1-2,2.4-5.4,2.4s-9.4-4.2-13.5-9.2c-4.2-5-8-10.9-11.4-15h-6.2v15.7ZM148,304.5l-6.9,16.5h13.6l-6.6-16.5ZM167,338.4c.7,1.8,1.6,4.4,3.5,5.5.4.2.9.4,1.5.8l-.2.8h-11.1c.9-1.1,2-1.9,2-3.5s-.3-1.3-.5-2l-6.4-16h-16l-6.3,15c-.5,1.1-1,2.7-1,3.4,0,1.5.5,1.6,1.5,2.3l1,.7h-10.6c4.2-3.1,4.3-3,6.3-7.8l18.4-43.2,17.9,44ZM665.7,345.4h-29.4c4.1-2.8,4.5-3.6,4.5-8.5v-32.4c0-4.8-.4-5.8-4.5-8.5h27.6v8.7c-.9-1.5-2-3.9-3.6-4.8-1.2-.7-3.1-.9-7.1-.9h-7.3v17.5h11.7c3.2,0,3.6-.6,5.9-2.7v8.3c-2.4-2.2-2.4-2.7-6.1-2.7h-11.4v15.5c0,5.3.4,7.4,7.1,7.4s10.1-1.3,13.8-5.4c.6-.6,1.1-1.4,1.8-2l.7.5-3.5,9.9ZM258.5,317.7c-1,1.1-1,1.1-1,1.1v18.2c0,5.3,0,4.7,2.7,8.5h-10.6c2.7-3.8,2.7-3.2,2.7-8.5v-32.5c0-5.3,0-4.7-2.7-8.5h10.6c-2.7,3.8-2.7,3.2-2.7,8.5v10.6l14.4-15.2.4-.4c.3-.4.7-.9.7-1.4s-.7-1.4-1.1-1.9h10.1l.2.8c-.8.3-1.8.6-3.2,1.3-1.3.7-3,1.8-4.9,3.8l-12.3,12.7c11.9,16,28.3,39.5,33.3,39.7,1,0,2.3,0,3.1-.3.4,0,1.1.3,1.1,1,0,1-2,2.4-5.4,2.3-4.8,0-9.3-4.4-13.4-9.5-4.1-5.1-21.9-30-21.9-30ZM550.7,324.9c0-11-8-18.8-17.9-18.8s-16.9,5.5-16.9,17.6,8,18.7,17.9,18.7,16.9-5.5,16.9-17.5ZM532.5,346.1c-12.8,0-21.6-9.8-21.6-21.2s9.6-22.6,23.1-22.6,21.5,9.7,21.5,21.2-9.6,22.5-23,22.5Z"/>
</svg>