<?xml version="1.0" encoding="UTF-8"?>
<svg id="Layer_1" xmlns="http://www.w3.org/2000/svg" version="1.1" viewBox="0 0 793.7 595.3">
  <!-- Generator: Adobe Illustrator 30.0.0, SVG Export Plug-In . SVG Version: 2.1.1 Build 123)  -->
  <defs>
    <style>
      .st0, .st1 {
        fill-rule: evenodd;
      }

      .st0, .st2 {
        fill: #4b2682;
      }

      .st1, .st3 {
        fill: #996642;
      }
    </style>
  </defs>
  <rect class="st3" x="229" y="323.5" width="3.5" height="20.5"/>
  <polygon class="st1" points="259.6 344.3 246.8 330.9 246.8 344 243.3 344 243.3 323.3 243.8 323 256.4 336.4 256.4 323.5 260.1 323.5 260.1 344.3 259.6 344.3"/>
  <path class="st1" d="M288.4,333.7c0,1.5-.2,2.7-.7,4.2-.5,1.2-1.2,2.5-2.2,3.5s-2.2,1.7-3.7,2.2c-1.5.5-3.2.7-5.2.7h-4.4c-.5,0-1,0-1.5-.2v-20.2c1,0,2-.2,2.7-.2h3c2,0,3.7.2,5.4.7,1.5.5,2.7,1.2,3.7,2.2s1.7,2,2.2,3.2c.5,1.2.7,2.5.7,3.9ZM284.7,333.7c0-1-.2-2-.5-3-.2-1-.7-1.7-1.5-2.2-.7-.7-1.5-1.2-2.5-1.5s-2.2-.5-3.5-.5-2,0-2.7.2v14.3c.5,0,.7,0,1.2.2h1.7c1.2,0,2.5-.2,3.5-.5,1-.5,1.7-1,2.5-1.5.7-.7,1-1.5,1.5-2.5,0-1.2.2-2.2.2-3.2Z"/>
  <path class="st1" d="M314.1,336.1c0,1.2-.2,2.5-.5,3.5-.5,1-1,2-1.7,2.5-.7.7-1.5,1.2-2.7,1.5-1,.2-2.2.5-3.5.5-2.5,0-4.7-.7-5.9-2s-2.2-3.5-2.2-6.2v-12.6h3.5v12.3c0,1.7.5,3.2,1.2,3.9.7.7,2,1.2,3.5,1.2s2.7-.5,3.5-1.2c.7-1,1.2-2.2,1.2-3.9v-12.3h3.5v12.8h.2Z"/>
  <path class="st1" d="M336,338.1c0,.7-.2,1.5-.5,2.5-.2.7-.7,1.5-1.2,2-.5.5-1.2,1-2.2,1.2-.7.2-1.7.5-2.7.5s-2.2-.2-3.5-.5c-1-.5-2-.7-3-1.5l1.2-3.2c.7.5,1.7,1,2.7,1.5,1,.2,1.7.5,2.7.5s1,0,1.5-.2.7-.2,1-.5.5-.5.5-.7c.2-.2.2-.7.2-1s0-.7-.2-1c0-.2-.2-.5-.5-1-.2-.2-.7-.5-1.2-1-.5-.2-1.2-.5-2-1-1.7-.7-3-1.7-3.7-2.5-.7-1-1-2-1-3.2s.2-1.5.5-2.2.7-1.2,1.2-1.7,1.2-1,2.2-1.2c.7-.2,1.7-.5,3-.5s2,.2,3,.5c1,.2,1.7.7,2.2,1l-1.2,3c-.2-.2-.5-.2-1-.5-.2-.2-.7-.2-1-.5s-.7-.2-1-.2-.7-.2-1-.2c-1,0-2,.2-2.5.7-.5.5-.7,1-.7,1.7s.2,1.2.7,1.7c.5.5,1.5,1,2.7,1.5,1,.5,1.7,1,2.5,1.2.7.5,1.2,1,1.5,1.5.5.5.7,1,1,1.5-.2.7-.2,1.5-.2,2Z"/>
  <polygon class="st1" points="354.1 326.7 354.1 344 350.6 344 350.6 326.7 344.2 326.7 344.2 323.5 360.7 323.5 360.7 326.7 354.1 326.7"/>
  <path class="st1" d="M380.7,344l-4.4-7.4h-3v7.4h-3.5v-20.2c.7,0,1.7-.2,2.5-.2h3c1.5,0,2.7.2,3.7.5s2,.7,2.7,1.5c.7.5,1.2,1.2,1.5,2s.5,1.7.5,2.5c0,1.2-.2,2.5-1,3.5s-1.7,1.7-3,2.5l5.4,8.1s-4.4,0-4.4,0ZM379.7,330c0-1-.5-2-1.2-2.5-.7-.7-1.7-1-3.2-1h-1.2c-.5,0-.7,0-1.2.2v6.9h2c1.5,0,2.7-.2,3.5-1,1.2-.5,1.5-1.5,1.5-2.7Z"/>
  <rect class="st3" x="393.5" y="323.5" width="3.5" height="20.5"/>
  <path class="st1" d="M421.1,344l-2-4.7h-8.1l-2,4.7h-3.7l9.4-20.7h.5l9.4,20.7h-3.5ZM415.2,329.7l-3,6.9h5.9l-3-6.9Z"/>
  <polygon class="st1" points="433.2 344 433.2 323.5 436.7 323.5 436.7 340.8 445.8 340.8 445.8 344 433.2 344"/>
  <path class="st1" d="M480.3,330.2c0,1-.2,2-.5,3-.2,1-1,1.7-1.5,2.2-.7.5-1.5,1-2.5,1.5-1,.2-2.2.5-3.5.5h-2v6.7h-3.5v-20.2c1.7-.2,3.5-.2,5.2-.2s2.7.2,3.7.5,2,.7,2.7,1.5c.7.5,1.2,1.2,1.7,2.2,0,.7,0,1.5,0,2.5ZM476.9,330.4c0-.5,0-1-.2-1.5s-.5-1-.7-1.2-.7-.7-1.2-.7c-.5-.2-1.2-.2-2-.2s-1.5,0-2.2.2v7.4h2c1.5,0,2.7-.2,3.5-1,.5-1,1-2,1-3Z"/>
  <path class="st1" d="M501.3,344l-2-4.7h-8.1l-2,4.7h-3.5l9.4-20.7h.5l9.4,20.7h-3.7ZM495.4,329.7l-3,6.9h5.9l-3-6.9Z"/>
  <path class="st1" d="M524.5,344l-4.4-7.4h-3v7.4h-3.5v-20.2c.7,0,1.7-.2,2.5-.2h3c1.5,0,2.7.2,3.7.5s2,.7,2.7,1.5c.7.5,1.2,1.2,1.5,2s.5,1.7.5,2.5c0,1.2-.2,2.5-1,3.5-.7,1-1.7,1.7-3,2.5l5.4,8.1s-4.4,0-4.4,0ZM523.5,330c0-1-.5-2-1.2-2.5-.7-.7-1.7-1-3.2-1h-1.2c-.5,0-.7,0-1.2.2v6.9h2c1.5,0,2.7-.2,3.5-1,1-.5,1.5-1.5,1.5-2.7Z"/>
  <polygon class="st1" points="549.2 344 540.8 334.1 540.8 344 537.3 344 537.3 323.5 540.8 323.5 540.8 332.7 548.7 323.5 552.9 323.5 544 333.4 553.4 344 549.2 344"/>
  <rect class="st2" x="124.4" y="258.2" width="7.9" height="46.6"/>
  <path class="st0" d="M176,305l-10.1-16.8h-4.9c-.7,0-1.5,0-2.2-.2v17h-7.9v-46.4c2-.2,3.7-.5,5.7-.5,2-.2,4.2-.2,6.7-.2s6.2.5,8.6,1.2,4.4,1.7,5.9,3.2c1.5,1.2,2.7,3,3.5,4.7.7,1.7,1.2,3.7,1.2,5.9s-.7,5.7-2.5,8.1c-1.5,2.2-3.7,4.2-6.7,5.4l12.3,18.7h-9.6v-.2ZM173.5,273c0-2.5-.7-4.2-2.5-5.7s-4.2-2.2-7.2-2.2h-2.7c-1,0-1.7.2-2.5.2v16c.7,0,1.5.2,2.2.2h2.5c3.5,0,6.2-.7,7.9-2.2,1.5-1.5,2.2-3.7,2.2-6.4Z"/>
  <path class="st0" d="M243.5,281.6c0,3.5-.5,6.7-1.7,9.6s-3,5.4-4.9,7.6c-2.2,2.2-4.7,3.7-7.4,4.9-3,1.2-5.9,1.7-9.4,1.7s-6.4-.5-9.4-1.7-5.4-3-7.4-4.9c-2-2.2-3.7-4.7-4.9-7.6-1.2-3-1.7-6.2-1.7-9.6s.5-6.7,1.7-9.6,3-5.4,4.9-7.6c2.2-2.2,4.7-3.9,7.6-4.9,3-1.2,6.2-1.7,9.4-1.7s6.4.7,9.4,1.7c3,1.2,5.4,3,7.4,4.9,2,2.2,3.7,4.7,4.9,7.6.7,3,1.5,6.2,1.5,9.6ZM234.9,281.6c0-2.5-.5-4.7-1.2-6.7s-1.7-3.9-3-5.4c-1.2-1.5-3-2.7-4.7-3.5-1.7-.7-3.9-1.2-6.2-1.2s-4.2.5-6.2,1.2-3.5,2-4.7,3.5c-1.2,1.5-2.5,3.5-3.2,5.4s-1,4.4-1,6.7.2,4.7,1,6.7c.7,2,1.7,3.9,3.2,5.4,1.2,1.5,3,2.7,4.7,3.5,2,.7,3.9,1.2,6.2,1.2s4.2-.5,6.2-1.2c2-1,3.5-2,4.7-3.5,1.2-1.5,2.2-3.5,3-5.4,1-2,1.2-4.2,1.2-6.7Z"/>
  <polygon class="st0" points="296.8 305.8 267.7 274.9 267.7 305 259.8 305 259.8 257.7 261.1 257.4 289.9 287.8 289.9 258.2 297.8 258.2 297.8 305.5 296.8 305.8"/>
  <path class="st0" d="M342.2,291.7c0,2-.2,3.7-1,5.4s-1.7,3.2-3,4.4-3,2.2-4.9,3-3.9,1-6.4,1-5.2-.5-7.9-1.2c-2.5-.7-4.7-2-6.9-3.2l2.7-7.2c2,1.5,3.9,2.5,5.9,3.2,2.2.7,4.2,1.2,6.2,1.2s2.2-.2,3.2-.5c1-.2,1.7-.7,2.2-1.2.5-.5,1-1.2,1.2-2s.5-1.5.5-2.5,0-1.5-.2-2.2c-.2-.7-.7-1.2-1.2-2-.7-.7-1.5-1.5-2.7-2-1.2-.7-2.7-1.5-4.4-2.2-4.2-1.7-6.9-3.7-8.6-5.9s-2.5-4.7-2.5-7.4.2-3.5,1-4.9,1.7-3,3-4.2,3-2.2,4.9-3,4.2-1,6.4-1,4.4.2,6.7,1c2,.7,3.7,1.5,5.2,2.5l-2.5,6.9c-.7-.5-1.2-.7-2.2-1.2-.7-.5-1.5-.7-2.5-1-.7-.2-1.7-.5-2.5-.7s-1.7-.2-2.5-.2c-2.5,0-4.2.5-5.4,1.7s-1.7,2.5-1.7,4.2.5,3,1.7,3.9c1.5,1,3.5,2.2,6.4,3.5,2.2,1,4.2,2,5.7,3,1.5,1,2.7,2,3.7,3.2,1,1,1.5,2.2,2,3.5.2,1.2.5,2.7.5,4.2Z"/>
  <polygon class="st0" points="376.7 265.6 376.7 305 368.9 305 368.9 265.6 354.1 265.6 354.1 258.2 391.5 258.2 391.5 265.6 376.7 265.6"/>
  <path class="st0" d="M448.8,281.6c0,3.5-.5,6.7-1.7,9.6s-3,5.4-4.9,7.6c-2.2,2.2-4.7,3.7-7.4,4.9-3,1.2-5.9,1.7-9.4,1.7s-6.4-.5-9.4-1.7-5.4-3-7.4-4.9c-2-2.2-3.7-4.7-4.9-7.6-1.2-3-1.7-6.2-1.7-9.6s.5-6.7,1.7-9.6,3-5.4,4.9-7.6c2.2-2.2,4.7-3.9,7.6-4.9,3-1.2,6.2-1.7,9.4-1.7s6.4.7,9.4,1.7c3,1.2,5.4,3,7.4,4.9,2,2.2,3.7,4.7,4.9,7.6,1,3,1.5,6.2,1.5,9.6ZM440.4,281.6c0-2.5-.5-4.7-1.2-6.7s-1.7-3.9-3-5.4c-1.2-1.5-3-2.7-4.7-3.5-1.7-.7-3.9-1.2-6.2-1.2s-4.2.5-6.2,1.2-3.5,2-4.7,3.5c-1.2,1.5-2.5,3.5-3.2,5.4s-1,4.4-1,6.7.2,4.7,1,6.7c.7,2,1.7,3.9,3.2,5.4,1.2,1.5,3,2.7,4.7,3.5,2,.7,3.9,1.2,6.2,1.2s4.2-.5,6.2-1.2c2-1,3.5-2,4.7-3.5,1.2-1.5,2.2-3.5,3-5.4.7-2,1.2-4.2,1.2-6.7Z"/>
  <polygon class="st0" points="502.3 305.8 472.9 274.9 472.9 305 465.1 305 465.1 257.7 466.3 257.4 495.1 287.8 495.1 258.2 503 258.2 503 305.5 502.3 305.8"/>
  <polygon class="st0" points="521 305 521 258.2 549.4 258.2 549.4 265.6 528.9 265.6 528.9 277.7 547.4 277.7 547.4 284.8 528.9 284.8 528.9 297.6 549.4 297.6 549.4 305 521 305"/>
  <path class="st3" d="M586.4,196.3v22.9h20.5v42.7c1.5-2.5,3.2-4.7,5.4-6.7,3-2.7,6.7-4.9,11.1-6.7s9.9-2.5,15.5-2.5,5.4.2,8.1.7,5.4,1,7.9,1.7,4.7,1.5,6.9,2.5c0,0,2.7,1.2,3.5,2.2,2.5,2,3.9,4.9,3.9,8.1,0,5.9-4.7,10.6-10.6,10.6s-3.5-.5-4.7-1.2c-1.2-.5-2.2-1-3.5-1.5-2-.7-3.9-1.5-5.9-2-2-.5-3.9-.7-5.7-.7-4.4,0-7.4.7-9.4,2.5-1.7,1.7-2.7,3.5-2.7,5.7s.2,3.2,1,4.2c.7,1.2,1.7,2.2,3.2,3.2,1.5,1,3.2,2,5.4,3l8.1,3.7c4.7,2,8.6,4.2,11.8,6.4,3.2,2.2,5.7,4.4,7.6,6.9s3.2,4.9,3.9,7.9c.7,2.7,1.2,5.7,1.2,9.1s-.7,7.9-2.2,11.8c-1.5,3.7-3.7,7.2-6.9,10.1-3,3-6.7,5.4-11.3,7.2-4.4,1.7-9.9,2.7-16,2.7s-5.9-.2-9.1-.7c-3-.5-6.2-1.2-9.1-2.2s-5.7-2-8.4-3v31.1h-20.5v22.9h-3v-202.8h3.7ZM606.9,289.5v30.6c3.7,2.5,7.9,4.7,12.6,6.4,4.9,1.7,9.9,2.7,14.8,2.7s7.2-.7,8.9-2.5c1.7-1.7,2.7-3.9,2.7-6.4s-.2-2.5-.7-3.7c-.2-1.2-1.2-2.5-2.7-3.7-1.2-1.2-3.2-2.5-5.4-3.7s-5.4-2.7-9.4-4.2c-4.4-2-8.1-3.9-11.3-5.9-3-2.2-5.4-4.7-7.4-7.2-1-.7-1.5-1.5-2-2.5Z"/>
</svg>