<?xml version="1.0" encoding="UTF-8"?>
<svg id="Layer_1" xmlns="http://www.w3.org/2000/svg" version="1.1" viewBox="0 0 793.7 595.3">
  <!-- Generator: Adobe Illustrator 30.0.0, SVG Export Plug-In . SVG Version: 2.1.1 Build 123)  -->
  <defs>
    <style>
      .st0, .st1 {
        fill: #0061a0;
      }

      .st2, .st3 {
        fill: #24246b;
      }

      .st4 {
        fill: #5284c3;
      }

      .st3, .st1 {
        fill-rule: evenodd;
      }
    </style>
  </defs>
  <path class="st4" d="M128,241.7c2-.7,4.1-2.2,6.1-3,141.2-54.1,288-44,416.7-30l-2.5,2.8c-118.5-13.9-242.6-3.5-414.2,52.1-2,.7-4,1.3-6,2v-23.8Z"/>
  <path class="st2" d="M128,231.2c2.3-.3,4.7-.6,7-.9,199.2-24.2,423.9,2.6,533.7,47.3l-2.9,2.3c-108.6-44.2-332.2-57-530.8-32.9-2.3.3-4.6.6-7,.9v-16.7Z"/>
  <rect class="st0" x="126.4" y="368.4" width="3.2" height="36"/>
  <polygon class="st1" points="176.9 404.4 176.9 373.8 173.7 373.8 173.7 401.3 148.1 373.8 144 373.8 144 404.4 147.2 404.4 147.2 376.9 172.9 404.4 176.9 404.4"/>
  <path class="st1" d="M210.3,401.2h-16.5v-24.3h15.7c7.4,0,12.3,4.9,12.3,12.3s-.6,4.8-1.9,6.9c-1.9,3.1-5.6,5.1-9.6,5.1ZM209,373.8h-18.4v30.6h19.5c4.3,0,8.2-1.5,11-4.2,2.9-2.8,4.4-6.6,4.4-10.7,0-9.6-6.3-15.6-16.5-15.6Z"/>
  <path class="st1" d="M269.7,394.4v-20.6h-3.2v19.5c0,5.6-4.4,8.5-13.1,8.5s-13.2-2.9-13.2-8.5v-19.5h-3.2v20.6c0,6.1,6.3,10.5,16.5,10.5s16.3-4.4,16.3-10.5Z"/>
  <path class="st1" d="M308.9,379l1.9-2.4c-3.9-2.4-8.9-3.6-15-3.6-9.7,0-15,3.4-15,8.9s5.4,7.3,16.3,7.7c8.3.3,12.4,1.4,12.4,5.9s-4.4,6.6-12.2,6.6-10.7-1.3-15.4-4.3l-1.8,2.6c4.4,3.1,10.1,4.7,17.2,4.7,10.4,0,16-3.7,16-9.9s-5.3-8.2-16.3-8.6c-8.4-.3-12.4-1.2-12.4-5.2s3.8-5.3,11.2-5.3,9.1.9,13.2,3Z"/>
  <polygon class="st1" points="348.6 376.9 348.6 373.8 316.1 373.8 316.1 376.9 330.8 376.9 330.8 404.4 334 404.4 334 376.9 348.6 376.9"/>
  <path class="st1" d="M379.6,388.9h-19.9v-12h18.9c4.8,0,7.1,1.9,7.1,6s-2.2,6-6.1,6ZM389.5,404.4l-9.2-12.4c5.8-.6,8.9-3.9,8.9-9s-3.7-9.2-9.5-9.2h-23.3v30.6h3.2v-12.3h16.3l9.6,12.3h3.9Z"/>
  <rect class="st0" x="401.2" y="373.8" width="3.2" height="30.6"/>
  <path class="st1" d="M440,393.4h-17.9l8.9-16.6h0l8.9,16.6ZM449.6,404.4l-16.4-30.6h-4.3l-16.5,30.6h3.7l4.3-7.8h21.2l4.2,7.8h3.8Z"/>
  <polygon class="st1" points="484.4 404.4 484.4 401.2 460.8 401.2 460.8 373.8 457.6 373.8 457.6 404.4 484.4 404.4"/>
  <path class="st1" d="M535.8,386.5h-23.7v-15h22.5c5.8,0,8.7,2.4,8.7,7.5s-2.7,7.5-7.5,7.5ZM536.1,368.4h-27.1v36h3.2v-14.8h23.1c7.3,0,11.7-4.1,11.7-10.5s-4.2-10.7-10.8-10.7Z"/>
  <path class="st1" d="M574.6,393.4h-17.9l8.9-16.6h0l8.9,16.6ZM584.2,404.4l-16.4-30.6h-4.3l-16.5,30.6h3.7l4.3-7.8h21.2l4.2,7.8h3.8Z"/>
  <path class="st1" d="M615.2,388.9h-19.9v-12h18.9c4.8,0,7.1,1.9,7.1,6s-2.2,6-6.1,6ZM625.2,404.4l-9.2-12.4c5.8-.6,8.9-3.9,8.9-9s-3.7-9.2-9.5-9.2h-23.3v30.6h3.2v-12.3h16.3l9.6,12.3h3.9Z"/>
  <polygon class="st1" points="669.3 404.4 652.8 385.1 667.6 373.8 662.7 373.8 640.1 391.2 640.1 373.8 636.9 373.8 636.9 404.4 640.1 404.4 640.1 394.9 650.3 387 665.3 404.4 669.3 404.4"/>
  <path class="st3" d="M189.9,300.3l6.7-7.5c-9.7-6.6-21.8-9.9-36.2-9.9-21.7,0-33.7,7.9-33.7,20.3s10.3,16.1,30.9,17.5c19.7,1.3,31,1.3,31,10.8s-8.5,11.8-24.4,11.8-23.1-3-33.8-9.6l-6.1,8c9.7,7.7,22.8,11.3,39.8,11.3s36.5-8.2,36.5-22.3-7.9-16.9-24.6-19c-13.6-1.8-24.6-.9-31.9-3.5-3.9-1.4-5.8-3.4-5.8-6.5,0-5.5,7.3-9.1,21.1-9.1s20.3,2.5,30.3,7.6Z"/>
  <polygon class="st3" points="285.1 351.5 252.4 316.5 282.7 294.7 266.3 294.7 227.6 322.5 227.6 294.7 216.5 294.7 216.5 351.5 227.6 351.5 227.6 334.3 243.8 322.7 270.8 351.5 285.1 351.5"/>
  <polygon class="st3" points="363.6 294.7 350.1 294.7 325.9 320.6 301.6 294.7 288.1 294.7 320.2 329.2 320.2 351.5 331.3 351.5 331.3 329.2 363.6 294.7"/>
  <path class="st3" d="M415.9,320.6h-33.2v-15.8h32.5c7.3,0,10.7,2.5,10.7,8.1s-3.4,7.7-10.1,7.7ZM417.5,294.7h-45.9v56.8h11.1v-20.9h33c13.9,0,21.6-6.5,21.6-17.9s-7.7-18-19.8-18Z"/>
  <path class="st3" d="M508.6,323c0,11.9-10.1,20.2-25.8,20.2s-26-8.3-26-20.2,10.5-20.1,26-20.1,25.8,8.6,25.8,20.1ZM520.1,323c0-9.1-4.1-16.7-12-22.5-6.5-4.7-15.5-7.7-25.3-7.7s-18.9,3-25.4,7.7c-8,5.8-12,13.4-12,22.5s4,16.9,11.9,22.7c6.4,4.6,15.4,7.5,25.5,7.5s19-2.8,25.4-7.5c7.9-5.8,11.9-13.4,11.9-22.7Z"/>
  <path class="st3" d="M574.8,320.6h-33.2v-15.8h32.5c7.3,0,10.7,2.5,10.7,8.1s-3.4,7.7-10.1,7.7ZM597.4,351.5l-15.3-21.5c9.2-2,14.1-8.1,14.1-17.3s-7.7-18-19.8-18h-45.9v56.8h11.1v-20.9h28.2l14.9,20.9h12.7Z"/>
  <polygon class="st3" points="667.4 304.8 667.4 294.7 602 294.7 602 304.8 629.1 304.8 629.1 351.5 640.2 351.5 640.2 304.8 667.4 304.8"/>
  <path class="st0" d="M128,190.3c2.2,0,4.4,0,6.6,0,188.5,0,352.3,32.2,456.2,90.2l-2.7,1.9c-102.8-57.4-265.5-75.4-453.4-75.4s-4.4,0-6.6,0v-16.7Z"/>
</svg>